<svg xmlns="http://www.w3.org/2000/svg" xmlns:xlink="http://www.w3.org/1999/xlink" width="206" height="206" viewBox="0 0 206 206">
    <defs>
        <path id="prefix__a" d="M.034 102.8c0 56.663 45.936 102.6 102.601 102.6s102.601-45.937 102.601-102.6C205.236 46.133 159.3.197 102.636.197 45.97.198.033 46.134.033 102.8"/>
        <path id="prefix__c" d="M.034 102.8c0 56.663 45.936 102.6 102.601 102.6s102.601-45.937 102.601-102.6C205.236 46.133 159.3.197 102.636.197 45.97.198.033 46.134.033 102.8z"/>
    </defs>
    <g fill="none" fill-rule="evenodd">
        <path fill="#23B839" d="M205.201 102.92c0 56.666-45.935 102.602-102.6 102.602C45.936 205.522 0 159.586 0 102.92S45.935.32 102.6.32c56.665 0 102.6 45.935 102.6 102.6"/>
        <g transform="translate(.6 .175)">
            <mask id="prefix__b" fill="#fff">
                <use xlink:href="#prefix__a"/>
            </mask>
            <path fill="#CEEA5C" d="M62.984 104.086s-3.983 17.19-20.217 12.753c-16.233-4.436-17.282-13.419-13.376-21.78 0 0-10.058 4.613-14.913-10.329-4.854-14.94 5.651-23.734 9.868-23.734 4.217 0-12.377 4.197-11.123-14.204 1.255-18.403 3.24-45.319 24.847-57.495 21.607-12.175 93.954-27.732 100.394-20.968 6.44 6.764 27.733 51.407 8.293 63.582 0 0 23.181 16.7 12.489 33.113-10.694 16.413-31.747 20.427-31.747 20.427s7.33 12.876-3.05 18.578c-10.38 5.701-38.469 2.088-38.469 2.088" mask="url(#prefix__b)"/>
            <g>
                <mask id="prefix__d" fill="#fff">
                    <use xlink:href="#prefix__c"/>
                </mask>
                <path fill="#5E4F45" d="M70.428 149.564S60.427 82.977 43.266 63.78C25.5 43.908 14.478 28.389 14.478 28.389L29.36 16.891S43.351 55.873 56.391 69.05c0 0-6.494-22.257-1.764-36.462 4.73-14.205 16.62-25.166 7.175-61.015-9.445-35.85 16.828-13.528 16.828-13.528s4.39 35.85-5.869 52.759C62.503 27.713 59.75 30.419 61.802 56.122c2.053 25.704 8.289 50.162 8.289 50.162s4.862-25.26 11.488-45.49c6.627-20.23 9.319-47.285 10.002-57.431.683-10.146 10.11-16.234 10.11-16.234l16.258 6.088S104.38-2.725 99.675 15.538 92.283 57.033 83.38 71.691c-8.903 14.659-5.524 38.332-5.524 38.332s4.924-24.54 13.724-37.191c8.8-12.651 31.2-54.588 31.2-54.588l4.352 9.469-17.263 25.412h20.225l-.967 9.441s-18.639-9.317-23.35-2.211c-4.71 7.106-19.798 45.762-19.798 45.762l-4.26 56.597-11.292-13.15z" mask="url(#prefix__d)"/>
            </g>
        </g>
        <g>
            <path fill="#F2703D" d="M91.537 104.09c2.234-.025 4.463-.18 6.694-.279 2.145-.094 4.142.382 6.247.777 2.361.442 4.367.672 6.708.05.636-.167 1.552-.16 1.76-.91.25-.896-.755-1.693-1.551-1.69-.599.001-2.757.676-2.688-.274.02-.26.176-.49.352-.68.775-.844 1.503-.682 2.46-.962.898-.264 1.802-1.174 2.401-1.859.968-1.108 1.593-2.585 1.407-4.046-.228-1.795-1.642-3.26-3.27-4.05-1.63-.787-3.464-1.013-5.26-1.229l-9.145-1.098c-1.517-.181-3.033-.363-4.552-.523-2.98-.313-5.97-.537-8.963-.675-2.421-.11-5.767-.743-8.083.117-1.916.71-4.083 1.215-5.502 2.685-1.42 1.47-2.264 3.525-2.12 5.564.143 2.04 1.328 4.014 3.14 4.96.865.452 1.831.665 2.761.958.43.136.952.513.743.91-.082.157-.257.24-.426.292-.66.209-1.379.125-2.053.283-1.118.26-2.09 1.71-.632 2.275 1.32.51 3.54.105 4.938.05 2.087-.082 4.127-.372 6.183-.61 2.783-.324 5.663-.007 8.451-.037" transform="translate(42.641 72.845)"/>
            <path fill="#F2703D" d="M132.598 69.936c.21.466-.451.81-.943.949-2.82.798-4.665 3.573-5.477 6.39-.813 2.815-.84 5.795-1.424 8.668-.21 1.042-.495 2.07-.85 3.071-.561 1.585-1.321 3.267-2.527 4.474-1.168 1.171-2.76 1.815-4.262 2.433-1.07.441-2.834 1.65-3.968.725-.925-.755-1.169-2.474.15-2.865 1.901-.564 3.873-.83 5.389-2.242 1.142-1.065 1.877-2.487 2.541-3.901 1-2.126 1.898-4.32 2.362-6.623.413-2.052.501-4.195 1.255-6.165 1.056-2.76 4.304-4.917 7.236-4.968l.518.054z" transform="translate(42.641 72.845)"/>
            <path fill="#FF8D59" d="M106.63 68.713c1.43 1.603 2.255 3.672 2.672 5.778.417 2.108.447 4.269.451 6.416.005 2.309-.02 4.622-.22 6.922-.15 1.74-.405 3.484-1 5.126-.594 1.642-1.55 3.185-2.919 4.268-.842.664-1.84 1.162-2.5 2.007-.661.847-.824 2.238.026 2.893.567.437 1.498.138 1.623 1.026.081.572-.451 1.203-.909 1.46-.97.545-2.38.221-3.388.066-.413-.065-.82-.166-1.213-.305-.33-.115-.674-.278-.836-.587-.08-.154-.107-.329-.132-.5-.113-.746-.224-1.492-.335-2.238-.057-.38-.118-.773-.333-1.091-.426-.638-1.458-.49-2.115-.392-.935.14-1.872.265-2.817.329-1.914.13-3.867.03-5.693-.606-.55-.19-1.222-.406-1.656-.02-.137.12-.225.287-.298.454-.378.858-.444 1.813-.626 2.732-.192.976-.517 2.015-1.479 2.35-.609.21-1.46.213-2.1.245-.873.045-3.057.122-2.884-1.282.158-1.295 2.387-.93 2.773-2.09.058-.172.044-.36.028-.542l-.181-2.158c-.044-.521-.092-1.056-.317-1.528-.255-.533-.71-.936-1.147-1.333-1.685-1.53-3.266-3.203-4.438-5.153-1.947-3.244-2.667-7.145-2.356-10.917.31-3.77 1.61-7.415 3.446-10.724.411-.742 1.174-.909 1.97-1.2 4.157-1.52 8.72-1.484 13.122-1.024 4.402.46 8.772 1.325 13.198 1.4.795.012 1.797.09 2.583.218" transform="translate(42.641 72.845)"/>
            <path fill="#FEC157" d="M132.007 70.998c3.842.844 8.084-.121 11.093-2.526.502-.4.979-.844 1.566-1.122.594-.282 1.266-.377 1.924-.47-.042-.284-.393-.411-.687-.482-2.093-.506-4.199-1.015-6.353-1.172-2.49-.183-5.36.056-7.46 1.43-1.177.772-2.596 2.812-1.147 3.991.417.338.973.494 1.522.517l-.458-.166z" transform="translate(42.641 72.845)"/>
            <path fill="#FF9B73" d="M81.596 71.161c4.52-2.192 9.924-1.616 14.699-.053 1.777.583 3.556 1.32 4.926 2.593 4.794 4.453 3.914 15.766-1.22 19.725-1.174.905-2.638 1.348-4.093 1.633-3.202.626-6.633.543-9.587-.842-4.381-2.054-5.432-6.042-6.276-10.381-.757-3.893.029-7.66 1.245-11.437l.45-1.391.78.003c-1.113 1.25-1.987 2.248-2.408 3.87l1.484-3.72z" transform="translate(42.641 72.845)"/>
            <path fill="#FEC157" d="M103.015 73.812c7.385-1.874 12.104-6.93 15.633-13.65 4.013-7.647 5.776-16.3 5.356-24.909-.372-7.588-1.911-17.053-7.113-22.913-3.771-4.247-7.342-7.317-12.677-9.396C97.036.148 89.01-.538 81.516 1.255 74.023 3.048 67.111 7.35 62.391 13.441c-3.582 4.621-5.004 9.991-6.774 15.565-.813 2.559-1.522 5.166-1.805 7.836-.61 5.755.808 11.619 3.445 16.771 2.637 5.152 6.45 9.634 10.704 13.557 1.91 1.761 3.934 3.431 6.227 4.653 3.36 1.793 6.998 2.246 10.638 3.095 5.733 1.338 11.536.302 17.188-.875.34-.071.673-.148 1.001-.231" transform="translate(42.641 72.845)"/>
            <path fill="#FF8D59" d="M76.33 40.4c.871-1.3 1.705-2.636 1.977-4.286.259-1.57-.157-3.333-1.392-4.334-.831-.672-1.913-.928-2.875-1.391-2.334-1.122-5.094-4.513-2.531-6.87 1.18-1.087 3.883-1.006 5.198-.195 1.322.815 1.739 2.598 2.977 3.534 4.174-3.298 10.781-3.934 15.661-1.813.773.336 1.619.746 2.419.482.824-.273 1.254-1.146 1.77-1.845 1.356-1.843 4.186-2.7 6.028-1.343 1.886 1.389 1.647 4.775-.416 5.885-.659.354-1.426.496-2.038.925-.71.498-1.701 2.24-1.957 3.025-1.565 4.795 4.907 8.23 5.37 12.752.148 1.445-.08 2.9-.384 4.32-1.045 4.895-3.394 8.474-8.155 10.343-4.131 1.622-8.945 1.53-13.08-.026-4.197-1.579-7.756-4.788-9.758-8.8-.668-1.34-1.172-2.786-1.24-4.28-.111-2.476 1.194-4.243 2.426-6.083" transform="translate(42.641 72.845)"/>
            <path fill="#35302F" d="M83.052 44.527c.778 2.307 3.69 2.936 5.808 3.16 2.114.223 6.216.502 8.032-.634.981-.614 1.588-1.905 1.162-2.98-1.769-4.46-9.928-5.014-13.516-2.972-1.027.585-1.813 1.743-1.616 2.908.03.18.074.353.13.518" transform="translate(42.641 72.845)"/>
            <path fill="#FFF" d="M80.675 33.098c0 .516.159 1.056.524 1.561 1.874 2.606 6.321.001 4.482-2.805-.299-.457-.748-.8-1.236-1.046-1.908-.961-3.77.531-3.77 2.29M94.847 33.005c-.02.103-.033.21-.038.32-.222 4.198 7.314 2.818 5.33-1.157-1.088-2.179-4.853-1.465-5.292.837" transform="translate(42.641 72.845)"/>
            <path fill="#35302F" d="M83.49 34.418c.756 0 1.387-.63 1.387-1.387 0-.756-.63-1.387-1.388-1.387-.756 0-1.387.63-1.387 1.387 0 .756.631 1.387 1.387 1.387M97.466 34.58c.733 0 1.344-.61 1.344-1.344 0-.732-.61-1.344-1.344-1.344-.733 0-1.344.612-1.344 1.344 0 .733.611 1.344 1.344 1.344M88.404 50.781c-1.098 1.518.63 2.977 2.116 2.945 1.353-.03 3.974-1.523 3.11-3.18-.076-.145-.297-.208-.435-.113-.44.303-.611.71-.94 1.109-.361.437-.896.742-1.43.913-.464.15-.969.146-1.39-.112-.44-.27-.417-1.058-.556-1.5-.072-.227-.345-.243-.475-.062" transform="translate(42.641 72.845)"/>
            <path fill="#FF9B73" d="M75.063 27.87c1.827 0 1.827-2.832 0-2.832s-1.827 2.832 0 2.832M103.926 27.238c.374-.13.606-.246.895-.52.707-.674.707-1.91 0-2.584-.29-.274-.52-.39-.895-.52-.462-.158-1.037-.05-1.447.19-.572.334-.93.96-.93 1.622 0 .497.199.978.549 1.329.45.45 1.206.697 1.828.483" transform="translate(42.641 72.845)"/>
            <path fill="#FF8D59" d="M81.797 18.749c-.15-.381-.297-.763-.414-1.155-.136-.453-.148-.921-.22-1.386-.027-.172-.226-.376-.4-.4-1.105-.152-.679 1.267-.49 1.732.216.533.526 1.017.837 1.498.22.342.85.124.687-.289M86.907 17.935l-.018-.05-.096.36c.38-.358.285-.851.301-1.32.019-.567.066-1.068-.15-1.604-.167-.414-.86-.678-1.094-.143-.277.631-.3 1.205-.24 1.887.024.271.029.619.17.86.058.1.146.189.234.263.074.074.162.124.262.152.16.053.201.049.121-.014.247.105.63-.07.51-.391M91.78 16.749c.426-1 1.686-2.354 1.152-3.477-.113-.239-.422-.27-.632-.166-1.041.519-1.08 2.471-1.112 3.482-.01.3.465.459.592.161M89.415 10.318c-.18-1.013 1.058-1.883.29-2.822-.153-.187-.417-.206-.633-.167-.72.125-.89 1-.89 1.612-.001.602.165 1.19.52 1.678.264.361.792.145.713-.301M100.46 15.35c.068-.04.137-.08.207-.117l-.224-.066c.094.055.196.082.305.083.23 0 .594-.147.788-.26.515-.303.874-.854 1.067-1.403.228-.648-.541-1.074-1.062-.817-.466.228-.907.598-1.173 1.052-.114.194-.154.442-.204.66-.034.15-.033.337.061.468-.117-.163-.075.01-.104.137-.045.196.157.366.34.263M97.733 9.661c.117-.106.28-.034.426-.127.262-.168.545-.32.74-.564.378-.471.894-1.106.629-1.746-.095-.23-.279-.356-.533-.303-.615.129-.867.75-1.135 1.248-.135.25-.18.495-.24.769-.03.13-.06.23-.036.361.02.113.061.151.012.258-.039.088.061.174.137.104M71.856 16.918c-.313-.347-.49-.78-.736-1.174-.207-.333-.547-.782-.99-.737-.151.017-.296.095-.335.255-.118.494.296.885.653 1.155.386.291.834.471 1.268.682.118.057.23-.081.14-.181M66.68 20.347c-.462-.78-.999-1.954-2.01-2.117-.62-.099-1.121.459-.813 1.057.462.891 1.634 1.011 2.427 1.455.25.142.546-.14.396-.395M71.513 20.406l-.338-.773-.15-.344c-.072-.167-.249-.265-.396-.356-.323-.2-.83.135-.679.523.054.138.094.28.198.392.112.123.252.207.389.299l.739.496c.16.108.3-.095.237-.237M71.436 35.439c-.486-.173-.889-.185-1.4-.185-.432 0-.933-.09-1.3.174-.203.146-.203.403 0 .55.367.264.868.173 1.3.173.511 0 .914-.012 1.4-.184.262-.091.262-.437 0-.528M70.846 40.48c-.182-.029-.381-.09-.565-.09-.223 0-.423.06-.637.112-.4.098-1.031.297-.879.853.136.493.702.462 1.09.374.2-.046.444-.076.621-.182.202-.118.367-.28.536-.44.19-.178.117-.586-.166-.628M66.106 39.116c-.047-.32-.444-.616-.746-.68-.5-.109-.961-.095-1.314.32-.233.276-.233.606 0 .88.353.418.815.43 1.314.322.358-.077.806-.444.746-.842M108.976 21.471c.494-.04 1.066-.047 1.516-.305.485-.276.913-.534 1.276-.963.44-.52.04-1.54-.73-1.256-.52.19-.953.428-1.419.724-.45.285-.742.795-.955 1.257-.104.225.013.568.312.543M109.107 16.812c.208-.117.459-.183.673-.298.228-.122.465-.264.708-.357.324-.122.478-.388.415-.73-.008-.045-.04-.095-.06-.141-.105-.238-.437-.339-.67-.272-.38.107-.75.256-1.025.545-.143.15-.253.31-.332.5-.067.162-.068.293-.09.46-.031.215.163.417.38.293M113.586 17.32c.234-.054.455-.141.67-.248.232-.113.493-.348.534-.616.026-.166-.07-.359-.265-.348-.449.023-.793.435-1.195.604-.361.153-.094.688.256.608M114.621 24.13c.604-.085 1.264-.223 1.77-.578.501-.35.362-1.225-.327-1.21-.794.02-1.514.546-1.85 1.257-.145.307.088.576.407.531M109.748 33.492c.506.543 1.919.917 2.45.232.254-.327.254-.647 0-.975-.531-.685-1.944-.312-2.45.232-.137.148-.137.363 0 .511M115.803 35.67c.31.096.59.186.92.175.198-.007.392-.004.57-.109.213-.125.395-.395.395-.65 0-.19-.11-.4-.243-.532-.203-.202-.454-.219-.722-.227-.33-.01-.61.08-.92.175-.58.176-.58.992 0 1.169M111.719 41.74c.681.123 1.353.416 2.045.449.57.027.77-.79.287-1.06-.643-.36-1.477-.365-2.198-.382-.56-.014-.702.89-.134.993M110.55 52.422c.527.482 1.132.792 1.834.93.91.178 1.044-1.232.165-1.215-.533.01-1.048-.09-1.526-.329-.38-.188-.817.3-.473.614M105.899 58.017c.337.653.705 1.276 1.072 1.911.374.65 1.416.028.997-.583-.224-.328-.454-.64-.767-.89-.308-.245-.629-.475-.94-.718-.2-.158-.49.034-.362.28M110.997 58.311c.03.57.16 1.006.385 1.527.084.194.25.37.372.542.24.339.422.548.823.7.564.214 1.058-.323 1.097-.836.07-.93-.995-1.58-1.464-2.26-.341-.496-1.249-.365-1.213.327M101.65 66.067c.092.486.247 1.134.665 1.431.324.231.727-.085.743-.426.011-.225-.101-.421-.17-.63-.074-.22-.12-.447-.151-.676-.043-.304-.427-.467-.694-.393-.314.086-.45.39-.393.694M105.91 66.677c-.08-.19.012.04.025.077.027.077.052.155.077.233.074.236.26.523.435.693.254.248.648.306.958.124.322-.189.434-.541.364-.892-.091-.447-.43-.798-.77-1.074-.243-.201-.55-.279-.84-.11-.357.21-.396.601-.249.95M86.908 64.81c-.368.738-.652 1.544-.556 2.39.044.383.223.671.606.795.146.048.294.052.439 0 .25-.09.535-.285.577-.576.122-.841.14-1.646-.035-2.475-.1-.466-.816-.564-1.03-.134M83.414 68.098c-.256.591-.71 1.33-.636 1.993.08.707.97 1.05 1.385.375.359-.583.284-1.42.302-2.082.013-.53-.822-.814-1.05-.286M80.757 63.39c-.501.538-1.135 1.403-1.095 2.168.043.826 1.014 1.025 1.474.398.275-.375.267-.826.305-1.273.033-.38.008-.75-.056-1.127-.046-.281-.447-.359-.628-.166M75.564 60.64c-.764.58-1.575 1.24-1.61 2.284-.021.663.818.962 1.27.525.544-.53.882-1.265 1.21-1.938.126-.26.114-.558-.1-.772-.183-.183-.546-.269-.77-.1M75.15 65.315c-.173.24-.345.48-.52.718l-.26.356c-.107.145-.14.31-.188.482-.063.222.2.447.403.31.107-.072.24-.138.332-.23.122-.124.215-.298.315-.44.19-.27.38-.543.566-.816.277-.403-.37-.768-.649-.38M72.835 54.807c-.26.08-.524.148-.791.201-.316.063-.64.301-.887.497-.532.424-.055 1.216.514 1.24.735.03 1.272-.393 1.796-.851.495-.43-.027-1.275-.632-1.087M71.35 58.965c-.27.122-.566.163-.845.263-.322.115-.618.365-.902.554-.38.252-.54.734-.3 1.145.215.367.77.563 1.144.3.333-.235.734-.477.974-.81.197-.27.331-.582.522-.859.273-.396-.238-.754-.593-.593M67.302 55.222c-.057.1-.131.191-.224.228-.14.057-.263.117-.305.278-.039.149.003.254.096.367.087.105.244.123.368.097.336-.07.588-.277.788-.546.137-.184.03-.468-.15-.573-.195-.115-.46-.05-.573.15M70.406 48.986c-.534.114-1.44.218-1.687.79-.119.276-.088.6.2.763.69.392 1.506-.24 1.98-.708.375-.372-.012-.947-.493-.845M63.385 48.158c-.432.216-.875.374-1.337.513-.27.081-.803.36-.582.735.44.752 1.835-.36 2.254-.673.34-.253.056-.77-.335-.575M65.499 51.592c-.168-.064-.346-.084-.519-.131-.299-.08-.692.09-.906.302-.258.26-.17.642.108.838.27.188.74.219 1.008.029.205-.146.393-.292.524-.507.131-.216-.003-.45-.215-.531M63.553 55.325c-.033 0-.292-.01-.127.017-.188-.03-.344-.032-.528.024l-.28.085c-.205.062-.344.162-.51.29-.299.234-.31.74-.134 1.04.255.435.747.498 1.174.308.2-.09.352-.272.505-.426.129-.128.218-.263.275-.436-.045.135.058-.092.074-.119.19-.336-.048-.793-.45-.783M65.857 59.383l-.049.05.515-.136c-.352-.082-.621-.012-.932.155-.407.22-.502.715-.544 1.133-.03.29.183.598.424.738.348.204.744.121 1.036-.134.2-.175.412-.401.483-.662.088-.318.024-.718-.151-.987v.533l.035-.06c.294-.509-.403-1.062-.817-.63M69.255 63.95c-.313.13-.574.248-.756.562-.074.124-.141.303-.162.454-.051.189-.051.375 0 .564.073.264.25.494.487.633.244.144.543.181.816.106.29-.08.46-.255.633-.486l.025-.033c-.056.072-.112.143-.167.216.12-.141.246-.27.34-.434.192-.335.195-.753 0-1.088-.096-.162-.225-.29-.387-.387-.223-.13-.579-.212-.83-.108" transform="translate(42.641 72.845)"/>
            <path fill="#FFD179" d="M30.535 74.865c-1.163-.165-2.55.041-3.564.657-.79.481-1.34 1.142-2.212 1.524-2.394 1.05-5.085 2.234-7.638 2.808-2.932.66-6.206.41-9.108-.303-2.612-.644-4.696-2.35-6.151-4.643.08-.012-.301-.105-.382-.1-.082.004-.134.086-.17.158-.55 1.114-.553 2.438-.245 3.641.307 1.204.902 2.312 1.516 3.392 1.743 3.068 3.711 6.052 6.274 8.478 3.024 2.861 6.762 4.84 10.055 7.387.34.264.685.542.913.91.37.598.422 1.632.274 2.3-.244 1.103-1.665.635-1.862 1.39-.252.964 2.861 1.543 3.496 1.522.104.354.153.266.386-.021.233-.286.256-.683.353-1.04.315-1.152 1.601-1.946 2.773-1.709 1.172.237 2.05 1.468 1.892 2.653-.066.502-.34 1.019-.818 1.188-.215.078-.373.098-.55-.05-.326.211-.465.638-.326 1.012.312.838 2.724 1.106 3.507 1.288.343.08.713.15 1.038.017.23-.094.412-.28.56-.48.836-1.133.763-2.701 1.385-3.964.578-1.174 1.693-1.972 2.573-2.938 1.373-1.51 2.178-3.44 2.865-5.361 1.117-3.122 1.999-6.4 1.826-9.711-.173-3.311-1.532-6.688-4.189-8.672-.542-.406-1.137-.752-1.785-.95-.772-.238-1.592-.26-2.4-.28l.357-.023-.643-.08zM49.378 106.604l-.015 1.942c-.002.196-.006.402-.101.572-.178.319-.587.398-.937.496-.35.098-.747.335-.724.699.024.382.479.558.852.644l1.657.382c.386.089.793.177 1.175.07.697-.197 1.055-.952 1.297-1.634.239-.67.452-1.354.526-2.06.048-.468.02-.982-.287-1.337-.29-.335-.752-.446-1.183-.54-.39-.085-.782-.17-1.18-.199-.343-.025-.74.018-.938.298-.134.189-.14.435-.142.667M59.572 106.997c-.026-.163-.054-.329-.13-.476-.08-.156-.208-.282-.345-.392-.86-.694-2.133-.825-3.118-.323.62 1.35.872 2.834 1.118 4.3.027.158.053.327-.001.478-.098.274-.408.393-.675.506-.266.112-.56.308-.556.598.006.359.442.523.794.593l3.068.609c.644-.626.545-1.668.398-2.554l-.553-3.339" transform="translate(42.641 72.845)"/>
            <path fill="#FFF" d="M21.194 85.515c1 .932 2.634.872 3.834.213.966-.53 1.756-1.438 1.986-2.515.23-1.079-.177-2.308-1.1-2.91-.197-.131-.414-.23-.632-.324-3.5-1.501-7.26 2.58-4.088 5.536M24.635 90.04c.13 1.405 1.394 2.557 2.79 2.764 2.344.348 5.105-1.707 4.84-4.208-.096-.897-.581-1.746-1.306-2.283-.226-.167-.473-.306-.733-.413-1.409-.577-2.983-.218-4.054.818-.907.878-1.653 2.064-1.537 3.322" transform="translate(42.641 72.845)"/>
            <path fill="#35302F" d="M4.018 73.898c.096-.427.066-.899-.175-1.263C3 71.36.927 71.579.283 73.055c-.105.244-.166.512-.14.777.106 1.05 1.444 1.945 2.437 1.658.722-.207 1.273-.86 1.438-1.592" transform="translate(42.641 72.845)"/>
            <path fill="#C6BFA3" d="M58.36 107.183c2.03-.442 4.016-1.13 5.928-2.075 1.88-.928 3.628-2.22 4.794-3.964.43-.641.792-1.355 1.406-1.821 1.222-.927 2.899-.586 4.377-.183-.295-1.246-1.128-2.31-2.122-3.117-.994-.806-2.15-1.384-3.295-1.956-.41-.204-.792-.415-1.203-.62.693-.653 1.714-.818 2.666-.802 2.178.04 4.468.83 6.49 1.638-.494-2.275-1.721-4.384-3.454-5.939-1.733-1.554-3.967-2.468-6.283-2.713-.018-.597.6-.995 1.15-1.231 1.485-.635 3.08-1.016 4.691-1.121.463-.03.837-.207 1.23.04-1.852-2.24-4.116-4.18-6.762-5.382-2.645-1.203-5.493-1.764-8.304-1.03.804-1.673 2.15-3.08 3.787-3.957 1.636-.876 3.609-1.513 5.447-1.257-1.363-1.541-3.413-2.262-5.395-2.818-2.494-.7-5.061-1.24-7.652-1.19-2.983.056-6.169 1-8.726 2.538-.3-1.122-.275-2.221.25-3.276.442-.884 1.132-1.62 1.887-2.257.141-.118 2.096-1.435 2.2-1.377-1.44-.817-3.782-.33-5.334-.045-.787.144-1.574.307-2.329.576-1.57.56-3.286 1.5-4.294 2.829-.334-1.048-.67-2.158-.426-3.23.125-.546.232-1.285.62-1.69-2.82-.121-5.458 1.31-7.828 2.845-1.311.847-2.607 1.752-3.646 2.917-2.073 2.324-2.962 5.653-2.325 8.7 1.91-.524 4.002.135 5.656 1.225 1.655 1.09 2.92 2.68 3.973 4.358.363.578.707 1.173.95 1.81.454 1.182.551 2.472.524 3.738-.123 5.603-2.585 10.88-5.359 15.75-.11.195 6.997 2.565 7.784 2.68 2.926.426 5.795 1.167 8.714 1.638 3.442.556 6.888.493 10.214-.231" transform="translate(42.641 72.845)"/>
            <path fill="#35302F" d="M21.495 81.838c-.06.193-.086.406-.07.608.007.36.103.697.285 1.008.185.31.434.556.746.737.328.186.68.276 1.057.272.361-.008.698-.103 1.009-.285.01-.009.021-.015.034-.02l-.488.21.017-.005c.706-.17 1.272-.797 1.45-1.486.182-.712-.031-1.483-.553-2.001-.528-.525-1.322-.728-2.038-.525-.35.102-.654.281-.91.538-.265.269-.444.585-.539.949M30.24 88.495c-.029-.399-.08-.693-.286-1.042-.271-.46-.725-.807-1.244-.94-.384-.1-.684-.075-1.065.018-.545.13-.938.528-1.232.98-.291.447-.337 1.077-.193 1.58.199.695.76 1.244 1.461 1.424.524.135 1.086.055 1.553-.22.602-.356 1.059-1.082 1.007-1.8M18.582 93.618c-.808 1.051-.14 2.482.961 3.018 1.235.601 2.72-.053 3.232-1.3.276-.674-.602-1.233-1.008-.578-.397.642-.962 1.202-1.763.833-.739-.34-.771-1.136-.89-1.836-.036-.223-.392-.32-.532-.137" transform="translate(42.641 72.845)"/>
            <path fill="#AAA187" d="M39.383 75.524c.095-.234.231-.432.346-.538-.105.097.04-.023.06-.035-.17.103.113-.052.173-.08-.146.07.056-.005.077-.01.146-.038.25-.127.36-.224.347-.31.205-.85-.146-1.077-.523-.34-1.247.015-1.55.49-.267.421-.29.9-.162 1.371.095.35.685.487.842.103M36.125 72.762c.076-.082.207-.193.294-.341.042-.07.083-.141.129-.209-.085.127.124-.17.145-.2-.092.135.156-.398.086-.231.08-.19.128-.358.07-.563-.075-.258-.27-.428-.521-.507-.236-.074-.534.013-.7.193-.271.29-.39.572-.424.962-.01.108-.014.213-.006.321.015.187.099.326.187.483.146.26.536.311.74.092M39.956 71.44c.367-.284.734-.603.736-1.11.003-.495-.537-.73-.94-.526-.314.16-.466.513-.65.793-.152.23-.087.563.102.75.179.178.536.26.752.093M31.984 74.742l-.03-.029.09.33c.032-.246-.066-.36-.003-.558.091-.283.327-.738.09-1.088-.097-.144-.27-.279-.458-.257-.67.08-.84.79-.747 1.359.06.38.43.928.879.79l-.265-.033c.065.032.133.059.201.086.368.144.518-.403.243-.6M32.929 70.909c.143-.433.458-.86.37-1.329-.048-.25-.35-.386-.58-.322-.62.176-.751.988-.78 1.534-.012.221.173.426.377.479.28.071.526-.102.613-.362M34.511 76.403c.221-.164.375-.366.496-.612.172-.351.255-.844-.148-1.075-.773-.443-1.267.819-1.096 1.388.087.288.477.5.748.299M41.658 81.716c.232-.303.471-.59.735-.867.172-.182.375-.372.44-.623.077-.299-.05-.609-.319-.757-.55-.304-1.118.225-1.392.661-.26.415-.34.924-.208 1.395.082.292.534.465.744.191M44.075 78.064c.034-.01.069-.017.103-.023l.037-.007c-.163.029-.137.026.076-.008.082-.023.16-.07.238-.107.136-.068-.158.062-.018.007.204-.082.428-.201.536-.404.132-.247.133-.482.012-.728-.137-.276-.545-.417-.832-.32-.189.062-.314.137-.468.258-.102.08-.198.161-.264.276l-.07.174.028-.069c-.034.084-.068.164-.097.25-.142.437.319.797.719.7M45.733 79.976c-.025.008.131.015.158.015.138 0 .276-.032.413-.053.252-.04.477-.149.686-.288.273-.183.422-.496.329-.823-.113-.392-.51-.588-.896-.498-.505.117-.944.453-1.194.91l.176-.178-.049.037c-.175.132-.283.32-.218.546.07.246.345.412.595.332M48.29 76.98c.398.004.675-.165.976-.401.313-.244.486-.59.508-.983.03-.54-.6-.781-1.017-.569-.26.133-.456.367-.62.601.043-.056.037-.049-.02.02-.068.084-.148.168-.203.26-.074.12-.116.254-.167.384-.138.346.221.685.543.688M52.807 80.861c-.07-.005-.044 0 .075.012.09-.002.189-.032.277-.05.142-.028.284-.06.423-.096.373-.097.74-.408.95-.717.307-.45-.212-1.097-.717-.917-.344.121-.586.345-.855.58-.113.1-.202.274-.292.395-.027.037-.054.073-.083.109.013-.017-.18.263-.09.158-.208.244-.005.595.312.526M50.66 84.054l.046-.034-.177.05c.087-.004.162-.029.245-.048-.117-.013-.233-.028-.35-.042.107.054.207.084.327.072.15-.026.183-.03.098-.012.053-.004.324-.032.157-.013.14-.016.267.01.408-.029.181-.05.314-.119.46-.242l-.295.174c.171-.063.317-.14.443-.275.218-.233.183-.525-.003-.758-.052-.065-.121-.121-.192-.164-.064-.042-.133-.073-.208-.093.126.06.09.047-.108-.039-.255-.065-.54.01-.755.149-.308.199-.65.56-.543.96l-.003-.237c-.019.055-.049.155-.049.242l.048-.186-.027.053c-.151.284.18.69.478.472M54.984 84.16l.047-.014-.217.002c.173.057.366.042.54 0 .052-.011.103-.03.154-.045.035-.009.071-.016.106-.023-.092.013-.1.014-.023.004.197-.025.451-.06.625-.162.323-.191.496-.681.259-1.005-.146-.2-.374-.394-.644-.362-.648.078-1.442.554-1.313 1.305l-.003-.217c-.006.014-.01.029-.017.044-.104.282.223.555.486.473M43.292 89.594c.7.029 1.53-.001 2.156-.349.547-.304.252-1.073-.31-1.1-.703-.034-1.467.298-2.088.592-.448.213-.18.84.242.857M48.605 92.394c1.467-.267 3.62-.84 4.24-2.376.216-.535-.552-.848-.907-.516-.5.467-.932.881-1.522 1.245-.628.387-1.317.7-2.007.957-.437.163-.258.773.196.69M49.09 88.804c.276-.099.556-.161.83-.26.362-.13.669-.226.86-.585.155-.29.015-.67-.316-.75-.397-.096-.68.048-1.006.259-.28.182-.529.416-.784.631-.322.273.026.844.417.705M55.836 92.594c.21-.236.468-.433.733-.604.324-.21.73-.348.906-.722.137-.29.033-.694-.322-.765-.933-.186-1.785.896-2.062 1.667-.15.418.46.743.745.424M58.49 86.724c.541-.322 1.18-.506 1.674-.897.42-.332.06-1.08-.444-1.038-.81.07-1.373.758-1.761 1.411-.198.335.201.72.53.524M56.095 76.397c.138-.19.19-.434.337-.616.094-.116.193-.22.307-.315.15-.126.197-.326.258-.501.127-.362-.212-.63-.525-.666-.912-.104-1.594 1.181-1.435 1.968.11.545.794.49 1.058.13M53.412 73.819c.107-.424.389-.786.756-1.023.385-.25.937-.275 1.138-.738.072-.167.072-.348-.066-.485-.516-.511-1.32-.069-1.734.373-.485.52-.55 1.144-.505 1.824.014.232.35.284.41.049M38.843 93.275c.148-.043.274-.067.428-.062-.085-.003.127.054.006.004.068.039.14.07.214.094-.06-.023-.054-.015.015.022.492.3 1.186-.334.819-.83-.229-.309-.533-.517-.935-.474-.39.041-.702.237-1 .48-.372.301.036.888.453.766M41.168 98.884c.662-.344 1.384-.743 1.903-1.288.257-.268.182-.865-.253-.917-.59-.071-1.008.129-1.41.556-.338.36-.49.772-.682 1.213-.128.29.14.592.442.436M46.487 100.331c.557-.568 1.373-.98 1.61-1.795.171-.585-.664-1.11-1.073-.61-.478.588-.623 1.397-1.01 2.045-.176.294.236.602.473.36M45.198 94.007c.161-.247.3-.477.347-.773.035-.215-.027-.425-.227-.54-.182-.104-.439-.079-.584.08-.112.123-.204.245-.28.394-.075.146-.118.313-.17.467-.07.208.052.452.235.557.245.14.531.042.68-.185M52.957 97.36c.996.219 1.905-.412 2.25-1.33.072-.196-.015-.492-.173-.625-.15-.125-.272-.177-.469-.187-.214-.013-.455.138-.552.326-.289.554-.542 1.089-1.116 1.396-.175.094-.133.379.06.42M41.108 87.71c.299-.422.538-.885.778-1.344.25-.476.86-.881.785-1.458-.03-.22-.142-.424-.378-.479-.726-.168-1.209.548-1.467 1.137-.28.637-.332 1.321-.258 2.006.032.292.371.378.54.138M45.417 84.914c.444-.243.843-.643.872-1.17.018-.333-.421-.471-.637-.256-.258.257-.417.599-.672.864-.287.299.08.757.437.562M44.121 73.53c.394-.145.588-.591.73-.957.131-.336.175-1.09-.297-1.212-.429-.11-.737.467-.827.79-.11.392-.12.996.159 1.319.052.06.16.088.235.06M35.456 67.191c.495-.08.908-.644.845-1.139-.05-.38-.461-.586-.765-.306-.15.136-.252.288-.341.47-.032.065-.07.128-.109.188-.025.054-.047.11-.065.168-.002.008-.05.134-.012.049-.147.33.097.627.447.57M37.333 79.75c.257-.332.591-.67.712-1.081.048-.166-.126-.342-.293-.285-.438.15-.729.585-.917.987-.061.13-.055.276.051.382.11.11.342.135.447-.002M61.535 81.94c.046-.059.094-.112.148-.162.076-.063.038-.044-.113.056.115-.031.202-.099.286-.18.05-.043.04-.035-.028.022.034-.024.155-.077-.012-.008.047-.019.266-.061.056-.03.115-.017.222-.033.332-.064.028-.007.056-.014.084-.019l-.069.012c.107-.002.206-.03.298-.084.3-.177.387-.53.213-.829-.14-.239-.523-.376-.8-.367-.275.009-.502.126-.714.294-.132.104-.239.248-.316.397-.052.094-.078.195-.077.302l.016-.073c-.008.06-.015.121-.021.183-.009.088 0 .178.012.266.02.147.071.272.207.35.146.085.386.076.498-.067M63.366 86.513c.546-.308 1.062-.726 1.08-1.407.01-.403-.563-.658-.833-.334-.323.389-.41.895-.682 1.311-.18.275.172.578.435.43M60.369 91.362c-.081-.039-.075-.038.018.002.073.025.15.033.225.01.094-.03.256-.053.303-.058.322-.04.604-.14.894-.279.269-.128.381-.49.304-.76-.102-.358-.473-.55-.827-.46-.367.091-.672.316-.888.624-.082.119-.113.227-.171.345-.038.078-.077.156-.076.246.003.042.01.083.022.123.04.088.04.094 0 .018-.009.098.099.2.196.19M55.092 88.657c.042-.06.084-.119.129-.175l-.215.126c.318-.131.518-.412.749-.66.19-.204.367-.454.27-.752-.071-.22-.222-.38-.45-.44-.47-.12-.85.32-1.046.687-.196.37-.181.731-.113 1.131.06.35.514.312.676.083M59.113 96.04c.204.053.405.01.588-.01.216-.023.413-.028.624-.094.623-.193.49-1.123-.167-1.125-.28 0-.502.087-.735.237-.241.155-.457.329-.534.615-.044.164.06.336.224.378M53.893 103.069c.355-.162.748-.275 1.126-.37.411-.106.842-.012 1.092-.43.06-.096.062-.238-.002-.333-.323-.485-.885-.293-1.342-.126-.481.175-.863.454-1.214.823-.23.243.062.562.34.436M45.032 104.685c.693.016 1.537-.002 2.063-.525.48-.477-.133-1.152-.69-.886-.249.12-.466.301-.706.437-.238.135-.504.242-.762.333-.348.123-.282.631.095.64M39.25 102.768c.732-.063 1.652-.275 1.895-1.069.114-.37-.265-.672-.608-.592-.314.074-.535.25-.786.445-.256.197-.515.388-.77.587-.256.2-.035.655.268.63M36.616 100.78c.01-.084.019-.116.06-.18-.023.038-.014.031.028-.02l.093-.121c-.033.043-.026.036.021-.02.088-.097.307-.235.486-.392.368-.318.075-1.031-.417-.977-.475.052-.83.265-1.073.682-.222.38-.095.764.067 1.133.136.308.69.23.735-.105M43.283 101.619l.105-.042c-.102.008-.077.003.075-.016.056-.017.108-.041.155-.075.072-.046.154-.093.215-.154.058-.058.104-.14.15-.212.122-.19.071-.458-.084-.612-.17-.169-.409-.18-.614-.076-.122.061-.216.133-.302.24-.063.077-.146.16-.16.266.033-.061.035-.066.008-.014l-.037.07c-.073.137-.077.296.002.43.09.153.31.266.487.195M38.223 97.71c.403-.2.744-.573.733-1.045-.004-.146-.086-.314-.224-.38-.578-.273-.804.532-1.054.887-.1.144-.052.362.065.478.133.133.32.14.48.06M48.604 95.86c.261-.238.789-.85.452-1.202-.071-.075-.165-.07-.257-.052-.134.028-.197.181-.27.28-.059.082-.1.179-.155.262-.063.095-.15.176-.233.252-.313.284.153.742.463.46M50.673 100.366c.162-.067.303-.143.428-.271.133-.136.182-.368.144-.549-.043-.207-.282-.255-.446-.178-.062.029-.124.07-.182.106-.038.022-.071.05-.11.071.08-.044-.04.011-.063.018-.22.058-.35.3-.287.516.057.2.305.375.516.287M59.209 100.428c.233-.154.47-.305.71-.445.3-.174.58-.316.744-.64.24-.473-.16-.945-.663-.846-.354.07-.573.309-.785.581-.205.263-.39.527-.536.826-.16.325.187.75.53.524M61.837 102.95c.212-.194.456-.36.693-.523.298-.203.636-.457.62-.857-.01-.226-.154-.397-.366-.464-.688-.216-1.413.769-1.682 1.286-.245.473.345.92.735.559M67.186 90.863c.208-.133.43-.236.648-.349.274-.142.633-.32.675-.667.028-.224-.03-.374-.214-.51-.354-.26-.83 0-1.11.236-.238.2-.411.467-.559.737-.188.346.206.78.56.553M64.93 88.948c.019-.02.099-.084.001-.01-.026.018.25-.187.097-.08.09-.063.176-.12.232-.219.057-.1.079-.21.072-.324l-.113.282c.059-.075.105-.14.124-.235.022-.103.002-.228-.083-.302-.102-.088-.19-.12-.326-.13l.202.053c-.132-.087-.292-.116-.446-.073-.154.045-.252.154-.34.278-.102.142-.135.298-.144.47-.019.373.48.54.723.29M64.456 94.193c.036-.071.075-.121.124-.184.03-.04.069-.076.103-.112 0 .002.12-.106.055-.058.18-.133.4-.195.568-.346.264-.237.109-.683-.212-.767-.364-.096-.768.092-.994.376-.251.317-.29.633-.212 1.021.051.263.45.3.568.07M66.183 97.483c.18-.32.45-.57.636-.882.18-.303-.181-.638-.476-.47-.36.206-.61.627-.8.984-.224.42.406.783.64.368M63.701 97.89c.084-.088.15-.181.204-.288.142-.277.016-.624-.297-.705-.313-.08-.59.163-.6.473-.003.122.01.234.04.352.072.28.454.38.653.168M66.192 100.184c.285-.159.585-.373.668-.706.052-.209-.157-.46-.382-.372-.283.11-.418.272-.684.406-.19.095-.24.36-.137.534.11.187.349.242.535.138M67.463 82.108l.001.037.058-.224c-.092.214-.134.418.015.621.081.113.178.218.31.273.18.073.367.123.561.068.168-.048.359-.183.431-.34.06-.129.089-.252.048-.393-.053-.189-.19-.286-.362-.354-.08-.03-.164-.026-.248-.029-.061-.009-.121-.003-.181.018-.06.012-.045.01.047-.002-.06 0-.04.005.057.012-.055-.015-.038-.008.052.022l-.048-.036c-.061-.036-.127-.057-.198-.064l.266.2-.022-.032c-.112-.156-.286-.247-.48-.191-.18.05-.316.225-.307.414M64.075 79.346c.12.05.239.107.363.144.153.047.335-.008.444-.122.13-.135.165-.272.117-.452-.041-.152-.174-.289-.33-.322-.127-.027-.259-.034-.388-.048-.413-.045-.589.64-.206.8M65.445 82.419c.124.043.245.058.376.064.433.022.604-.64.213-.83-.117-.057-.23-.103-.36-.125-.246-.042-.493.073-.56.33-.066.259.095.479.331.561M58.319 71.084c.141.183.33.246.558.265.171.014.349.037.515-.024.292-.105.505-.348.5-.673-.007-.386-.325-.664-.7-.675-.165-.005-.312.057-.466.106-.222.07-.383.189-.49.397-.112.222-.064.417.083.604M59.646 73.536c.022-.119.047-.236.055-.357.026-.358-.538-.503-.69-.177-.05.11-.085.224-.122.34-.066.202.084.425.28.475.197.05.436-.072.477-.28M50.166 72.25l-.066.121c.04-.022.073-.051.1-.086l-.178.105c.161-.06.267-.171.39-.283-.04.034-.032.033.024-.004.062-.035.114-.081.156-.138.094-.11.155-.203.2-.344.113-.35-.198-.62-.513-.65-.427-.04-.703.349-.816.708-.049.15-.014.364.066.5l.071.09c-.036-.057-.022-.042.04.045.032.03.065.054.102.073l.053.022c.135.19.418.071.37-.16M44.776 67.61c.213-.399.438-.786.36-1.253-.052-.313-.544-.44-.741-.19-.295.37-.284.818-.29 1.27-.003.353.504.484.67.172" transform="translate(42.641 72.845)"/>
        </g>
    </g>
</svg>
