<svg xmlns="http://www.w3.org/2000/svg" xmlns:xlink="http://www.w3.org/1999/xlink" width="205" height="206" viewBox="0 0 205 206">
    <defs>
        <path id="prefix__a" d="M0 0.198L204.802 0.198 204.802 205.399 0 205.399z"/>
    </defs>
    <g fill="none" fill-rule="evenodd">
        <g transform="translate(0 .402)">
            <mask id="prefix__b" fill="#fff">
                <use xlink:href="#prefix__a"/>
            </mask>
            <path fill="#F49F0B" d="M204.802 102.799c0 56.665-45.846 102.6-102.4 102.6C45.845 205.4 0 159.465 0 102.8 0 46.134 45.846.199 102.401.199s102.401 45.935 102.401 102.6" mask="url(#prefix__b)"/>
        </g>
        <path fill="#525252" d="M170.13 160.172c0 4.818-31.077 8.724-69.412 8.724-38.334 0-69.41-3.906-69.41-8.724s31.076-8.724 69.41-8.724c38.335 0 69.412 3.906 69.412 8.724"/>
        <path fill="#00B0C2" d="M33.598 135.799c38.836.73 80.393-34.146 80.393-34.146 20.329-21.408 46.43-35.23 46.43-35.23-5.474-14.825-16.436-27.194-16.436-27.194-8.667-11.718-11.207-6.079-11.207-6.079-9.703 20.523-42.766 25.685-42.766 25.685-9.708-13.563-12.997 4.558-12.997 4.558-7.207 30.28-40.858 52.619-40.858 52.619-7.779 4.427-6.76 10.834-6.76 10.834s2.124 6.993 4.201 8.953"/>
        <path fill="#FFF" d="M63.62 98.863c5.272-4.197 8.676-10.14 11.613-16.099 1.337-2.713 2.622-5.452 3.962-8.164 1.044-2.115 2.047-4.288 2.65-6.577.421-1.6 1.28-5.006-.654-6.063-2.09-1.143-4.285 1.981-4.764 3.664-3.817 13.453-12.689 25.22-21.14 33.996.482.46 1.031.843 1.662 1.105 2.422 1.008 4.805-.373 6.672-1.862"/>
        <path fill="#D9D9D9" d="M49.379 109.807c1.433.75 2.857 1.516 4.406 2.006 3.407 1.077 6.822 1.118 10.029-.609 6.722-3.62 11.374-10.323 14.876-16.93 1.932-3.648 4.245-7.428 5.485-11.381 1.114-3.553 1.296-7.306 2.34-10.876 1.046-3.574 2.571-7.066 2.863-10.819.072-.928.172-1.903.246-2.892-7.095-9.463-10.66-1.763-11.984 2.597.253-.258.52-.503.81-.727 1.983-1.523 4.67-.789 5.718 1.522 1.094 2.411.668 5.135-.1 7.588-.77 2.466-1.836 4.821-2.997 7.126-1.665 3.304-3.162 6.693-4.883 9.97-1.714 3.268-3.6 6.48-5.939 9.346-2.192 2.684-4.876 5.505-8.052 7.005-2.251 1.062-5.029 1.185-7.18-.211-.53-.343-1.008-.731-1.444-1.155-2.56 2.557-5.044 4.825-7.298 6.768.996.619 2.062 1.127 3.104 1.672"/>
        <path fill="#031C2D" d="M57.867 99.592s9.272-5.96 17.425-5.934c0 0 1.48-1.368-.512-2.588 0 0-10.778.272-17.72 6.885 0 0-3.175 1.692.807 1.637M64.857 90.752s9.207-9.134 16.278-8.605c0 0 1.247-1.585-.911-2.476 0 0-8.563-.163-16.42 9.591 0 0-2.87 2.169 1.053 1.49M71.98 79.923s3.738-6.984 10.498-6.983c0 0 1.248-1.584-.91-2.476 0 0-5.95-.21-10.642 7.97 0 0-2.87 2.17 1.054 1.49"/>
        <path fill="#D9D9D9" d="M143.34 38.448c-3.008 5.902-7.845 10.43-13.143 14.384-5.286 3.945-11.402 7.093-17.592 9.342-3.853 1.401-7.778 2.495-11.859 2.947-1.934.215-3.885.345-5.831.252-.554-.026-5.331-.358-5.36-1.007.05 1.139.058 2.279.013 3.412-.338 8.379-2.387 16.955-5.932 24.546-2.768 5.924-6.024 11.642-10.263 16.644-4.189 4.944-9.457 9.539-15.79 11.388-5.476 1.599-13.208 1.608-17.193-3.194-.748-.901-1.332-1.868-1.774-2.876-1.552 1.112-2.459 1.726-2.459 1.726-7.78 4.427-6.76 10.833-6.76 10.833s2.124 6.994 4.2 8.953c20.158.38 41.049-8.835 56.481-17.785.329-1.502.713-2.992 1.133-4.471 1.473-5.175 3.438-10.236 5.664-15.13 3.275-7.2 7.161-14.063 11.968-20.35 4.693-6.138 9.934-11.829 15.295-17.383 3.25-3.37 6.648-6.65 10.324-9.554 3.892-3.071 8.067-5.771 11.846-8.99-.786-1.32-1.977-2.547-2.968-3.687"/>
        <path fill="#D9D9D9" d="M89.882 60.68c-.585.061-.633-1.068-.935-1.922 2.506.001 4.729-.635 7.138-1.247 7.075-1.797 13.274-4.124 19.454-7.514 7.087-3.89 13.718-9.4 17.239-16.847 0 0 1.805-4.004 7.558 1.75 0 0-15.28 22.06-50.454 25.78M148.512 53.666c-3.514 2.384-6.937 4.86-10.197 7.59-6.41 5.363-12.754 10.78-18.118 17.23-5.206 6.257-9.6 13.076-13.241 20.355-1.486 2.97-2.992 5.892-4.553 8.819-.668 1.252-1.318 2.523-1.86 3.837 8.326-5.546 13.448-9.844 13.448-9.844 20.329-21.408 46.43-35.23 46.43-35.23-2.16-5.851-5.176-11.318-8.034-15.794-1.254 1.065-2.517 2.115-3.875 3.037"/>
        <path fill="#FFF" d="M160.024 65.765s-15.05 7.144-43.676 32.973c0 0-60.085 49.052-82.248 30.002 0 0-.572-1.877-5.1-2.553.062.009 1.05 3.136 1.127 3.315 1.054 2.488 2.288 4.982 3.87 7.178 1.683 2.337 6.09 4.383 8.727 5.332.35.126.702.24 1.055.344l.427-1.486c.048-.169.165-.35.266-.491.201-.28.541-.521.892-.352.342.166.548.68.568 1.042l.09 1.8c.422.07.846.125 1.27.171l.294-1.753c.029-.172.123-.367.208-.518.169-.3.478-.58.846-.45.36.124.622.611.684.969l.311 1.889c.496.005.992-.002 1.488-.024l.1-1.846c.01-.174.084-.379.15-.537.136-.32.412-.63.791-.543.371.085.687.54.787.889l.534 1.891c.566-.043 1.135-.09 1.703-.145l-.024-1.676c-.003-.175.055-.383.113-.547.112-.326.366-.656.75-.595.376.058.722.49.847.831 0 .003.371 1.037.622 1.737 1.5-.18 2.995-.39 4.459-.627 11.046-1.788 21.733-6.75 31.415-12.18 8.33-4.674 20.191-12.784 27.617-18.783 0 0 16.768-15.108 28.302-16.62l-.669-1.397c-.09-.188-.131-.445-.152-.652-.041-.41.07-.898.519-1.026.438-.125 1.03.171 1.336.48.002 0 .549.558 1.085 1.104.446-.319.887-.64 1.329-.963l-.793-1.657c-.09-.189-.132-.445-.152-.65-.042-.412.07-.899.518-1.027.439-.125 1.031.17 1.338.48l1.23 1.252c.423-.323.844-.648 1.26-.973l-.802-1.677c-.09-.188-.132-.446-.153-.652-.042-.41.071-.897.52-1.025.437-.126 1.03.17 1.336.479l1.18 1.201c.454-.373.9-.749 1.342-1.125l-.83-1.192c-.12-.17-.202-.417-.256-.617-.107-.4-.074-.898.346-1.098.413-.194 1.045.002 1.397.256l1.288.944c.384-.349.757-.697 1.128-1.048l-.912-1.307c-.119-.171-.2-.418-.255-.618-.107-.4-.075-.898.347-1.097.412-.194 1.044.001 1.396.256.001.002.658.482 1.286.942 1.29-1.317 2.47-2.64 3.504-3.958 0 0-.07-7.852-7.976-12.272"/>
        <path fill="#0C3853" d="M160.024 65.765C167.93 70.185 168 78.037 168 78.037c-1.034 1.318-2.214 2.641-3.504 3.958-.628-.46-1.285-.94-1.286-.942-.352-.255-.984-.45-1.396-.256-.422.199-.454.697-.347 1.097.054.2.136.447.255.618l.912 1.307c-.37.351-.744.7-1.128 1.048l-1.288-.944c-.352-.254-.984-.45-1.397-.256-.42.2-.453.698-.346 1.098.054.2.136.447.256.617l.83 1.192c-.441.376-.888.752-1.342 1.125l-1.18-1.201c-.305-.309-.899-.605-1.336-.479-.449.128-.562.615-.52 1.025.021.206.063.464.153.652l.802 1.677c-.416.325-.837.65-1.26.973l-1.23-1.253c-.307-.31-.9-.604-1.338-.479-.448.128-.56.615-.518 1.026.02.206.062.462.152.651l.793 1.657c-.442.323-.883.644-1.33.963l-1.084-1.104c-.305-.309-.898-.605-1.336-.48-.449.128-.56.616-.519 1.026.02.207.062.464.152.652l.669 1.397c-11.534 1.512-28.302 16.62-28.302 16.62-7.426 5.999-19.288 14.11-27.617 18.782-9.682 5.432-20.369 10.393-31.415 12.181-1.464.237-2.959.446-4.46.627-.25-.7-.621-1.734-.621-1.737-.125-.341-.47-.773-.846-.831-.385-.061-.64.269-.751.595-.058.164-.116.372-.113.547l.024 1.676c-.568.055-1.137.102-1.703.145l-.534-1.891c-.1-.35-.416-.804-.787-.889-.38-.086-.655.224-.79.543-.067.158-.14.363-.15.537l-.1 1.846c-.497.022-.993.029-1.489.024l-.311-1.889c-.062-.358-.325-.845-.684-.97-.368-.129-.677.15-.846.451-.085.15-.18.346-.208.518l-.293 1.753c-.425-.046-.85-.101-1.27-.172l-.09-1.799c-.021-.362-.227-.876-.569-1.042-.35-.169-.69.072-.892.352-.101.14-.218.322-.265.49l-.428 1.487c-.353-.104-.705-.218-1.055-.344-2.637-.949-7.044-2.995-8.727-5.332-1.582-2.196-2.816-4.69-3.87-7.178-.076-.18-1.065-3.306-1.128-3.315 4.529.676 5.1 2.553 5.1 2.553s-1.269 13.22 31.638 7.38c0 0 25.017-4.915 54.194-28.545 0 0 48.672-32.754 40.093-41.81"/>
        <path fill="#FFF" d="M93.275 115.103s10.691-41.544 54.59-71.015c0 0 1.41 1.528 3.018 4.25 0 0-36.933 16.053-54.815 64.98l-2.793 1.785zM38.616 114.286c1.978 5.693 7.669 6.455 7.669 6.455 14.515 5.176 29.607-12.9 29.607-12.9s18.39-21.272 17.867-49.759l-4.85.598c-13.721 72.446-39.145 46.346-39.145 46.346"/>
        <path fill="#FFF" d="M88.816 70.684c.904 1.497.426 3.445-1.067 4.352-1.494.906-3.44.428-4.344-1.069-.904-1.496-.426-3.446 1.068-4.351 1.494-.907 3.438-.428 4.343 1.068"/>
        <path fill="#07273C" d="M65.351 100.293s-3.69-5.342-2.925-9.164c0 0 1.054-1.333 2.806.363 0 0-1.041 3.19 2.96 7.866 0 0-.42 2.11-2.84.935"/>
        <path fill="#FFF" d="M76.266 98.847c.904 1.496.426 3.445-1.067 4.351-1.493.907-3.438.427-4.342-1.07-.905-1.495-.427-3.444 1.065-4.35 1.494-.906 3.44-.428 4.344 1.069"/>
        <path fill="#0C3853" d="M55.092 101.194s7.163 4.722 17.97-.14c0 0 2.488-1.774.433-2.565 0 0-9.437 2.478-15.146-.236 0 0-1.385-.804-3.006.576 0 0-1.303 1.685-.25 2.365"/>
        <path fill="#07273C" d="M70.493 90.296s-2.213-5.772-.978-9.47c0 0 1.235-1.359 2.762.542 0 0-1.628 2.608 1.316 8.594 0 0-.845 1.803-3.1.334M77.042 80.02s-3.393-5.126-3.164-9.018c0 0 .75-1.828 2.992-.073 0 0-1.325 2.95 3.078 7.958 0 0-.347 1.96-2.906 1.133"/>
        <path fill="#0C3853" d="M84.46 74.312s2.718-1.801 1.25-4.577c0 0-5.159 1.117-9.832-1.83 0 0-4.018 1.125-1.8 3.89 0 0 5.884 3.335 10.381 2.517"/>
        <path fill="#FFF" d="M81.691 89.821c.905 1.497.428 3.445-1.066 4.352-1.494.906-3.438.427-4.343-1.07-.904-1.496-.427-3.444 1.067-4.35 1.494-.906 3.438-.428 4.342 1.068"/>
        <path fill="#0C3853" d="M77.255 92.941s2.05-1.515 1.035-3.188c0 0-9.656 1.096-13.236-1.315 0 0-3.097-.306-2.596 2.943 0 0 9.002 3.54 14.797 1.56"/>
        <path fill="#FFF" d="M85.327 80.21c.904 1.495.427 3.442-1.066 4.35-1.494.905-3.438.427-4.342-1.07-.905-1.497-.427-3.444 1.066-4.35 1.494-.906 3.437-.428 4.342 1.07"/>
        <path fill="#0C3853" d="M81.252 83.421s2.549-1.748 1.109-4.37c0 0-5.84.601-10.325-2.145 0 0-3.68.847-2.714 4.117 0 0 7.675 3.234 11.93 2.398"/>
        <path fill="#FD0" d="M95.887 70.826c.012 0 8.975.063 20.52-6.433 0 0-17.959 13.894-29.04 50.777-36.874 22.725-45.24 11.273-46.119 9.527.828 1.648 6.302 2.23 7.685 2.389 8.182.941 15.865-2.543 22.286-7.364 7.867-5.908 14.53-12.581 18.425-21.752 2.376-5.599 4.333-11.556 5.486-17.53.137-.711 1.393-9.609.757-9.614M141.09 35.684l1.84 2.166s-17.03 23.946-49.3 26.209l.112-2.95s31.133-2.754 47.347-25.425"/>
        <path fill="#006F7A" d="M34.1 128.74s12.29 15.528 57.723-12.731c0 0 19.587-13.08 27.378-19.823 0 0 30.973-26.69 40.823-30.421l-.672-2.049s-18.37 11.326-41.475 31.985c0 0-57.269 48.472-83.777 33.04"/>
        <path fill="#FD0" d="M150.883 48.338l.227-.092.128-.052c.008.006.034-.04.065.018.003.013.017.001.03 0 .019-.005-.04.02-.059.03-.108.051-.233.11-.375.179-.564.272-1.372.711-2.389 1.282-1.017.572-2.225 1.313-3.579 2.206-.678.445-1.39.933-2.128 1.463-.748.516-1.562 1.017-2.381 1.585-1.631 1.144-3.38 2.415-5.158 3.854-.902.702-1.784 1.48-2.71 2.243-.892.803-1.83 1.596-2.735 2.454-.91.856-1.842 1.714-2.742 2.633l-1.372 1.37-1.345 1.421c-1.805 1.902-3.552 3.915-5.252 5.967-1.692 2.058-3.319 4.17-4.86 6.295-1.53 2.13-3.002 4.254-4.338 6.368-.34.525-.675 1.045-1.01 1.56-.316.526-.631 1.047-.942 1.562-.613 1.035-1.245 2.03-1.803 3.031-1.12 2-2.198 3.882-3.096 5.67-.9 1.788-1.792 3.392-2.566 4.826l-1.089 2.007-.875 1.73-1.678 3.282 1.308-3.448.709-1.814.892-2.11 1.018-2.405c.37-.841.872-1.669 1.32-2.57.906-1.802 1.99-3.696 3.118-5.71.562-1.009 1.198-2.01 1.816-3.055l.95-1.571L109 86.973c1.346-2.129 2.83-4.27 4.372-6.417 1.554-2.142 3.195-4.273 4.901-6.349 1.714-2.07 3.477-4.1 5.3-6.02l1.358-1.436 1.384-1.383c.908-.926 1.851-1.794 2.77-2.658.914-.867 1.862-1.668 2.764-2.479.936-.772 1.827-1.558 2.739-2.268 1.798-1.455 3.567-2.741 5.22-3.901.845-.55 1.61-1.147 2.414-1.601.798-.461 1.563-.883 2.29-1.264 1.451-.766 2.736-1.391 3.813-1.865 1.073-.481 1.938-.807 2.531-1.017l.393-.133c.017-.005.077-.026.057-.017-.015.009-.025.006-.048.029.007.065.009.029-.008.043l-.129.036-.237.065"/>
        <path fill="#00B0C2" d="M25.296 132.411c32.842 20.78 86.42 12.518 86.42 12.518 28.457-7.761 57.93-6.038 57.93-6.038 2.98-15.522 0-31.79 0-31.79-1.356-14.522-6.445-11.017-6.445-11.017-18.908 12.518-49.859-.226-49.859-.226-1.293-16.64-13.475-2.847-13.475-2.847-21.818 22.16-62.152 23.802-62.152 23.802-8.943-.25-11.383 5.76-11.383 5.76s-1.8 7.083-1.036 9.838"/>
        <path fill="#FFF" d="M70.073 116.399c6.678-.854 12.662-4.17 18.255-7.743 2.547-1.628 5.062-3.304 7.61-4.928 1.987-1.267 3.968-2.606 5.668-4.25 1.187-1.15 3.683-3.617 2.575-5.526-1.198-2.063-4.69-.528-5.97.663-10.22 9.525-23.893 14.987-35.657 18.107.174.642.445 1.255.85 1.807 1.55 2.12 4.302 2.174 6.669 1.87"/>
        <path fill="#D9D9D9" d="M52.233 118.369c.838 1.385 1.66 2.78 2.732 4.002 2.357 2.69 5.256 4.497 8.893 4.685 7.62.393 15.066-2.927 21.478-6.762 3.538-2.116 7.47-4.15 10.575-6.888 2.79-2.46 4.886-5.577 7.624-8.088 2.743-2.514 5.853-4.71 8.042-7.768.542-.757 1.132-1.54 1.706-2.347-1.176-11.776-8.207-7.04-11.593-3.998.35-.09.705-.16 1.07-.2 2.483-.275 4.4 1.748 4.103 4.269-.31 2.63-2.084 4.739-4.009 6.44-1.934 1.708-4.062 3.169-6.248 4.538-3.132 1.962-6.165 4.084-9.331 5.995-3.156 1.905-6.43 3.674-9.911 4.91-3.264 1.16-7.018 2.178-10.51 1.813-2.474-.26-4.914-1.596-6.033-3.907-.275-.568-.484-1.148-.637-1.737-3.513.859-6.81 1.51-9.742 2.002.532 1.046 1.181 2.033 1.79 3.041"/>
        <path fill="#031C2D" d="M64.774 114.036s11.013-.286 17.973 3.968c0 0 1.973-.401.9-2.479 0 0-9.36-5.361-18.717-3.306 0 0-3.59-.202-.156 1.817M75.324 110.103s12.597-3.035 18.372 1.088c0 0 1.887-.708.5-2.59 0 0-7.24-4.585-19.003-.32 0 0-3.577.366.131 1.822M87.015 104.537s6.808-4.034 12.59-.525c0 0 1.887-.707.501-2.59 0 0-4.98-3.268-13.223 1.295 0 0-3.577.366.132 1.82"/>
        <path fill="#D9D9D9" d="M169.498 106.098c-5.625 3.487-12.103 4.85-18.68 5.482-6.56.63-13.42.15-19.877-1.14-4.02-.801-7.943-1.903-11.668-3.634-1.764-.82-3.502-1.721-5.118-2.81-.46-.312-4.375-3.074-4.063-3.644-.547 1-1.129 1.98-1.754 2.925-4.62 6.991-10.807 13.264-17.765 17.917-5.43 3.63-11.17 6.831-17.383 8.91-6.138 2.056-13.021 3.252-19.393 1.547-5.512-1.476-12.13-5.48-13.056-11.657-.174-1.159-.174-2.288-.03-3.38-1.903.146-2.996.2-2.996.2-8.943-.25-11.383 5.758-11.383 5.758s-1.8 7.085-1.035 9.838c17.046 10.786 39.678 13.748 57.506 14.102 1.058-1.114 2.157-2.19 3.28-3.237 3.936-3.663 8.234-6.97 12.668-10.002 6.523-4.458 13.396-8.313 20.758-11.196 7.188-2.814 14.613-4.961 22.07-6.93 4.523-1.195 9.125-2.238 13.77-2.813 4.917-.608 9.885-.75 14.78-1.542.01-1.538-.373-3.206-.631-4.694"/>
        <path fill="#D9D9D9" d="M112.277 97.369c-.532-.252.011-1.243.194-2.13 2.142 1.302 4.373 1.912 6.75 2.638 6.98 2.135 13.487 3.362 20.524 3.67 8.075.351 16.596-.92 23.457-5.463 0 0 3.614-2.488 5.56 5.42 0 0-24.474 10.939-56.485-4.135M166.053 121.799c-4.238.215-8.446.556-12.645 1.199-8.257 1.262-16.484 2.602-24.407 5.335-7.687 2.65-14.972 6.202-21.849 10.54-2.806 1.769-5.605 3.486-8.453 5.18-1.22.724-2.434 1.474-3.577 2.316 9.99-.422 16.594-1.44 16.594-1.44 28.457-7.761 57.93-6.037 57.93-6.037 1.176-6.126 1.423-12.368 1.292-17.68-1.623.26-3.247.503-4.885.587"/>
        <path fill="#FFF" d="M169.645 138.123s-16.567-1.7-54.406 5.536c0 0-76.755 10.772-85.865-17.026 0 0 .482-1.902-3.042-4.83.048.04-.722 3.227-.75 3.42-.384 2.676-.617 5.45-.4 8.149.232 2.872 2.943 6.91 4.708 9.09.234.29.476.57.725.842l1.133-1.05c.128-.118.322-.214.481-.282.318-.134.733-.164.945.163.208.319.118.865-.052 1.186-.002.001-.502.931-.853 1.585.323.28.658.547.997.807l1.157-1.347c.115-.133.296-.25.446-.336.3-.17.71-.248.957.054.243.293.216.846.084 1.184l-.71 1.777c.421.262.849.513 1.285.752l1.04-1.526c.099-.144.266-.281.406-.382.28-.203.677-.324.957-.054.273.265.308.818.214 1.168l-.522 1.896c.507.256 1.017.51 1.532.76l.846-1.447c.088-.15.245-.3.379-.41.265-.22.653-.37.95-.119.291.246.365.794.294 1.15l-.366 1.809c1.377.625 2.764 1.221 4.138 1.778 10.374 4.204 22.08 5.507 33.17 5.886 9.54.325 23.88-.455 33.333-1.732 0 0 22.154-4.22 32.801.473l.15-1.543c.021-.207.118-.449.208-.636.176-.372.524-.732.974-.608.44.12.793.681.895 1.103l.357 1.508c.546-.042 1.09-.087 1.635-.135l.178-1.828c.02-.208.118-.449.206-.636.177-.373.525-.73.974-.608.44.12.794.68.897 1.104l.404 1.71c.53-.057 1.057-.116 1.581-.179l.181-1.85c.02-.208.118-.449.207-.637.176-.372.524-.73.974-.608.44.12.793.681.895 1.104l.39 1.64c.58-.084 1.157-.173 1.728-.266l-.094-1.45c-.013-.208.044-.462.101-.661.115-.397.4-.807.863-.76.454.05.893.544 1.062.945l.615 1.475c.508-.099 1.007-.203 1.506-.31l-.104-1.592c-.013-.208.044-.462.1-.661.116-.397.401-.807.864-.758.454.048.893.543 1.062.944l.614 1.472c1.784-.456 3.477-.976 5.044-1.567 0 0 4-6.751-.479-14.636"/>
        <path fill="#0C3853" d="M169.645 138.123c4.479 7.885.479 14.636.479 14.636-1.567.591-3.26 1.11-5.044 1.567l-.614-1.472c-.169-.401-.608-.896-1.062-.944-.463-.05-.748.361-.863.758-.057.2-.114.453-.101.66l.104 1.593c-.499.107-.998.211-1.506.31l-.615-1.475c-.169-.4-.608-.896-1.062-.944-.463-.048-.748.362-.863.759-.057.199-.114.453-.101.66l.094 1.45c-.571.094-1.148.183-1.729.267l-.389-1.64c-.102-.423-.455-.984-.895-1.104-.45-.123-.798.236-.974.608-.09.188-.186.429-.207.637 0 0-.099 1.004-.18 1.85-.525.063-1.053.122-1.582.179l-.404-1.71c-.103-.424-.457-.984-.897-1.104-.45-.123-.797.235-.974.608-.088.187-.185.428-.206.636l-.178 1.828c-.545.048-1.089.093-1.635.135l-.357-1.508c-.102-.422-.455-.983-.895-1.103-.45-.124-.798.236-.974.608-.09.187-.187.429-.207.636l-.15 1.543c-10.648-4.694-32.802-.473-32.802-.473-9.453 1.277-23.792 2.057-33.333 1.732-11.09-.38-22.796-1.682-33.17-5.886-1.374-.557-2.761-1.153-4.138-1.778l.366-1.809c.07-.356-.003-.904-.294-1.15-.297-.25-.685-.101-.95.12-.134.11-.29.259-.379.41l-.846 1.446c-.515-.25-1.025-.504-1.532-.76.196-.71.52-1.893.522-1.896.094-.35.06-.903-.214-1.168-.28-.27-.677-.149-.957.054-.14.1-.307.238-.406.382l-1.04 1.526c-.436-.239-.864-.49-1.285-.752l.71-1.777c.132-.338.16-.891-.084-1.184-.248-.302-.656-.224-.957-.054-.15.085-.331.203-.446.336l-1.157 1.347c-.339-.26-.674-.528-.997-.807.351-.654.851-1.584.853-1.585.17-.32.26-.867.052-1.186-.212-.327-.627-.297-.945-.163-.159.068-.353.164-.48.283l-1.134 1.05c-.249-.273-.491-.554-.725-.843-1.765-2.18-4.476-6.218-4.708-9.09-.217-2.7.016-5.473.4-8.15.028-.192.798-3.38.75-3.42 3.524 2.93 3.042 4.831 3.042 4.831s-7.92 10.65 23.247 22.734c0 0 23.94 8.78 61.115 3.71 0 0 58.565-2.755 55.91-14.954"/>
        <path fill="#FFF" d="M87.043 145.681s30.623-29.986 83.408-32.411c0 0 .417 2.039.385 5.201 0 0-39.891-5.437-80.483 27.134l-3.31.076zM40.71 116.614c-1.25 5.897 3.223 9.501 3.223 9.501 9.74 11.961 31.995 4.332 31.995 4.332s26.728-8.65 41.008-33.29l-4.458-2.005C63.288 150 55.034 114.48 55.034 114.48"/>
        <path fill="#FFF" d="M106.192 105.373c0 1.75-1.416 3.168-3.162 3.168s-3.163-1.419-3.163-3.168c0-1.75 1.417-3.168 3.163-3.168 1.746 0 3.162 1.418 3.162 3.168"/>
        <path fill="#07273C" d="M70.813 118.52s-.395-6.484 2.236-9.356c0 0 1.592-.593 2.213 1.766 0 0-2.54 2.189-1.536 8.265 0 0-1.45 1.587-2.913-.674"/>
        <path fill="#FFF" d="M80.897 122.948c0 1.75-1.416 3.169-3.162 3.169s-3.161-1.42-3.161-3.17c0-1.748 1.415-3.167 3.16-3.167 1.747 0 3.163 1.419 3.163 3.168"/>
        <path fill="#0C3853" d="M61.573 113.966s3.684 7.758 15.443 9.207c0 0 3.045-.225 1.696-1.97 0 0-9.353-2.776-12.833-8.061 0 0-.77-1.408-2.87-1.068 0 0-1.986.765-1.436 1.892"/>
        <path fill="#07273C" d="M80.38 112.638s1.09-6.087 4.06-8.607c0 0 1.758-.522 2.082 1.896 0 0-2.741 1.386-3.318 8.035 0 0-1.655 1.103-2.823-1.324M91.295 107.247s-.252-6.146 1.956-9.356c0 0 1.586-1.174 2.597 1.49 0 0-2.66 1.836-1.482 8.405 0 0-1.31 1.498-3.07-.539"/>
        <path fill="#0C3853" d="M100.59 106.215s3.258-.13 3.436-3.266c0 0-4.99-1.722-7.464-6.669 0 0-4.018-1.123-3.551 2.393 0 0 3.31 5.906 7.58 7.542"/>
        <path fill="#FFF" d="M90.204 118.044c0 1.75-1.415 3.169-3.161 3.169-1.747 0-3.163-1.42-3.163-3.169s1.416-3.167 3.163-3.167c1.746 0 3.161 1.418 3.161 3.167"/>
        <path fill="#0C3853" d="M84.797 118.41s2.537-.232 2.534-2.19c0 0-8.826-4.074-10.643-7.994 0 0-2.49-1.869-3.743 1.17 0 0 5.87 7.7 11.852 9.014"/>
        <path fill="#FFF" d="M98.284 111.709c0 1.75-1.415 3.167-3.161 3.167-1.747 0-3.162-1.418-3.162-3.167 0-1.75 1.415-3.168 3.162-3.168 1.746 0 3.161 1.418 3.161 3.168"/>
        <path fill="#0C3853" d="M93.137 112.341s3.085-.172 3.209-3.163c0 0-5.306-2.516-7.723-7.192 0 0-3.586-1.187-4.45 2.112 0 0 4.893 6.75 8.964 8.243"/>
        <path fill="#FD0" d="M112.167 109.164c.01.006 7.645 4.713 20.879 5.147 0 0-22.544 2.564-51.091 28.361-43.291.301-44.527-13.837-44.376-15.786-.143 1.839 4.238 5.177 5.34 6.031 6.51 5.053 14.884 6.06 22.87 5.268 9.783-.97 18.933-3.22 27.005-9.043 4.927-3.555 9.681-7.636 13.755-12.147.485-.537 6.16-7.497 5.618-7.831M169 102.566l.456 2.807s-26.948 11.644-55.72-3.169l1.62-2.465s28.055 13.802 53.645 2.827"/>
        <path fill="#006F7A" d="M29.375 126.633s2.485 19.661 55.957 19.07c0 0 23.517-1.023 33.667-2.747 0 0 40.293-6.755 50.647-4.833l.484-2.1s-21.569.153-52.013 5.831c0 0-74.046 11.74-88.742-15.22"/>
        <path fill="#FD0" d="M170.836 118.472l.243.039.136.022c.003.009.048-.016.046.05-.005.011.014.01.025.015.019.006-.045-.004-.065-.006l-.414-.041c-.623-.06-1.541-.103-2.706-.142-1.165-.04-2.582-.033-4.202.028-.81.029-1.671.077-2.577.147-.906.053-1.862.059-2.856.12-1.987.132-4.14.311-6.404.62-1.135.132-2.291.34-3.478.512-1.179.224-2.39.416-3.609.68-1.22.26-2.462.51-3.706.828l-1.88.46-1.887.518c-2.527.69-5.063 1.504-7.577 2.378-2.512.882-4.995 1.845-7.411 2.862-2.411 1.028-4.768 2.082-7.004 3.195l-1.67.812-1.614.846c-1.06.567-2.114 1.09-3.109 1.657-1.992 1.13-3.886 2.18-5.58 3.244-1.694 1.062-3.286 1.97-4.69 2.795l-1.969 1.152-1.643 1.025-3.132 1.937 2.903-2.271 1.543-1.183 1.855-1.342 2.113-1.529c.75-.527 1.61-.974 2.46-1.514 1.704-1.07 3.611-2.128 5.618-3.266 1.001-.571 2.063-1.098 3.131-1.67l1.626-.85 1.683-.82c2.252-1.121 4.628-2.183 7.058-3.22 2.436-1.025 4.94-1.995 7.474-2.886 2.537-.881 5.095-1.703 7.645-2.399l1.905-.523 1.899-.464c1.255-.322 2.511-.575 3.743-.837 1.23-.266 2.455-.46 3.646-.686 1.2-.175 2.369-.384 3.516-.518 2.29-.312 4.469-.493 6.481-.628 1.008-.032 1.972-.145 2.893-.116.921.02 1.794.055 2.612.106 1.638.1 3.06.23 4.226.385 1.167.145 2.075.315 2.691.444l.405.09c.017.005.079.018.057.015-.017 0-.024-.008-.055 0-.028.06-.008.028-.03.033l-.128-.037-.237-.067"/>
    </g>
</svg>
