<svg xmlns="http://www.w3.org/2000/svg" xmlns:xlink="http://www.w3.org/1999/xlink" width="206" height="206" viewBox="0 0 206 206">
    <defs>
        <path id="prefix__a" d="M0.504 0.198L205.705 0.198 205.705 205.399 0.504 205.399z"/>
        <path id="prefix__c" d="M103.104.198C46.44.198.504 46.134.504 102.8c0 56.664 45.936 102.6 102.6 102.6 56.665 0 102.601-45.936 102.601-102.6"/>
        <path id="prefix__e" d="M103.104.198C46.44.198.504 46.134.504 102.8c0 56.664 45.936 102.6 102.6 102.6 56.665 0 102.601-45.936 102.601-102.6"/>
    </defs>
    <g fill="none" fill-rule="evenodd">
        <g transform="translate(0 .402)">
            <mask id="prefix__b" fill="#fff">
                <use xlink:href="#prefix__a"/>
            </mask>
            <path fill="#0FB4DE" d="M205.705 102.799c0 56.665-45.936 102.6-102.6 102.6C46.439 205.4.504 159.465.504 102.8c0-56.665 45.935-102.6 102.6-102.6 56.665 0 102.601 45.935 102.601 102.6" mask="url(#prefix__b)"/>
            <path fill="#C10E1A" d="M22.945 131.91h18.948s19.626-71.133 61.89-71.133c44.642 0 66.96 67.747 66.96 67.747l17.031-2.499s-22.777-81.263-84.332-81.263c-63.24 0-80.497 87.147-80.497 87.147"/>
            <path fill="#DB901B" d="M36.82 131.91h16.302s16.886-60.092 53.25-60.092c38.409 0 57.61 57.231 57.61 57.231l14.654-2.11S159.039 58.29 106.078 58.29c-54.411 0-69.258 73.62-69.258 73.62"/>
            <path fill="#FFEC00" d="M45.334 131.91h14.444s14.962-50.154 47.18-50.154c34.03 0 51.043 47.766 51.043 47.766l12.984-1.761s-17.363-57.296-64.288-57.296c-48.209 0-61.363 61.444-61.363 61.444"/>
            <path fill="#6BB646" d="M52.039 131.91H64.53s12.939-42.424 40.802-42.424c29.431 0 44.144 40.405 44.144 40.405l11.229-1.491s-15.016-48.465-55.598-48.465c-41.692 0-53.068 51.974-53.068 51.974"/>
            <path fill="#FFF" d="M146.168 119.662s-2.09-11.27 8.362-13.36 13.14 5.114 13.14 5.114 6.272-6.606 12.245-3.62c5.972 2.987 6.57 7.466 5.376 13.44 0 0 8.063-6.571 13.14 1.492 5.077 8.064-5.973 12.543-5.973 12.543s2.986 9.258-6.57 11.05c-9.557 1.792-11.349-7.167-11.349-7.167s-2.09 13.578-13.14 11.716c-11.05-1.861-12.244-12.015-12.244-12.015s-13.413 7.466-16.413-8.362 13.426-10.83 13.426-10.83M24.358 132.58s-1.455-7.847 5.823-9.302c7.278-1.456 9.15 3.56 9.15 3.56s4.366-4.6 8.525-2.52c4.159 2.079 4.575 5.198 3.742 9.357 0 0 5.615-4.575 9.15 1.04 3.535 5.614-4.158 8.733-4.158 8.733s2.078 6.446-4.575 7.694c-6.654 1.247-7.902-4.99-7.902-4.99s-1.456 9.453-9.15 8.158c-7.693-1.297-8.525-8.366-8.525-8.366s-9.34 5.198-11.428-5.823c-2.088-11.02 9.348-7.542 9.348-7.542"/>
            <path fill="#FFF" d="M47.566 123.491s-1.995-10.753 7.979-12.748c9.974-1.995 12.54 4.878 12.54 4.878s5.984-6.303 11.683-3.453c5.7 2.85 6.27 7.125 5.13 12.824 0 0 7.694-6.27 12.54 1.425 4.844 7.695-5.7 11.97-5.7 11.97s2.849 8.834-6.27 10.543c-9.12 1.71-10.83-6.84-10.83-6.84s-1.994 12.957-12.538 11.181c-10.545-1.776-11.685-11.465-11.685-11.465s-12.799 7.124-15.661-7.98c-2.862-15.103 12.812-10.335 12.812-10.335M55.556 41.651c0 1.943-1.575 3.517-3.517 3.517-1.943 0-3.518-1.574-3.518-3.517 0-1.942 1.575-3.517 3.518-3.517 1.942 0 3.517 1.575 3.517 3.517M180.86 61.808c0 1.942-1.575 3.517-3.518 3.517-1.942 0-3.517-1.575-3.517-3.517 0-1.943 1.575-3.518 3.517-3.518 1.943 0 3.518 1.575 3.518 3.518M83.141 172.646c0 .971-.787 1.759-1.759 1.759-.97 0-1.758-.788-1.758-1.759 0-.972.787-1.759 1.758-1.759.972 0 1.759.787 1.759 1.76"/>
        </g>
        <g transform="translate(0 .402)">
            <mask id="prefix__d" fill="#fff">
                <use xlink:href="#prefix__c"/>
            </mask>
            <path fill="#FFF" d="M143.929 14.834s-1.634-8.805 6.534-10.439c8.167-1.634 10.268 3.995 10.268 3.995s4.9-5.162 9.567-2.828c4.668 2.334 5.135 5.834 4.2 10.501 0 0 6.302-5.134 10.27 1.167 3.967 6.3-4.668 9.801-4.668 9.801s2.333 7.234-5.134 8.635c-7.467 1.4-8.868-5.601-8.868-5.601s-1.634 10.61-10.268 9.155c-8.634-1.454-9.567-9.388-9.567-9.388s-10.481 5.834-12.825-6.535c-2.344-12.368 10.49-8.463 10.49-8.463" mask="url(#prefix__d)"/>
            <g>
                <mask id="prefix__f" fill="#fff">
                    <use xlink:href="#prefix__e"/>
                </mask>
                <path fill="#FFF" d="M-15.048 63.572s-1.634-8.805 6.534-10.44C-.346 51.5 1.754 57.13 1.754 57.13s4.9-5.162 9.568-2.829c4.667 2.334 5.134 5.834 4.2 10.502 0 0 6.3-5.135 10.268 1.166 3.967 6.3-4.667 9.801-4.667 9.801s2.333 7.234-5.134 8.635c-7.467 1.4-8.868-5.601-8.868-5.601s-1.633 10.61-10.268 9.155c-8.634-1.454-9.567-9.388-9.567-9.388s-10.481 5.834-12.825-6.534c-2.344-12.369 10.49-8.464 10.49-8.464" mask="url(#prefix__f)"/>
            </g>
        </g>
    </g>
</svg>
