<svg xmlns="http://www.w3.org/2000/svg" xmlns:xlink="http://www.w3.org/1999/xlink" width="205" height="206" viewBox="0 0 205 206">
    <defs>
        <path id="prefix__a" d="M0 0.198L204.802 0.198 204.802 205.399 0 205.399z"/>
        <path id="prefix__c" d="M.45 26.688c0 14.595 1.206 26.428 7.633 26.428 6.428 0 7.634-11.833 7.634-26.428C15.717 12.09 12.3.258 8.083.258S.45 12.091.45 26.688"/>
        <path id="prefix__e" d="M.45 26.688c0 14.595 1.206 26.428 7.633 26.428 6.428 0 7.634-11.833 7.634-26.428C15.717 12.09 12.3.258 8.083.258S.45 12.091.45 26.688"/>
    </defs>
    <g fill="none" fill-rule="evenodd">
        <g transform="translate(0 .402)">
            <mask id="prefix__b" fill="#fff">
                <use xlink:href="#prefix__a"/>
            </mask>
            <path fill="#23B839" d="M204.802 102.799c0 56.665-45.846 102.6-102.401 102.6S0 159.465 0 102.8C0 46.134 45.846.199 102.4.199s102.401 45.935 102.401 102.6" mask="url(#prefix__b)"/>
            <path fill="#EDF8FC" d="M94.864 37.08s-3.702-4.86-6.188-1.258c-2.486 3.602 5.113 7.435 8.629 6.272 3.515-1.164 5.597-9.114 2.071-10.515-3.525-1.4-4.512 5.5-4.512 5.5M185.036 119.564s-3.702-4.86-6.187-1.257c-2.487 3.603 5.113 7.435 8.628 6.272 3.515-1.164 5.598-9.114 2.072-10.515-3.526-1.4-4.513 5.5-4.513 5.5M20.583 123.677s1.91-5.807-2.462-5.825c-4.371-.019-3.232 8.428-.287 10.676 2.944 2.248 10.667-.524 9.828-4.23-.84-3.706-7.079-.621-7.079-.621M115.615 22.686s-2.985-2.526-4.043.072c-1.056 2.597 4.224 3.94 6.262 2.725 2.037-1.215 2.241-6.475-.157-6.862-2.398-.386-2.062 4.065-2.062 4.065"/>
            <path fill="#FF9FA6" d="M99.652 112.02s-28.514 14.532-38.867 19.472c-10.202 4.867-13.604 17.037-9.717 29.207 3.887 12.17 23.32 23.853 46.641-34.076l1.943-14.603z"/>
            <path fill="#272D2D" d="M74.816 162.637c-13.588-3.41-17.515-16.68-15.09-29.12.12-.618.318-1.199.563-1.756-9.804 5.027-13.042 16.974-9.22 28.938 2.644 8.282 12.493 16.331 25.866 2.37-.71-.113-1.417-.256-2.12-.432"/>
            <path fill="#C262FF" d="M96.11 103.253s-23.006-59.227-49.9-45.754c-22.07 11.057-9.231 29.208-2.915 60.85 6.334 31.734 60.73-5.842 60.73-5.842l-7.916-9.254z"/>
            <path fill="#272D2D" d="M63.56 123.005c-6.763-3.752-8.665-12.07-4.16-17.865-10.435-3.421-15.317-14.47-12.55-25.778 1.38-5.638 4.774-10.948 9.678-14.117 4.604-2.974 9.569-3.248 14.45-1.98C63.612 56.56 55.125 53.033 46.21 57.5c-22.07 11.056-9.231 29.207-2.915 60.848 3.24 16.23 19.048 14.33 33.724 8.6-4.696-.296-9.396-1.688-13.46-3.943"/>
            <path fill="#FFF" d="M73.39 80.96l-.414-2.382c-.492-1.552-1.326-2.89-2.502-4.012l-1.956-1.417c-1.507-.805-3.114-1.177-4.82-1.116-1.246.008-2.399.313-3.46.913-1.134.413-2.109 1.082-2.923 2.01-.903.889-1.52 1.932-1.854 3.128-.549 1.146-.773 2.366-.673 3.661l.414 2.382c.492 1.552 1.326 2.89 2.502 4.012l1.955 1.417c1.507.804 3.115 1.176 4.822 1.115 1.245-.008 2.397-.312 3.458-.913 1.135-.412 2.11-1.081 2.923-2.009.903-.89 1.521-1.932 1.855-3.129.548-1.146.772-2.365.673-3.66M75.695 93.825c-4.615 0-4.317 7.183.302 7.183 4.615 0 4.317-7.183-.302-7.183M71.205 105.635c-8.204 0-7.674 12.77.537 12.77 8.204 0 7.674-12.77-.537-12.77M77.706 149.747c-.126-1.46-.664-2.965-1.802-3.951-1.198-1.04-2.586-1.565-4.187-1.565-1.408 0-2.991.795-3.943 1.806-.98 1.041-1.686 2.746-1.562 4.195.126 1.46.665 2.965 1.802 3.951 1.2 1.038 2.586 1.564 4.187 1.564 1.41 0 2.992-.795 3.944-1.805.98-1.04 1.686-2.745 1.561-4.195M77.164 133.701c-1.729 0-3.31 1.717-3.16 3.447.158 1.848 1.586 3.168 3.439 3.168 1.729 0 3.31-1.718 3.162-3.447-.16-1.848-1.588-3.168-3.44-3.168"/>
            <path fill="#FF9FA6" d="M104.73 112.02s28.516 14.532 38.868 19.472c10.203 4.867 13.604 17.037 9.717 29.207-3.887 12.17-23.32 23.853-46.64-34.076l-1.944-14.603z"/>
            <path fill="#272D2D" d="M129.567 162.637c13.588-3.41 17.515-16.68 15.09-29.12-.12-.618-.318-1.199-.563-1.756 9.804 5.027 13.042 16.974 9.22 28.938-2.644 8.282-12.493 16.331-25.865 2.37.71-.113 1.416-.256 2.118-.432"/>
            <path fill="#C262FF" d="M108.274 103.253s23.005-59.227 49.9-45.754c22.07 11.057 9.23 29.208 2.914 60.85-6.334 31.734-60.73-5.842-60.73-5.842l7.916-9.254z"/>
            <path fill="#272D2D" d="M140.824 123.005c6.762-3.752 8.664-12.07 4.16-17.865 10.434-3.421 15.317-14.47 12.549-25.778-1.38-5.638-4.774-10.948-9.679-14.117-4.602-2.974-9.567-3.248-14.448-1.98 7.365-6.706 15.852-10.232 24.767-5.765 22.07 11.056 9.231 29.207 2.915 60.848-3.24 16.23-19.048 14.33-33.724 8.6 4.696-.296 9.396-1.688 13.46-3.943"/>
            <path fill="#FFF" d="M130.994 80.96l.413-2.382c.492-1.552 1.326-2.89 2.503-4.012l1.955-1.417c1.508-.805 3.115-1.177 4.821-1.116 1.245.008 2.398.313 3.459.913 1.134.413 2.11 1.082 2.923 2.01.903.889 1.52 1.932 1.855 3.128.548 1.146.772 2.366.672 3.661l-.414 2.382c-.492 1.552-1.325 2.89-2.502 4.012l-1.955 1.417c-1.507.804-3.115 1.176-4.821 1.115-1.245-.008-2.399-.312-3.459-.913-1.135-.412-2.11-1.081-2.923-2.009-.903-.89-1.521-1.932-1.854-3.129-.549-1.146-.774-2.365-.673-3.66M128.688 93.825c4.615 0 4.317 7.183-.302 7.183-4.615 0-4.317-7.183.302-7.183M133.178 105.635c8.204 0 7.674 12.77-.537 12.77-8.204 0-7.674-12.77.537-12.77M126.677 149.747c.126-1.46.664-2.965 1.802-3.951 1.199-1.04 2.586-1.565 4.187-1.565 1.408 0 2.992.795 3.943 1.806.98 1.041 1.687 2.746 1.561 4.195-.126 1.46-.663 2.965-1.802 3.951-1.198 1.038-2.585 1.564-4.186 1.564-1.41 0-2.992-.795-3.943-1.805-.98-1.04-1.687-2.745-1.562-4.195M127.219 133.701c1.729 0 3.31 1.717 3.161 3.447-.159 1.848-1.587 3.168-3.44 3.168-1.729 0-3.31-1.718-3.161-3.447.159-1.848 1.587-3.168 3.44-3.168"/>
            <path fill="#FFD01F" d="M97.361 86.666c.564-5.833-.024-11.811-1.797-17.403-.66-2.087-2.196-4.726-4.828-4.021-2.18.583-2.49 3.698-.363 4.55 1.145.457 1.642-1.398.51-1.85-.257-.103.038-.722.292-.829.708-.294 1.473.4 1.817.937.511.795.75 1.763 1.01 2.661.298 1.031.556 2.073.776 3.123.883 4.215 1.083 8.548.669 12.832-.119 1.228 1.797 1.22 1.914 0M107.142 87c-.452-3.778-.558-7.59-.291-11.386.132-1.884.354-3.76.673-5.62.142-.832.211-1.82.574-2.59.144-.306.328-.487.63-.618.048-.02.151.01.138.006.118.038-.084.071.015-.024-.897.85.459 2.205 1.354 1.357.68-.645.712-1.677.193-2.435-.559-.818-1.604-1.006-2.49-.656-1.087.43-1.635 1.467-1.899 2.551-.298 1.229-.475 2.502-.649 3.753-.72 5.197-.786 10.451-.163 15.662.145 1.21 2.06 1.225 1.915 0M109.825 123.982c0 14.596-1.206 26.428-7.633 26.428-6.428 0-7.634-11.832-7.634-26.428 0-14.597 3.417-26.43 7.634-26.43 4.215 0 7.633 11.833 7.633 26.43"/>
        </g>
        <g transform="translate(94.108 97.697)">
            <mask id="prefix__d" fill="#fff">
                <use xlink:href="#prefix__c"/>
            </mask>
            <path fill="#FFBC00" d="M25.084 5.15c-5.062-1.03-9.267 2.237-14.225 2.98-3.911.585-8.828-1.215-12.238.962-.362.232-.704.734-.626 1.19.884 5.117 7.464 7.342 12.09 7.59 6.116.327 14.153-1.427 17.764-6.586 1.58-2.258-.313-5.637-2.765-6.136" mask="url(#prefix__d)"/>
            <g>
                <mask id="prefix__f" fill="#fff">
                    <use xlink:href="#prefix__e"/>
                </mask>
                <path fill="#FFBC00" d="M26.67 26.16c-.75-1.714-1.48-2.987-3.178-3.87-1.936-1.007-4.843-1.223-6.672.21-7.481 5.867-14.547 4.572-23.39 4.58-.822.001-1.472.786-1.446 1.577.212 6.634 7.023 9.676 12.858 10.464 7.491 1.014 14.64-1.58 20.321-6.423 1.611-1.374 2.356-4.596 1.506-6.538" mask="url(#prefix__f)"/>
            </g>
        </g>
        <g>
            <path fill="#FFD01F" d="M28.206 13.365c0 7.155-5.789 12.955-12.93 12.955s-12.93-5.8-12.93-12.955C2.346 6.209 8.135.41 15.276.41s12.93 5.8 12.93 12.955" transform="translate(86.915 81.481)"/>
            <path fill="#FFF" d="M12.297 10.644c0 3.363-2.72 6.09-6.077 6.09-3.356 0-6.077-2.727-6.077-6.09s2.72-6.09 6.077-6.09c3.357 0 6.077 2.727 6.077 6.09" transform="translate(86.915 81.481)"/>
            <path fill="#1D262D" d="M6.237 7.832c-3.796 0-3.55 5.908.25 5.908 3.795 0 3.55-5.908-.25-5.908" transform="translate(86.915 81.481)"/>
            <path fill="#FFF" d="M4.916 12.008c-.977 0-.914 1.52.064 1.52.977 0 .914-1.52-.064-1.52M6.318 7.494c-1.318 0-1.233 2.052.087 2.052 1.318 0 1.233-2.052-.087-2.052M18.255 10.644c0 3.363 2.722 6.09 6.078 6.09 3.356 0 6.077-2.727 6.077-6.09s-2.721-6.09-6.077-6.09-6.078 2.727-6.078 6.09" transform="translate(86.915 81.481)"/>
            <path fill="#1D262D" d="M24.316 7.832c3.795 0 3.55 5.908-.25 5.908-3.795 0-3.55-5.908.25-5.908" transform="translate(86.915 81.481)"/>
            <path fill="#FFF" d="M25.636 12.008c.977 0 .914 1.52-.063 1.52-.978 0-.915-1.52.063-1.52M24.234 7.494c1.319 0 1.234 2.052-.086 2.052-1.318 0-1.233-2.052.086-2.052" transform="translate(86.915 81.481)"/>
            <path fill="#272D2D" d="M11.908 17.791c.414 1.41 1.672 2.495 3.137 2.657 1.468.162 2.95-.67 3.633-1.97.143-.273-.27-.516-.414-.242-.593 1.132-1.848 1.853-3.129 1.741-1.284-.112-2.405-1.087-2.766-2.314-.087-.295-.549-.17-.461.128" transform="translate(86.915 81.481)"/>
        </g>
    </g>
</svg>
