<svg xmlns="http://www.w3.org/2000/svg" xmlns:xlink="http://www.w3.org/1999/xlink" width="205" height="206" viewBox="0 0 205 206">
    <defs>
        <path id="prefix__a" d="M0 0.198L204.802 0.198 204.802 205.399 0 205.399z"/>
    </defs>
    <g fill="none" fill-rule="evenodd">
        <g transform="translate(0 .402)">
            <mask id="prefix__b" fill="#fff">
                <use xlink:href="#prefix__a"/>
            </mask>
            <path fill="#FFC800" d="M204.802 102.799c0 56.665-45.847 102.6-102.4 102.6C45.845 205.4 0 159.465 0 102.8 0 46.134 45.846.199 102.401.199c56.554 0 102.401 45.935 102.401 102.6" mask="url(#prefix__b)"/>
        </g>
        <path fill="#525252" d="M174.15 174.325c0 4.818-15.538 8.724-34.706 8.724-19.167 0-34.705-3.906-34.705-8.724s15.538-8.724 34.705-8.724c19.168 0 34.706 3.906 34.706 8.724M79.381 175.333c0 2.94-9.478 5.321-21.17 5.321-11.691 0-21.17-2.382-21.17-5.321 0-2.94 9.479-5.322 21.17-5.322 11.692 0 21.17 2.383 21.17 5.322"/>
        <path fill="#000" d="M124.926 147.079L122.697 176.711 124.926 176.711 127.174 146.819zM152.287 145.084L157.897 177.217 160.061 176.682 154.402 144.268z"/>
        <path fill="#000" d="M115.586 176.711s5.616-5.804 9.34 0h-9.34zM157.725 176.711s5.615-5.804 9.34 0h-9.34z"/>
        <path fill="#5BA540" d="M119.788 151.092c-.272-2.047-.396-3.73-.002-5.477.322-1.427.286-2.934.433-4.402.084-.842.212-1.677.313-2.518.18-1.502.938-2.878 2.149-3.78.756-.567 1.382-.973 2.345-1.103 2.827-.381 5.674-.651 8.403-1.635 2.299-.832 4.754-.962 7.179-1.057 1.82-.07 3.647.033 5.47.032.799 0 2.098-.104 2.877-.28 1.952-.44 3.861-.363 5.832.084 1.321.3 2.733.195 4.244.28.95 3.723 1.9 7.492 2.875 11.253.243.937.533 1.86.833 2.78 1.103 3.375.612 4.539-2.83 5.521-2.82.807-5.72 1.25-8.699 1.355-2.269.08-4.248-.527-6.328-1.225-.627-1.81-.958-3.555-.877-5.413.073-1.64-.028-3.289-.1-4.931-.052-1.207-.798-1.78-1.903-2.161-1.577-.541-3.092-.085-4.61.128-.372.053-.822.664-.955 1.105-.403 1.322-.75 2.675-.97 4.039-.494 3.024-1.663 5.84-2.561 8.737-.168.541-.609.889-1.153.928-.937.065-1.924.212-2.816.004-2.022-.474-3.988-1.133-6.09-1.305-.997-.081-1.959-.598-3.059-.959"/>
        <path stroke="#000" stroke-width="2.4" d="M128.906 109.912l-14.814 8.016c-1.042.563-1.166 2.356-.217 3.136l12.597 10.363M154.557 107.874l14.815 6.394c1.041.45 1.166 1.88.217 2.503l-12.598 8.268"/>
        <path fill="#A26D59" d="M168.667 61.504c-.81-1.11-1.737-2.14-3.04-2.84-.316.232-.608.411-.856.637-1.603 1.454-3.153 2.97-4.802 4.37-2.095 1.778-5.095 1.9-7.466.407-.655-.412-1.297-.841-2.007-1.302-.86.466-1.684.928-2.522 1.362-3.455 1.787-7.02 2.392-10.784 1.035-1.864-.672-3.746-1.294-5.774-1.99-.57.445-1.23.994-1.924 1.499-.699.508-1.386 1.057-2.154 1.44-3.343 1.675-6.837 2.957-10.48 3.813-1.735.407-3.43.344-5.064-.47-.852-.423-1.743-.77-2.602-1.182-1.571-.752-3.088-1.572-4.062-3.12-.218-.346-.582-.6-1.009-1.025-.385.749-.768 1.318-.985 1.946-.652 1.884-1.225 3.797-1.857 5.69-1.303 3.9-1.324 7.853-.403 11.811.472 2.024 1.033 4.043 1.769 5.981 1.938 5.108 5.176 9.155 9.924 11.978 4.92 2.926 10.34 4.534 15.837 5.663 8.114 1.669 16.209 1.038 24.1-1.592 3.725-1.242 7.258-2.876 10.246-5.495 4.25-3.726 7.397-8.268 9.429-13.524.87-2.25 1.319-4.663 1.96-7.003.152-6.63-1.54-12.706-5.474-18.09"/>
        <path fill="#281608" d="M153.114 61.1c.986-1.237 1.87-2.223 2.617-3.314 1.192-1.74.634-4.128-1.156-5.24-.38-.236-.752-.504-1.163-.673-1.497-.618-2.896-.412-4.112.66-1.369 1.205-2.023 4.042-1.352 5.762.28.713.622 1.402.924 2.074-3.38 2.803-6.833 3.577-10.7 2.437-1.163-.343-2.33-.678-3.478-1.07-.38-.129-.702-.426-1.188-.734.754-1.372 1.448-2.647 2.153-3.919.898-1.613.748-2.686-.56-3.927-2.138-2.028-5.264-1.402-6.395 1.28-.034.081-.053.167-.091.244-1.024 2.061-1.022 3.995.685 5.731.11.114.133.314.197.473-1.03 1.285-1.983 2.066-3.555 2.812-3.059 1.452-6.208 2.647-9.51 3.445-1.189.287-2.438.177-3.552-.328-.789-.357-1.583-.708-2.392-1.018-2.054-.78-3.407-2.405-4.54-4.125-.958-1.458-1.122-3.194-.77-5 .83-4.245 3.161-7.688 5.79-10.92 2.537-3.123 5.336-6.043 8.805-8.234.977-.615 2.692-1.388 3.78-1.769 1.81-.634 3.616-1.278 5.428-1.907.18-.062.368-.101.558-.114 2.938-.211 5.875-.396 8.813-.587l.262.028c3.741 1.068 7.596 1.812 10.993 3.862 1.052.636 2.02 1.346 2.387 2.67.743.069 1.427.068 2.082.207 2.444.514 4.47 1.802 6.247 3.519.623.6 1.181 1.29 1.88 1.785 2.168 1.537 3.152 3.827 4.107 6.014-.649 1.672-1.18 3.228-1.852 4.718-.605 1.342-1.362 2.534-2.868 3.196-1.079.474-2.012 1.344-2.905 2.153-.845.766-1.807.923-2.865 1.006-1.061.082-1.803-.407-2.704-1.196"/>
        <path fill="#F25740" d="M127.749 106.017c17.504 1.675 14.871.849 26.46-.954.73 1.087.628 2.447.91 3.667.355 1.538.82 3 1.52 4.406 1.717 3.443 2.62 7.167 3.61 10.852.446 1.66.57 3.406.864 5.109.119.687-.14 1.223-.658 1.587-.855.6-1.766 1.104-2.874 1.047-.95-.05-1.905-.044-2.853-.116-2.688-.203-5.31.195-7.945.687-3.659.68-7.347 1.199-11.023 1.788-.596.094-1.248.066-1.78.306-1.796.812-3.701.785-5.599.936-1.286.102-2.557.397-3.832.616-.426.072-.844.2-1.27.272-1.29.22-1.712-.183-1.604-1.561.062-.778.146-1.556.268-2.327.31-1.968.555-3.955.987-5.897 1.395-6.256 2.249-12.634 4.218-18.76.183-.569.405-1.123.6-1.658"/>
        <path fill="#A26D59" d="M104.958 85.563c-2.578.487-4.733-.502-6.877-1.383-.868-.355-1.56-1.065-2.04-1.94-.435-.793-.662-1.57-.443-2.484.345-1.444.745-2.84 1.638-4.07 1.435-1.982 3.389-2.398 5.4-1.05.498.334.936.76 1.331 1.084.33 3.278.65 6.452.99 9.843M172.635 82.981c-.1-.28-.224-.443-.195-.572.57-2.478.558-4.979.158-7.465-.308-1.92.616-3.386 1.674-4.73.836-1.063 2.126-1.364 3.513-1.225 2.478.25 3.533 1.604 2.968 4.002-.257 1.092-.582 2.173-.976 3.222-.236.632-.55 1.313-1.029 1.762-1.693 1.589-3.465 3.095-5.228 4.612-.233.2-.581.264-.885.394"/>
        <path fill="#281608" d="M131.849 59.14c-1.01-.568-1.603-1.19-1.536-1.965.084-.993.329-2.052.81-2.91.6-1.068 2.693-.7 3.223.48.097.213.146.568.034.737-.793 1.202-1.634 2.375-2.531 3.659M151.407 58.782c-1.28-1.207-1.492-2.467-.95-3.88.432-1.123 1.431-1.539 2.483-1.025.38.185.736.44 1.062.713.466.391.516.945.16 1.373-.81.974-1.402 2.174-2.755 2.819"/>
        <path fill="#000" d="M54.037 150.94L52.109 176.554 54.037 176.554 55.98 150.715z"/>
        <path stroke="#000" stroke-width="2.4" d="M52.738 127.154l-12.807 6.929c-.9.487-1.007 2.036-.187 2.711l10.89 8.959M67.064 127.154l12.806 5.528c.9.389 1.008 1.625.188 2.163l-10.89 7.148"/>
        <path fill="#000" d="M62.216 149.215L67.065 176.992 68.937 176.53 64.045 148.509z"/>
        <path fill="#665959" d="M31.525 97.627c-.98-1.596-1.209-3.187-1.133-4.795.08-1.736.338-3.462.508-5.194.065-.677.244-1.295.633-1.874.294-.437.463-.959.692-1.44.735-1.547 1.826-2.836 3.215-3.78 1.399-.951 3.081-1.313 4.748-1.4 1.714-.089 3.456-.241 5.13.507.836.374 1.306.12 1.747-.796.949-1.97 2.43-3.326 4.468-4.069 1.758-.64 3.546-1.166 5.428-1.297 2.332-.164 4.557.344 6.573 1.432 2 1.077 4.087 1.952 6.102 2.984.59.302 1.224.598 1.692 1.049 1.392 1.339 3.032 2.393 4.232 3.963.759.991 1.797 1.754 2.633 2.72 1.672 1.934 2.521 4.22 3.304 6.57.63 1.89.452 3.835.45 5.772-.002.935-.003 1.86-.308 2.776-.484 1.452-1.084 2.018-2.572 2.043-.79.014-1.611-.04-2.37-.246-2.283-.622-4.36-1.712-6.127-3.283-.941-.835-1.736-1.85-2.513-2.848-.308-.399-.4-.97-.574-1.466-.177-.5-.291-1.026-.518-1.497-.088-.183-.427-.361-.631-.34-.218.021-.5.236-.604.442-.392.786-.216 1.58.172 2.306.521.976.693 1.997.677 3.092-.027 1.825-.712 3.4-1.788 4.804-1.171 1.526-2.966 2.067-4.81 1.41-1.758-.626-3.412-1.398-4.677-2.936-1.234-1.501-2.54-2.922-3.301-4.745-.103-.243-.235-.482-.39-.7-1.815-2.528-2.96-5.376-3.957-8.296-.13-.379-.278-.752-.44-1.119-.05-.116-.166-.203-.253-.303-1.264.983-1.543 1.338-1.82 2.597-.485 2.209-1.756 3.85-3.577 5.11-.44.303-.916.552-1.356.855-2.61 1.804-5.548 2.117-8.685 1.992"/>
        <path fill="#665959" d="M97.277 95.783c-2.125 1.284-4.295 1.911-6.555 2.622-.263-.198-.563-.436-.876-.657-1.081-.764-2.295-.67-3.462-.382-1.476.364-2.957.805-3.827 2.276-.639-.49-.715-1.011-.764-1.529-.207-2.188-.395-4.38-.6-6.57-.056-.596-.046-1.227-.249-1.776-.483-1.312-.35-2.635-.217-3.958.315-3.126 2.243-5.041 4.928-6.274.983-.452 2.106-.259 3.147-.01.261.062.569.402.651.675.275.913.312 1.843-.243 2.695-.727 1.117-1.457 2.233-2.193 3.344-.147.222-.348.407-.485.633-.223.372-.243.75.052 1.11.293.357.681.416 1.08.3.315-.09.618-.25.9-.423 2.098-1.292 4.405-1.384 6.766-1.233.804.051 1.158.544 1.399 1.213.22.609-.069 1.05-.5 1.4-.511.418-1.057.797-1.608 1.161-.444.292-.956.49-1.37.816-.845.665-.791 1.564.105 2.132.392.248.817.46 1.25.622.953.355 1.737.943 2.671 1.813M18.706 80.322c1.05-.193 1.97.06 2.764.515 1.557.894 3.07 1.852 4.182 3.351 1.07 1.445 2.266 2.797 3.423 4.174.53.632.846 1.29.86 2.162.029 1.814.592 3.532 1.172 5.279l-.703 1.462c-.877-.314-1.686-.6-2.49-.895-.894-.328-1.798-.46-2.745-.25-1.572.348-3.166.38-4.77.348-.73-.015-1.46.16-2.19.166-1.262.01-2.527-.003-3.785-.089-.815-.054-1.563-.34-1.95-1.18-.08-.176-.245-.313-.374-.466-.791-.937-.75-1.44.176-2.08.56-.386 1.16-.64 1.862-.623.799.018 1.6.016 2.399-.013.395-.014.8-.06 1.176-.171.6-.177.796-.962.413-1.484-.298-.406-.705-.616-1.195-.622-.794-.01-1.387-.434-1.952-.908-.573-.481-.693-1-.421-1.594.283-.62.69-.88 1.45-.81.455.045.922.15 1.349.318.866.341 1.699.768 2.565 1.109.42.165.89.3 1.331.282.26-.01.63-.301.723-.55.093-.248.003-.758-.186-.884-.903-.605-1.596-1.404-2.276-2.224-1.071-1.29-1.132-2.758-.808-4.323"/>
        <path fill="#E7BEA3" d="M83.063 108.527c-.033-.543-.081-.935-.076-1.326.02-1.746-.218-3.445-.732-5.12-.46-1.503.135-2.846 1.572-3.443.912-.378 1.899-.629 2.877-.78 1.803-.28 3.064.766 3.306 2.598.266 2.016-.177 3.9-1.425 5.452-.683.848-1.738 1.42-2.677 2.034-.79.518-1.697.73-2.845.585M31.778 97.727c-.503 3.216-1.193 6.392-1.315 9.81-.892-.26-1.69-.502-2.491-.728-1.654-.463-2.575-1.636-2.865-3.243-.222-1.234-.355-2.52-.274-3.764.152-2.374 1.965-3.907 4.605-3.154.818.234 1.67.415 2.34 1.079"/>
        <path fill="#000" d="M45.963 176.555s4.854-5.018 8.074 0h-8.074zM66.917 176.555s4.854-5.018 8.074 0h-8.074z"/>
        <path fill="#0FB4DE" d="M52.11 125.225l-8.242 37.525 1.663.819c2.25 1.107 4.876 1.159 7.168.142l5.918-2.624 6.415 1.271c2.569.51 5.22.421 7.748-.258l3.23-.866-10.434-37.383-13.466 1.374z"/>
        <path fill="#E7BEA3" d="M30.904 100.344c-.438-1.18-.412-2.282.31-3.435.343-.064.787-.173 1.238-.223 1.194-.13 2.393-.22 3.587-.352 1.825-.204 3.504-.797 4.986-1.912.533-.402 1.088-.774 1.63-1.164 1.11-.795 1.976-1.77 2.44-3.092.35-.997.799-1.959 1.214-2.961.51.077.439.587.548.89.726 2.02 1.588 3.967 2.781 5.76.295.444.586.908.772 1.403.968 2.596 2.984 4.398 4.782 6.36.304.334.728.588 1.141.786.9.435 1.807.88 2.754 1.19.747.243 1.555.384 2.341.415 2.248.084 3.783-1.129 4.828-2.984.756-1.342 1.347-2.77 1.248-4.38-.016-.254.05-.514.097-.948.308.175.57.242.7.41 2.096 2.695 4.953 4.195 8.112 5.227 1.174.384 2.383.26 3.577.192.44-.025.89-.261 1.291-.485.52-.291.993-.666 1.573-1.064.465.496.761 1.061 1.006 1.664.836 2.066 1.412 4.176 1.264 6.437-.043.666-.038 1.339-.002 2.006.119 2.186-.374 4.23-1.223 6.237-.565 1.334-1.382 2.424-2.478 3.334-2.214 1.838-4.568 3.484-7.014 4.99-.845.521-1.775.951-2.72 1.25-2.673.845-5.376 1.584-8.196 1.775-1.73.116-3.455.354-5.186.426-3.415.143-6.803-.287-10.166-.79-1.434-.214-2.805-.834-4.208-1.26-1.538-.468-3.012-1.05-4.355-1.973-2.738-1.881-5.089-4.098-6.561-7.142-.902-1.862-1.898-3.683-2.734-5.574-.826-1.867-1.053-3.854-.73-5.89.115-.727.183-1.46.262-2.192.116-1.063.177-2.14 1.091-2.93"/>
        <path fill="#E8A192" d="M45.963 114.856c0 .884-1.89 1.601-4.222 1.601-2.33 0-4.22-.717-4.22-1.6 0-.885 1.89-1.601 4.22-1.601 2.332 0 4.222.716 4.222 1.6M78.06 114.856c0 .884-1.89 1.601-4.221 1.601-2.332 0-4.221-.717-4.221-1.6 0-.885 1.89-1.601 4.22-1.601 2.332 0 4.222.716 4.222 1.6M117.452 89.452c0 .885-1.89 1.601-4.22 1.601-2.332 0-4.222-.716-4.222-1.6 0-.885 1.89-1.601 4.221-1.601 2.332 0 4.221.716 4.221 1.6M160.395 88.738c0 .884-1.89 1.6-4.221 1.6-2.331 0-4.221-.716-4.221-1.6 0-.884 1.89-1.6 4.22-1.6 2.332 0 4.222.716 4.222 1.6"/>
        <path fill="#222221" d="M44.198 107.537c0 .68-.55 1.231-1.228 1.231-.678 0-1.229-.551-1.229-1.231s.55-1.23 1.23-1.23c.678 0 1.227.55 1.227 1.23M75.067 107.664c0 .68-.55 1.231-1.228 1.231-.679 0-1.229-.551-1.229-1.23 0-.68.55-1.232 1.229-1.232.678 0 1.228.551 1.228 1.231M127.383 78.54c0 .68-.55 1.232-1.229 1.232-.678 0-1.228-.552-1.228-1.232 0-.68.55-1.23 1.228-1.23.679 0 1.229.55 1.229 1.23M146.434 78.54c0 .68-.55 1.232-1.228 1.232-.679 0-1.229-.552-1.229-1.232 0-.68.55-1.23 1.229-1.23.678 0 1.228.55 1.228 1.23"/>
    </g>
</svg>
