<svg xmlns="http://www.w3.org/2000/svg" viewBox="0 0 132.66 112.036"><defs><style>.\34 0a2a607-9d37-4ca8-a404-1a933df848a5{fill:#fd0;}</style></defs><title>Asset 1</title><g id="e020b3a0-65b3-4168-b21f-28b0a27731e9" data-name="Layer 2"><g id="575adf23-ee37-4902-a86e-d0e97d490e91" data-name="Layer 1"><path class="40a2a607-9d37-4ca8-a404-1a933df848a5" d="M45.479,2.713l-6.053-.152a23.856,23.856,0,0,1,1.888,4.891c.119.392.237.783.361,1.172l.058.405a3.823,3.823,0,0,0,.145,1.394,7.516,7.516,0,0,0,1.55-.571,8.871,8.871,0,0,1,2.525-.832c0-1.279-.134-2.638-.272-4.056C45.608,4.226,45.535,3.471,45.479,2.713Z"/><path d="M48.169,4.722c-.106-1.085-.215-2.207-.259-3.28L46.692.243,37,0l-.962,2.083c1.571,1.754,2.208,3.862,2.884,6.093.1.338.2.676.31,1.011-.005,1.138.151,2.624,1.252,3.355a2.3,2.3,0,0,0,1.306.383,6.951,6.951,0,0,0,2.656-.79c.573-.255,1.764-.785,2.047-.613l1.9-.957A32.436,32.436,0,0,0,48.169,4.722Zm-4.741,5.13a7.516,7.516,0,0,1-1.55.571,3.823,3.823,0,0,1-.145-1.394l-.058-.405c-.124-.389-.242-.78-.361-1.172a23.856,23.856,0,0,0-1.888-4.891l6.053.152c.055.757.129,1.513.2,2.251.138,1.417.271,2.776.272,4.056A8.871,8.871,0,0,0,43.428,9.852Z"/><path class="40a2a607-9d37-4ca8-a404-1a933df848a5" d="M88.771,5.65c.129-.287.259-.577.395-.865l-.244,0a19.123,19.123,0,0,1-3.936-.208,11.649,11.649,0,0,0-2.047,4.055,7.378,7.378,0,0,0,2.859.334C87.307,8.76,87.912,7.571,88.771,5.65Z"/><path d="M91.417,2.3c-.938-.042-1.753-.027-2.541-.013a14.842,14.842,0,0,1-4.115-.313l-1.3.462a13.857,13.857,0,0,0-3.15,6.8l.6,1.2a8.765,8.765,0,0,0,4.34,1.05c.3,0,.578-.013.835-.037,3.021-.417,4.1-2.837,4.972-4.783a10.222,10.222,0,0,1,1.269-2.319ZM82.938,8.635a11.649,11.649,0,0,1,2.047-4.055,19.123,19.123,0,0,0,3.936.208l.244,0c-.136.288-.266.578-.395.865-.858,1.921-1.464,3.11-2.973,3.319A7.378,7.378,0,0,1,82.938,8.635Z"/><path d="M92.572,40.742c2.06,8.963,4.118,20.835-2.908,28.466-10.417,9.57-26.165,11.266-39.246,6.42C43.876,72,35.4,66.908,35.033,58.428c-1.574-11.388-.486-24.592,8.723-31.981,4.6-1.7,9.692-2.544,13.931-5.21,11.264-2.058,21.925,3.756,29.92,10.782Z"/><path class="40a2a607-9d37-4ca8-a404-1a933df848a5" d="M88.452,42.2C90.029,50.8,92.088,60,86.76,67.514c-7.874,5.329-17.688,9.447-27.622,6.418-4.965-.605-10.3-2.178-14.294-6.178-8.6-6.541-6.419-17.928-6.419-26.771C40,36.38,40.6,30.808,46.055,28.264c4.12-.726,7.753-4.239,11.872-3.271,7.753-2.786,14.173,2.422,20.959,4.361C83.73,32.5,85.788,37.713,88.452,42.2Z"/><path class="40a2a607-9d37-4ca8-a404-1a933df848a5" d="M123.189,35.4c.215-.362-.083-1.443-.3-2.233a8.865,8.865,0,0,1-.468-3.035c-.084-.156-.2-.337-.313-.514a4.555,4.555,0,0,1-.886-2.268c-2.015.755-4.069,1.349-6.07,1.928-2.117.612-4.3,1.242-6.376,2.054l.6,3.095c.086.119.176.238.266.358a5.677,5.677,0,0,1,1.206,2.325,36.163,36.163,0,0,0,4.092-.733,20.387,20.387,0,0,1,7.741-.676A.936.936,0,0,0,123.189,35.4Z"/><path d="M125.3,32.506a6.057,6.057,0,0,1-.366-2.3l-.04-.641a5.886,5.886,0,0,0-.679-1.291c-.533-.833-.54-.972-.422-1.157l.03-1.29-.484-.848-1.575-.53a64.487,64.487,0,0,1-7.3,2.432,66.329,66.329,0,0,0-7.594,2.535l-.738,1.389.847,4.36.188.455c.147.222.313.445.481.669.715.954.841,1.244.673,1.552l1.1,1.85a28.244,28.244,0,0,0,6.064-.866c2.46-.539,4.783-1.045,7.022-.611l.522-.01a3.457,3.457,0,0,0,2.319-1.521C126.1,35.4,125.673,33.864,125.3,32.506Zm-10.358,3.875a36.163,36.163,0,0,1-4.092.733,5.677,5.677,0,0,0-1.206-2.325c-.09-.12-.18-.239-.266-.358l-.6-3.095c2.079-.812,4.259-1.441,6.376-2.054,2-.579,4.056-1.173,6.07-1.928a4.555,4.555,0,0,0,.886,2.268c.113.177.229.358.313.514a8.865,8.865,0,0,0,.468,3.035c.218.79.516,1.871.3,2.233a.936.936,0,0,1-.509.3A20.387,20.387,0,0,0,114.939,36.381Z"/><path class="40a2a607-9d37-4ca8-a404-1a933df848a5" d="M17.686,36.362a16.039,16.039,0,0,0,.55-5.9L4.485,28.37l-.277.215L2.661,38.279C7.595,36.667,12.522,36.475,17.686,36.362Z"/><path d="M2.281,41.062c5.264-1.987,10.685-2.1,16.425-2.222l1.19-.96.045-.189c.628-2.641,1.341-5.634.553-8.652l-1.021-.92-15.141-2.3-.955.249-1.091.847-.468.791L0,39.09l.35,1.08.6.605Zm2.2-12.692,13.75,2.09a16.039,16.039,0,0,1-.55,5.9c-5.164.113-10.091.305-15.024,1.917l1.547-9.694Z"/><path class="40a2a607-9d37-4ca8-a404-1a933df848a5" d="M17.81,64.149a10.926,10.926,0,0,0-1.633-2.436C11.4,64.97,6.05,68.638,3.178,73.154a37.486,37.486,0,0,1,2.488,4.557c.522,1.065,1.089,2.225,1.6,3.055A88.036,88.036,0,0,1,16.4,74.245c1.726-1.143,3.6-2.385,5.6-3.743l-3.148-4.6C18.467,65.33,18.133,64.729,17.81,64.149Z"/><path d="M20.926,64.511c-.326-.49-.621-1.019-.932-1.578a9.185,9.185,0,0,0-3.162-3.842l-1.324.053-.573.39C9.647,63.135,3.653,67.217.589,72.609l.116,1.4a27.9,27.9,0,0,1,2.716,4.8,17.764,17.764,0,0,0,2.86,4.75l1.767-.072c1.688-1.833,5.239-4.183,9.736-7.159,1.848-1.223,3.867-2.56,6.017-4.03l.442-.539.364-.848-.117-1.2ZM16.4,74.245a88.036,88.036,0,0,0-9.142,6.521c-.506-.83-1.074-1.989-1.6-3.055a37.486,37.486,0,0,0-2.488-4.557c2.872-4.516,8.218-8.185,13-11.441a10.926,10.926,0,0,1,1.633,2.436c.323.58.657,1.18,1.041,1.755L22,70.5C20.006,71.86,18.129,73.1,16.4,74.245Z"/><path class="40a2a607-9d37-4ca8-a404-1a933df848a5" d="M129.063,73.8c-.049-.855-.1-1.676-.177-2.388l-19.083-5.1a21.077,21.077,0,0,0-2.555,6.969c1.8.562,3.589,1.194,5.322,1.809a64.127,64.127,0,0,0,12.162,3.422l.513.2a3.391,3.391,0,0,0,2.215-.028,8.311,8.311,0,0,1,2.073-.211A36.517,36.517,0,0,1,129.063,73.8Z"/><path d="M132.6,80.092a20.033,20.033,0,0,1-1.045-6.433,30.035,30.035,0,0,0-.323-3.463l-.906-.984L109.492,63.64l-1.422.612c-1.654,3.051-3.161,6.1-3.42,9.839l.895,1.286c2.079.611,4.169,1.353,6.19,2.069a67.175,67.175,0,0,0,12.39,3.5,5.543,5.543,0,0,0,3.817.184c1.83-.361,1.862-.233,2.058.6l2.419.058.241-.849Zm-5.143-1.413a3.391,3.391,0,0,1-2.215.028l-.513-.2a64.127,64.127,0,0,1-12.162-3.422c-1.733-.615-3.518-1.248-5.322-1.809a21.077,21.077,0,0,1,2.555-6.969l19.083,5.1c.08.711.128,1.532.177,2.388a36.517,36.517,0,0,0,.471,4.666A8.311,8.311,0,0,0,127.46,78.679Z"/><path class="40a2a607-9d37-4ca8-a404-1a933df848a5" d="M85.145,91.579l-7.955,3.23,1.063,1.728a68.577,68.577,0,0,1,5.061,12.437l15.323-.81C95.265,102.094,91.329,95.995,85.145,91.579Z"/><path d="M86.009,89.133l-1.176-.126-9.952,4.041-.594,1.813,1.8,2.915a66.876,66.876,0,0,1,5.11,12.845l1.268.9,18.295-.967,1.032-1.844C97.953,101.639,93.574,94.3,86.009,89.133Zm-2.694,19.84a68.577,68.577,0,0,0-5.061-12.437L77.19,94.809l7.955-3.23c6.185,4.416,10.12,10.515,13.493,16.585Z"/><path class="40a2a607-9d37-4ca8-a404-1a933df848a5" d="M51.677,109.044,51.255,93.5l-6.54-1.255c-.22.514-.486,1.113-.8,1.814-.526,1.186-1.317,2.967-1.427,3.422l.087.055a24.441,24.441,0,0,1-1.337,5.444,18.269,18.269,0,0,0-1.311,6.428,43.745,43.745,0,0,0,7.679-.128C48.946,109.187,50.319,109.087,51.677,109.044Z"/><path class="40a2a607-9d37-4ca8-a404-1a933df848a5" d="M41.627,96.941l.863.543a1.163,1.163,0,0,0-.5-1.057Z"/><path d="M52.713,91.239,45.5,89.855a1.055,1.055,0,0,0-.677-1.075c-1.1-.616-1.84.46-2.384,1.246l.245.6c-.292.708-.726,1.688-1.054,2.425-1.346,3.033-1.822,4.106-1.6,4.774a25.475,25.475,0,0,1-1.166,4.381c-.882,2.687-1.794,5.465-1.313,8.507l1.03,1.038a23.9,23.9,0,0,0,3.911.286c1.752,0,3.542-.13,5.3-.258,1.717-.125,3.493-.254,5.171-.254l1.25-1.284-.484-17.807ZM39.93,109.413a18.269,18.269,0,0,1,1.311-6.428,24.441,24.441,0,0,0,1.337-5.444l-.087-.055c.11-.455.9-2.236,1.427-3.422.312-.7.577-1.3.8-1.814l6.54,1.255.422,15.54c-1.358.042-2.731.143-4.069.24A43.745,43.745,0,0,1,39.93,109.413Zm2.56-11.928-.863-.543.368-.513A1.163,1.163,0,0,1,42.49,97.485Z"/></g></g></svg>