<svg xmlns="http://www.w3.org/2000/svg" xmlns:xlink="http://www.w3.org/1999/xlink" width="104" height="172" viewBox="0 0 104 172">
    <defs>
        <path id="prefix__a" d="M0.195 0.096L59.971 0.096 59.971 61 0.195 61z"/>
        <path id="prefix__c" d="M0 0.621L112.977 0.621 112.977 120.83 0 120.83z"/>
    </defs>
    <g fill="none" fill-rule="evenodd" transform="rotate(-15 59.706 61.952)">
        <path fill="#F2703D" d="M59.94 166.509c3.568-.039 7.13-.288 10.693-.447 3.429-.15 6.618.614 9.983 1.245 3.771.711 6.977 1.08 10.717.083 1.016-.27 2.478-.257 2.81-1.46.4-1.437-1.205-2.714-2.478-2.711-.956.003-4.403 1.084-4.294-.44.032-.417.281-.784.563-1.09 1.237-1.355 2.402-1.094 3.93-1.544 1.434-.423 2.878-1.881 3.836-2.98 1.545-1.778 2.544-4.147 2.248-6.489-.364-2.88-2.623-5.23-5.225-6.495-2.603-1.263-5.534-1.627-8.404-1.972-4.87-.587-9.74-1.175-14.611-1.76-2.422-.293-4.844-.585-7.27-.84-4.763-.503-9.538-.863-14.32-1.084-3.868-.177-9.214-1.19-12.915.188-3.06 1.14-6.522 1.95-8.79 4.306-2.268 2.36-3.618 5.656-3.388 8.924.23 3.272 2.123 6.437 5.017 7.956 1.383.724 2.927 1.066 4.414 1.536.685.218 1.518.822 1.186 1.46-.132.252-.41.385-.68.468-1.055.336-2.205.201-3.282.454-1.785.418-3.338 2.743-1.009 3.648 2.11.817 5.656.17 7.889.082 3.333-.132 6.595-.597 9.879-.98 4.446-.518 9.046-.012 13.501-.058"/>
        <g transform="translate(30 107)">
            <mask id="prefix__b" fill="#fff">
                <use xlink:href="#prefix__a"/>
            </mask>
            <path fill="#FF8D59" d="M54.994 3.116c2.277 2.554 3.593 5.848 4.258 9.201.663 3.355.711 6.798.718 10.215.008 3.679-.033 7.36-.352 11.023-.239 2.772-.645 5.548-1.592 8.163-.947 2.613-2.47 5.07-4.65 6.794-1.342 1.06-2.934 1.851-3.985 3.198-1.055 1.347-1.314 3.563.04 4.605.905.696 2.387.22 2.588 1.634.129.911-.72 1.915-1.449 2.324-1.547.867-3.791.353-5.4.104-.657-.1-1.305-.264-1.932-.485-.525-.183-1.074-.441-1.333-.934-.127-.244-.17-.523-.211-.797l-.532-3.562c-.09-.605-.19-1.232-.53-1.738-.68-1.014-2.324-.78-3.372-.623-1.49.222-2.983.422-4.487.522-3.051.206-6.164.048-9.073-.964-.876-.302-1.947-.646-2.638-.031-.218.192-.358.456-.476.722-.602 1.365-.707 2.886-.996 4.35-.309 1.554-.825 3.209-2.358 3.741-.97.337-2.325.342-3.346.393-1.39.07-4.872.193-4.597-2.041.253-2.063 3.804-1.484 4.42-3.33.091-.274.07-.574.043-.863-.095-1.146-.19-2.292-.288-3.436-.07-.83-.145-1.681-.505-2.433-.404-.85-1.132-1.49-1.827-2.122-2.684-2.437-5.205-5.1-7.071-8.207C.957 33.376-.19 27.163.306 21.157.799 15.155 2.873 9.35 5.796 4.082c.656-1.182 1.872-1.447 3.142-1.91C15.562-.248 22.832-.193 29.846.542c7.015.731 13.978 2.11 21.03 2.226 1.268.022 2.865.145 4.118.348" mask="url(#prefix__b)"/>
        </g>
        <path fill="#FF9B73" d="M44.927 113.298c7.159-3.494 15.715-2.577 23.277-.084 2.815.929 5.63 2.104 7.801 4.134 7.591 7.1 6.198 25.14-1.933 31.454-1.858 1.443-4.176 2.15-6.482 2.602-5.07.998-10.503.865-15.181-1.341-6.937-3.277-8.601-9.635-9.938-16.554-1.198-6.208.046-12.216 1.973-18.237l.71-2.217c.411.002.823.002 1.236.003-1.763 1.995-3.147 3.586-3.812 6.172l2.35-5.932z"/>
        <mask id="prefix__d" fill="#fff">
            <use xlink:href="#prefix__c"/>
        </mask>
        <path fill="#FEC157" d="M79.194 118.06c11.852-2.993 19.426-11.064 25.091-21.797 6.441-12.208 9.27-26.027 8.595-39.772-.595-12.117-3.068-27.23-11.415-36.588C95.413 13.12 89.682 8.218 81.12 4.9 69.598.434 56.716-.66 44.69 2.203c-12.027 2.862-23.12 9.733-30.695 19.456-5.75 7.38-8.031 15.956-10.873 24.856C1.818 50.6.68 54.763.226 59.027c-.98 9.19 1.298 18.553 5.53 26.78 4.233 8.227 10.35 15.383 17.18 21.647 3.065 2.812 6.312 5.479 9.993 7.432 5.393 2.861 11.23 3.584 17.073 4.94 9.201 2.136 18.514.48 27.585-1.397.546-.114 1.08-.237 1.607-.37" mask="url(#prefix__d)"/>
        <path fill="#FF8D59" d="M35.329 64.698c1.389-2.06 2.718-4.18 3.153-6.798.413-2.488-.251-5.284-2.222-6.872-1.324-1.067-3.05-1.473-4.584-2.207-3.722-1.778-8.125-7.156-4.038-10.895 1.884-1.724 6.195-1.594 8.292-.309 2.11 1.291 2.773 4.12 4.748 5.605 6.659-5.232 17.197-6.24 24.98-2.875 1.232.532 2.581 1.183 3.858.765 1.314-.434 2.002-1.82 2.822-2.926 2.164-2.925 6.679-4.284 9.615-2.132 3.01 2.202 2.628 7.573-.664 9.334-1.05.561-2.272.786-3.248 1.466-1.135.79-2.714 3.552-3.123 4.798-2.495 7.606 7.826 13.053 8.566 20.223.236 2.293-.129 4.601-.613 6.853-1.668 7.762-5.415 13.438-13.007 16.402-6.589 2.573-14.267 2.425-20.863-.041-6.693-2.504-12.37-7.594-15.565-13.957-1.065-2.124-1.867-4.417-1.976-6.787-.179-3.928 1.904-6.729 3.869-9.647"/>
        <path fill="#35302F" d="M47.261 71.907c1.272 3.496 6.03 4.448 9.491 4.787 3.453.339 10.156.76 13.124-.961 1.602-.929 2.595-2.883 1.898-4.511-2.89-6.756-16.221-7.596-22.085-4.504-1.678.886-2.96 2.64-2.64 4.405.05.273.12.535.212.784"/>
        <path fill="#FFF" d="M43 53.463c0 .888.262 1.817.865 2.687 3.1 4.486 10.454.002 7.413-4.83-.495-.787-1.236-1.379-2.043-1.801-3.157-1.655-6.235.916-6.235 3.944M66.068 52.846c-.03.186-.052.375-.06.573-.352 7.516 11.613 5.044 8.463-2.07-1.726-3.902-7.705-2.625-8.403 1.497"/>
        <path fill="#35302F" d="M47.5 56c1.362 0 2.5-1.136 2.5-2.5 0-1.362-1.138-2.5-2.5-2.5S45 52.138 45 53.5c0 1.364 1.138 2.5 2.5 2.5M69.5 55c.818 0 1.5-.682 1.5-1.5 0-.817-.682-1.5-1.5-1.5s-1.5.683-1.5 1.5c0 .818.682 1.5 1.5 1.5M55.544 82.59c-1.72 2.273.986 4.457 3.316 4.41 2.12-.044 6.226-2.281 4.872-4.762-.119-.217-.464-.313-.682-.17-.69.454-.957 1.065-1.473 1.66-.565.654-1.403 1.112-2.239 1.367-.727.225-1.518.22-2.177-.167-.69-.403-.654-1.585-.873-2.245-.112-.341-.54-.364-.744-.093"/>
        <path fill="#FF9B73" d="M34.5 45c2 0 2-5 0-5s-2 5 0 5M80.751 43.876c.59-.206.956-.39 1.411-.828 1.117-1.07 1.117-3.033 0-4.103-.455-.436-.821-.62-1.41-.826-.73-.252-1.636-.082-2.284.301-.901.531-1.468 1.525-1.468 2.577 0 .788.315 1.553.867 2.11.712.716 1.903 1.11 2.884.769"/>
        <path fill="#FF8D59" d="M44.956 30.328c-.254-.558-.498-1.117-.694-1.692-.226-.665-.246-1.35-.368-2.032-.045-.252-.38-.551-.673-.588-1.848-.221-1.134 1.86-.818 2.541.362.782.883 1.49 1.401 2.196.37.5 1.424.181 1.152-.425M53.6 29.369l-.037-.073c-.064.172-.127.345-.188.517.745-.512.56-1.216.59-1.888.037-.808.13-1.525-.293-2.29-.33-.594-1.69-.971-2.149-.206-.544.902-.587 1.722-.47 2.697.048.388.056.885.332 1.228.116.144.287.27.462.376.144.105.315.177.514.219.313.074.392.068.238-.02.482.149 1.234-.1 1-.56M59.948 26.753c.683-1.554 2.7-3.66 1.844-5.407-.18-.371-.676-.42-1.012-.259-1.665.807-1.727 3.843-1.78 5.416-.016.465.744.713.948.25M57.083 16.307c-.304-1.452 1.786-2.697.488-4.045-.257-.267-.703-.293-1.069-.238-1.217.179-1.5 1.431-1.502 2.31-.002.862.278 1.706.878 2.405.446.518 1.34.208 1.205-.432M75.41 24.965c.08-.046.162-.088.244-.13l-.265-.074c.112.061.233.091.362.093.273 0 .705-.165.935-.292.61-.337 1.036-.952 1.265-1.565.27-.724-.642-1.199-1.26-.912-.553.254-1.076.668-1.39 1.173-.136.219-.183.495-.242.739-.04.166-.04.376.072.521-.138-.181-.09.01-.124.154-.052.219.187.41.403.293M71.233 15.954c.174-.192.416-.06.632-.227.388-.304.807-.578 1.096-1.016.56-.848 1.324-1.991.931-3.145-.14-.412-.414-.64-.79-.545-.91.234-1.283 1.35-1.68 2.247-.2.45-.268.891-.357 1.385-.042.235-.088.414-.052.65.03.204.09.273.02.463-.06.159.088.313.2.188M28.953 26.723c-.443-.493-.696-1.11-1.043-1.67-.295-.474-.777-1.113-1.406-1.048-.215.023-.42.134-.475.362-.167.703.419 1.26.926 1.644.548.415 1.184.67 1.8.97.168.081.326-.115.198-.258M20.931 32.493c-.78-.914-1.688-2.29-3.398-2.48-1.05-.116-1.896.538-1.374 1.238.779 1.044 2.764 1.184 4.103 1.705.424.165.923-.166.67-.463M27.971 32.554c-.209-.43-.42-.86-.63-1.289-.093-.19-.186-.383-.281-.573-.136-.278-.464-.442-.74-.593-.603-.332-1.552.226-1.268.871.1.231.176.468.37.654.208.205.47.345.727.499l1.379.826c.3.18.561-.157.443-.395M28.679 57.49c-.797-.334-1.457-.356-2.3-.356-.706 0-1.526-.174-2.13.336-.332.282-.332.78 0 1.062.604.508 1.424.334 2.13.334.843 0 1.503-.022 2.3-.354.428-.178.428-.844 0-1.022M27.658 66.128c-.23-.039-.483-.128-.714-.128-.281 0-.535.086-.806.16-.503.142-1.3.43-1.109 1.228.172.709.887.664 1.377.538.251-.066.56-.11.785-.261.254-.171.463-.404.676-.634.24-.255.148-.842-.21-.903M18.993 63.352c-.064-.586-.595-1.129-1-1.246-.668-.2-1.286-.175-1.76.588-.311.504-.311 1.108 0 1.612.474.763 1.092.788 1.76.588.48-.14 1.08-.812 1-1.542M88.525 34.999c.743-.048 1.605-.055 2.282-.355.73-.322 1.373-.624 1.92-1.123.66-.605.057-1.795-1.1-1.464-.782.223-1.434.5-2.135.845-.676.331-1.115.925-1.436 1.464-.156.26.019.661.469.633M89.527 27.94c.284-.19.627-.297.92-.483.312-.197.637-.428.968-.577.441-.197.652-.627.566-1.18-.01-.073-.054-.153-.08-.229-.145-.383-.598-.547-.917-.438-.519.172-1.024.413-1.4.88-.196.244-.348.5-.455.808-.09.263-.092.475-.125.745-.04.348.225.672.523.473M95.785 27.987c.429-.088.833-.233 1.228-.406.426-.186.904-.571.98-1.01.045-.272-.13-.587-.486-.57-.824.039-1.456.712-2.193.99-.66.251-.17 1.126.471.996M97.537 39.992c.718-.142 1.505-.375 2.107-.967.595-.585.43-2.049-.39-2.025-.946.033-1.802.913-2.202 2.103-.171.513.106.965.485.889M90.188 53.947c.92.947 3.498 1.602 4.465.405.463-.572.463-1.13 0-1.704-.967-1.196-3.544-.544-4.465.407-.25.257-.25.631 0 .892M99.561 57.655c.4.188.765.366 1.19.343.257-.012.508-.008.737-.215.278-.247.512-.78.512-1.281 0-.378-.142-.791-.315-1.053-.26-.398-.588-.431-.933-.447-.426-.02-.79.155-1.19.343-.75.35-.75 1.96 0 2.31M92.611 67.376c1.148.171 2.282.577 3.446.623.961.037 1.3-1.096.483-1.47-1.082-.499-2.488-.504-3.702-.529-.946-.02-1.185 1.233-.227 1.376M91.138 84.227c.582.905 1.25 1.488 2.025 1.744 1.005.334 1.153-2.308.181-2.275-.587.017-1.156-.171-1.684-.618-.42-.351-.902.561-.522 1.15M84.043 93.401c.46.777.963 1.516 1.463 2.271.51.772 1.932.033 1.361-.694-.307-.388-.62-.76-1.047-1.055-.42-.292-.857-.566-1.281-.855-.276-.187-.67.042-.496.333M91.001 93.909c.034.827.18 1.46.431 2.218.093.281.28.537.415.786.269.492.474.796.921 1.017.632.311 1.186-.47 1.228-1.215.078-1.35-1.113-2.293-1.638-3.281-.382-.72-1.397-.531-1.357.475M76.018 105.96c.13.657.346 1.531.936 1.934.456.31 1.022-.115 1.045-.576.016-.303-.143-.57-.24-.85-.102-.298-.167-.604-.212-.913-.06-.411-.6-.63-.976-.531-.441.116-.633.528-.553.936M84.124 107.374c-.124-.251.017.053.036.1.043.102.081.206.119.308.114.311.398.69.666.915.39.326.993.403 1.467.162.493-.248.666-.714.556-1.175-.138-.59-.656-1.053-1.176-1.419-.374-.264-.844-.366-1.286-.142-.547.274-.61.792-.382 1.25M52.994 103.392c-.635 1.056-1.128 2.209-.961 3.417.075.55.386.96 1.047 1.137.253.068.51.076.76 0 .431-.129.925-.407.997-.823.211-1.202.243-2.353-.061-3.538-.172-.667-1.411-.807-1.782-.193M48.14 109.467c-.454.981-1.259 2.208-1.125 3.307.14 1.172 1.716 1.74 2.451.622.636-.967.503-2.355.534-3.456.025-.878-1.454-1.35-1.86-.473M42.833 102.175c-.837.885-1.896 2.307-1.83 3.564.07 1.359 1.694 1.685 2.462.656.46-.618.448-1.36.512-2.094.054-.626.01-1.234-.095-1.853-.076-.462-.748-.591-1.049-.273M34.886 96.147c-.896.935-1.845 1.995-1.886 3.676-.025 1.068.958 1.55 1.486.845.639-.853 1.035-2.036 1.419-3.12.148-.418.134-.896-.117-1.24-.215-.296-.64-.434-.902-.16M34.731 105.24c-.304.347-.61.693-.916 1.038l-.463.515c-.19.211-.249.45-.335.698-.112.32.354.647.715.448.19-.105.425-.2.587-.334.218-.178.383-.43.559-.635.337-.391.671-.787 1.003-1.182.49-.582-.657-1.11-1.15-.549M30.091 88.041c-.284.123-.572.228-.866.307-.346.097-.701.46-.971.76-.583.645-.062 1.855.562 1.89.806.046 1.393-.6 1.969-1.299.54-.657-.03-1.945-.694-1.658M29.816 94.049c-.477.15-.998.201-1.49.324-.571.143-1.092.453-1.595.688-.671.311-.955.91-.53 1.418.38.454 1.362.697 2.018.371.59-.291 1.299-.591 1.721-1.003.35-.335.588-.72.924-1.065.481-.49-.42-.932-1.048-.733M21.818 89.348c-.086.169-.197.322-.337.383-.212.096-.397.198-.46.468-.057.251.005.427.147.62.13.176.364.207.551.163.507-.118.885-.467 1.188-.92.205-.311.045-.79-.226-.967-.295-.194-.694-.08-.863.253M26.195 79.021c-.67.203-1.806.388-2.113 1.406-.15.489-.11 1.065.249 1.355.865.696 1.887-.425 2.48-1.26.47-.66-.014-1.683-.616-1.5M15.406 77.083c-.527.42-1.068.725-1.631.994-.33.157-.98.7-.712 1.426.537 1.458 2.241-.699 2.753-1.305.413-.49.067-1.492-.41-1.115M18.566 83.229c-.273-.098-.56-.126-.842-.198-.488-.121-1.126.135-1.473.458-.421.393-.278.975.175 1.272.438.286 1.202.333 1.638.044.332-.222.64-.442.852-.77.212-.326-.005-.684-.35-.806M16.3 88.008c-.044 0-.395-.017-.173.027-.254-.05-.465-.053-.716.038l-.38.136c-.279.101-.466.26-.692.467-.406.374-.422 1.184-.182 1.667.346.698 1.013.8 1.593.494.273-.145.478-.437.686-.683.176-.206.295-.422.374-.7-.06.217.079-.147.1-.19.257-.538-.065-1.273-.61-1.256M18.531 94.21c-.025.023-.048.046-.074.068l.778-.184c-.532-.112-.939-.017-1.408.211-.615.3-.759.97-.823 1.536-.044.395.278.813.641 1.004.528.277 1.124.163 1.567-.183.303-.237.62-.545.729-.898.133-.432.036-.975-.229-1.34v.724l.053-.083c.445-.69-.608-1.44-1.234-.854M24.238 103.06c-.405.162-.742.31-.978.7-.095.155-.184.379-.21.567-.066.236-.066.47 0 .703.094.33.322.617.63.79.317.179.703.227 1.057.134.374-.1.595-.32.819-.607l.032-.042-.216.27c.155-.176.318-.337.44-.542.249-.418.253-.94 0-1.356-.124-.203-.29-.363-.5-.484-.29-.16-.75-.264-1.074-.134"/>
    </g>
</svg>
