<svg xmlns="http://www.w3.org/2000/svg" xmlns:xlink="http://www.w3.org/1999/xlink" width="154" height="137" viewBox="0 0 154 137">
    <defs>
        <path id="prefix__a" d="M0 0.712L62.61 0.712 62.61 98.623 0 98.623z"/>
        <path id="prefix__c" d="M0 0.712L40.736 0.712 40.736 98.623 0 98.623z"/>
        <path id="prefix__e" d="M0 0.714L27.164 0.714 27.164 98.621 0 98.621z"/>
        <path id="prefix__g" d="M0 0.712L62.61 0.712 62.61 98.623 0 98.623z"/>
        <path id="prefix__i" d="M0.874 0.712L41.61 0.712 41.61 98.623 0.874 98.623z"/>
        <path id="prefix__k" d="M.948 27.896c0 14.992 1.243 27.146 7.857 27.146s7.856-12.154 7.856-27.146c0-14.993-3.517-27.147-7.856-27.147S.948 12.903.948 27.896"/>
        <path id="prefix__m" d="M.948 27.896c0 14.992 1.243 27.146 7.857 27.146s7.856-12.154 7.856-27.146c0-14.993-3.517-27.147-7.856-27.147S.948 12.903.948 27.896"/>
    </defs>
    <g fill="none" fill-rule="evenodd">
        <g transform="rotate(-23 110.891 35.358) translate(0 .288)">
            <path fill="#FF9FA6" d="M62.078 59.185s-46.84 31.404-33.534 49.502c13.307 18.097 35.13-26.614 35.13-26.614l-1.596-22.888z"/>
            <path fill="#EA7D8A" d="M49.877 103.138c-5.316 3.11-11.157.813-14.542-3.813-2.344-3.203-3.375-6.909-3.973-10.724-.054-.209-.094-.422-.14-.633-4.895 7.282-7.082 14.73-2.678 20.72 6.588 8.96 15.264 2.522 22.345-6.261-.326.26-.659.505-1.012.711"/>
            <mask id="prefix__b" fill="#fff">
                <use xlink:href="#prefix__a"/>
            </mask>
            <path fill="#AEE4D7" d="M61.546 49.604s-23.42-60.679-51.1-46.84C-12.265 14.12 9.916 36.83 5.657 53.33 1.4 69.831-8.183 96.977 14.707 98.574 37.593 100.17 62.61 62.38 62.61 62.38l-1.064-12.775z" mask="url(#prefix__b)"/>
            <mask id="prefix__d" fill="#fff">
                <use xlink:href="#prefix__c"/>
            </mask>
            <path fill="#FF5783" d="M28.231 71.618c1.575-8.07 2.986-15.237 1.95-23.548-.87-6.971-2.2-13.766-.29-20.723 1.72-6.27 5.62-10.707 10.845-13.677C32.191 3.793 21.67-2.846 10.447 2.766-12.266 14.12 9.915 36.83 5.657 53.33c-4.259 16.5-13.84 43.645 9.048 45.243 5.965.416 12.072-1.855 17.846-5.424-5.593-5.663-5.756-14.178-4.32-21.532" mask="url(#prefix__d)"/>
            <mask id="prefix__f" fill="#fff">
                <use xlink:href="#prefix__e"/>
            </mask>
            <path fill="#BA2755" d="M13.636 92.8c-3.533-5.903-4.464-12.908-3.467-19.625.84-5.665 3.955-10.898 4.547-16.539.594-5.67-2.508-11.78-3.5-17.31-1.183-6.596-1.28-13.453.712-19.92 2.5-8.116 8.11-14.44 15.236-16.738-5.266-2.424-10.897-2.814-16.717.096-22.713 11.356-.532 34.066-4.79 50.566-4.26 16.501-13.84 43.647 9.048 45.244 1.257.088 2.52.05 3.785-.088-1.821-1.488-3.468-3.37-4.854-5.686" mask="url(#prefix__f)"/>
            <path fill="#FFF" d="M47.307 35.543c-2.327-1.41-4.436-3.947-7.194-4.732-.905-.258-1.827.878-1.23 1.726 1.75 2.496 5.407 3.14 7.95 3.883.45.132.881-.63.474-.877M47.045 45.985c-1.644-.362-3.394-.34-5.066-.422-1.719-.085-3.302-.255-4.87.538-.838.425-.727 1.762.067 2.156 1.587.788 3.26.529 4.946.158 1.712-.377 3.753-.622 5.185-1.671.221-.162.466-.6-.262-.76M47.172 55.759c-3.608 1.08-7.25 1.63-10.502 3.984-1.245.9-.386 2.73 1.102 2.399 3.758-.838 6.888-3.01 9.938-5.213.928-.67.462-1.47-.538-1.17M48.73 67.872c-1.733.776-2.62 1.36-4.617 2.491-1.557.883-3.752 1.97-4.148 3.852-.225 1.071.59 1.992 1.657 1.996 1.822.006 3.192-2.21 4.428-3.373 1.385-1.3 2.5-2.562 3.626-4.099.516-.703.112-1.34-.946-.867"/>
            <path fill="#272D2D" d="M47.307 35.543c-2.327-1.41-4.436-3.947-7.194-4.732-.905-.258-1.827.878-1.23 1.726 1.75 2.496 5.407 3.14 7.95 3.883.45.132.881-.63.474-.877M47.045 45.985c-1.644-.362-3.394-.34-5.066-.422-1.719-.085-3.302-.255-4.87.538-.838.425-.727 1.762.067 2.156 1.587.788 3.26.529 4.946.158 1.712-.377 3.753-.622 5.185-1.671.221-.162.466-.6-.262-.76M47.172 55.759c-3.608 1.08-7.25 1.63-10.502 3.984-1.245.9-.386 2.73 1.102 2.399 3.758-.838 6.888-3.01 9.938-5.213.928-.67.462-1.47-.538-1.17M48.73 67.872c-1.733.776-2.62 1.36-4.617 2.491-1.557.883-3.752 1.97-4.148 3.852-.225 1.071.59 1.992 1.657 1.996 1.822.006 3.192-2.21 4.428-3.373 1.385-1.3 2.5-2.562 3.626-4.099.516-.703.112-1.34-.946-.867"/>
            <path fill="#FF9FA6" d="M73.532 59.185s46.84 31.404 33.534 49.502c-13.307 18.097-35.131-26.614-35.131-26.614l1.597-22.888z"/>
            <path fill="#EA7D8A" d="M85.733 103.138c5.315 3.11 11.157.813 14.542-3.813 2.344-3.203 3.375-6.909 3.973-10.724.054-.209.093-.422.141-.633 4.894 7.282 7.08 14.73 2.677 20.72-6.589 8.96-15.264 2.522-22.345-6.261.326.26.66.505 1.012.711"/>
            <g transform="translate(73)">
                <mask id="prefix__h" fill="#fff">
                    <use xlink:href="#prefix__g"/>
                </mask>
                <path fill="#AEE4D7" d="M1.065 49.604s23.42-60.679 51.099-46.84c22.712 11.356.532 34.066 4.79 50.566 4.258 16.501 13.839 43.647-9.05 45.244C25.018 100.17 0 62.38 0 62.38l1.065-12.775z" mask="url(#prefix__h)"/>
            </g>
            <g transform="translate(94)">
                <mask id="prefix__j" fill="#fff">
                    <use xlink:href="#prefix__i"/>
                </mask>
                <path fill="#FF5783" d="M13.38 71.618c-1.577-8.07-2.988-15.237-1.95-23.548.87-6.971 2.2-13.766.29-20.723C10 21.078 6.1 16.64.873 13.67 9.42 3.793 19.941-2.846 31.164 2.766c22.712 11.355.531 34.065 4.79 50.566 4.258 16.5 13.84 43.645-9.049 45.243-5.966.416-12.072-1.855-17.846-5.424 5.593-5.663 5.756-14.178 4.32-21.532" mask="url(#prefix__j)"/>
            </g>
            <path fill="#BA2755" d="M121.974 92.8c3.533-5.903 4.463-12.908 3.466-19.625-.84-5.665-3.954-10.898-4.546-16.539-.595-5.67 2.507-11.78 3.5-17.31 1.182-6.596 1.28-13.453-.712-19.92-2.5-8.116-8.11-14.44-15.236-16.738 5.265-2.424 10.897-2.814 16.717.096 22.712 11.356.532 34.066 4.79 50.566 4.258 16.501 13.84 43.647-9.048 45.244-1.258.088-2.52.05-3.786-.088 1.822-1.488 3.47-3.37 4.855-5.686"/>
            <path fill="#FFF" d="M88.303 35.543c2.327-1.41 4.436-3.947 7.193-4.732.906-.258 1.828.878 1.232 1.726-1.751 2.496-5.41 3.14-7.951 3.883-.45.132-.881-.63-.474-.877M88.565 45.985c1.644-.362 3.394-.34 5.066-.422 1.72-.085 3.301-.255 4.87.538.838.425.726 1.762-.068 2.156-1.586.788-3.258.529-4.945.158-1.712-.377-3.753-.622-5.185-1.671-.222-.162-.466-.6.262-.76M88.437 55.759c3.61 1.08 7.251 1.63 10.502 3.984 1.245.9.386 2.73-1.1 2.399-3.758-.838-6.888-3.01-9.939-5.213-.928-.67-.462-1.47.537-1.17M86.88 67.872c1.734.776 2.62 1.36 4.617 2.491 1.558.883 3.753 1.97 4.148 3.852.226 1.071-.588 1.992-1.657 1.996-1.822.006-3.191-2.21-4.428-3.373-1.385-1.3-2.5-2.562-3.626-4.099-.516-.703-.112-1.34.946-.867"/>
            <path fill="#272D2D" d="M88.303 35.543c2.327-1.41 4.436-3.947 7.193-4.732.906-.258 1.828.878 1.232 1.726-1.751 2.496-5.41 3.14-7.951 3.883-.45.132-.881-.63-.474-.877M88.565 45.985c1.644-.362 3.394-.34 5.066-.422 1.72-.085 3.301-.255 4.87.538.838.425.726 1.762-.068 2.156-1.586.788-3.258.529-4.945.158-1.712-.377-3.753-.622-5.185-1.671-.222-.162-.466-.6.262-.76M88.437 55.759c3.61 1.08 7.251 1.63 10.502 3.984 1.245.9.386 2.73-1.1 2.399-3.758-.838-6.888-3.01-9.939-5.213-.928-.67-.462-1.47.537-1.17M86.88 67.872c1.734.776 2.62 1.36 4.617 2.491 1.558.883 3.753 1.97 4.148 3.852.226 1.071-.588 1.992-1.657 1.996-1.822.006-3.191-2.21-4.428-3.373-1.385-1.3-2.5-2.562-3.626-4.099-.516-.703-.112-1.34.946-.867"/>
            <path fill="#FFD01F" d="M63.446 32.568c.588-6.158-.004-12.618-2.019-18.488-.826-2.41-2.87-4.982-5.757-4.045-2.346.762-3.091 4.543-.572 5.629.798.344 1.704.23 2.185-.573.402-.67.218-1.844-.573-2.185-.381-.164-.024.204-.022.205-.077-.051.004-.09.084-.063.69.228 1.003.547 1.327 1.234.832 1.765 1.217 3.887 1.592 5.789.81 4.113.96 8.328.561 12.497-.082.86.793 1.597 1.597 1.597.932 0 1.514-.735 1.597-1.597M73.51 32.91c-.436-3.68-.561-7.387-.338-11.087.11-1.81.295-3.616.577-5.407.137-.866.27-1.743.469-2.597.064-.279.236-.599.27-.875.04-.076.09-.142.153-.198-.4-.671-.596-.773-.593-.304l.218-.806-.01.062c-1.41 1.494.845 3.756 2.259 2.258 1.797-1.904-.058-4.939-2.586-4.317-2.7.665-2.942 3.868-3.293 6.135-.876 5.68-.997 11.428-.318 17.136.102.863.66 1.587 1.596 1.597.785.008 1.699-.741 1.597-1.597M75.661 70.896c0 14.992-1.242 27.146-7.856 27.146-6.615 0-7.857-12.154-7.857-27.146 0-14.993 3.518-27.146 7.857-27.146 4.338 0 7.856 12.153 7.856 27.146"/>
        </g>
        <g transform="rotate(-23 110.891 35.358) translate(59 43.288)">
            <mask id="prefix__l" fill="#fff">
                <use xlink:href="#prefix__k"/>
            </mask>
            <path fill="#FFBC00" d="M26.3 5.774c-5.208-1.058-9.536 2.298-14.64 3.06-4.024.602-9.084-1.246-12.593.99-.373.238-.725.754-.644 1.222.909 5.255 7.68 7.54 12.44 7.795 6.296.335 14.567-1.465 18.284-6.764 1.626-2.32-.323-5.79-2.846-6.303" mask="url(#prefix__l)"/>
            <g>
                <mask id="prefix__n" fill="#fff">
                    <use xlink:href="#prefix__m"/>
                </mask>
                <path fill="#FFBC00" d="M27.933 27.354c-.772-1.76-1.523-3.068-3.27-3.975-1.993-1.035-4.985-1.257-6.867.217-7.7 6.025-14.971 4.694-24.071 4.703-.846.001-1.515.806-1.49 1.62.22 6.814 7.23 9.937 13.234 10.748 7.71 1.041 15.067-1.622 20.914-6.598 1.657-1.41 2.425-4.719 1.55-6.715" mask="url(#prefix__n)"/>
            </g>
        </g>
        <g>
            <path fill="#FFD01F" d="M29.112 13.556c0 7.349-5.958 13.307-13.307 13.307S2.498 20.905 2.498 13.556C2.498 6.206 8.456.249 15.805.249s13.307 5.957 13.307 13.307" transform="rotate(-23 110.891 35.358) translate(52 27.288)"/>
            <path fill="#FFF" d="M12.739 10.761c0 3.454-2.8 6.254-6.254 6.254-3.454 0-6.254-2.8-6.254-6.254 0-3.454 2.8-6.254 6.254-6.254 3.454 0 6.254 2.8 6.254 6.254" transform="rotate(-23 110.891 35.358) translate(52 27.288)"/>
            <path fill="#1D262D" d="M6.503 7.872c-3.906 0-3.654 6.07.256 6.07 3.906 0 3.654-6.07-.256-6.07" transform="rotate(-23 110.891 35.358) translate(52 27.288)"/>
            <path fill="#FFF" d="M5.143 12.162c-1.005 0-.94 1.562.066 1.562s.94-1.562-.066-1.562M6.586 7.526c-1.357 0-1.269 2.108.09 2.108 1.355 0 1.268-2.108-.09-2.108M18.87 10.761c0 3.454 2.8 6.254 6.255 6.254 3.454 0 6.254-2.8 6.254-6.254 0-3.454-2.8-6.254-6.254-6.254-3.454 0-6.254 2.8-6.254 6.254" transform="rotate(-23 110.891 35.358) translate(52 27.288)"/>
            <path fill="#1D262D" d="M25.108 7.872c3.906 0 3.654 6.07-.256 6.07-3.906 0-3.654-6.07.256-6.07" transform="rotate(-23 110.891 35.358) translate(52 27.288)"/>
            <path fill="#FFF" d="M26.467 12.162c1.006 0 .941 1.562-.066 1.562-1.006 0-.941-1.562.066-1.562M25.024 7.526c1.356 0 1.27 2.108-.089 2.108-1.356 0-1.269-2.108.09-2.108" transform="rotate(-23 110.891 35.358) translate(52 27.288)"/>
            <path fill="#272D2D" d="M12.19 18.143c.448 1.519 1.8 2.667 3.376 2.84 1.56.174 3.147-.72 3.872-2.097.239-.455-.45-.86-.69-.404-.586 1.116-1.821 1.828-3.088 1.713-1.254-.114-2.348-1.071-2.7-2.264-.144-.492-.915-.283-.77.212" transform="rotate(-23 110.891 35.358) translate(52 27.288)"/>
        </g>
    </g>
</svg>
