<svg xmlns="http://www.w3.org/2000/svg" xmlns:xlink="http://www.w3.org/1999/xlink" width="119" height="109" viewBox="0 0 119 109">
    <defs>
        <path id="prefix__a" d="M0.001 0.514L84.073 0.514 84.073 86.599 0.001 86.599z"/>
        <path id="prefix__c" d="M0.059 0.514L69.764 0.514 69.764 86.591 0.059 86.591z"/>
        <path id="prefix__e" d="M1.105 1.303C-2.449 5.488 6.317 18.905 20.69 31.27c14.373 12.363 27.042 21.19 32.462 14.81 5.421-6.38-5.212-17.602-19.585-29.966C22.116 6.26 10.561.05 4.54.05c-1.535 0-2.71.403-3.434 1.253"/>
        <path id="prefix__g" d="M1.105 1.303C-2.449 5.488 6.317 18.905 20.69 31.27c14.373 12.363 27.042 21.19 32.462 14.81 5.421-6.38-5.212-17.602-19.585-29.966C22.116 6.26 10.561.05 4.54.05c-1.535 0-2.71.403-3.434 1.253"/>
        <path id="prefix__i" d="M0 0.527L33.898 0.527 33.898 34.633 0 34.633z"/>
    </defs>
    <g fill="none" fill-rule="evenodd">
        <g>
            <path fill="#AEE4D7" d="M40.82 74.388s56.378-10.381 59.666 17.923c3.286 28.305-41.252 4.722-41.252 4.722L40.82 74.388z" transform="rotate(10 76.163 46.674) translate(4.053 .386)"/>
            <path fill="#96BA78" d="M87.08 96.787c4.967-4.93 5.941-11.132 5.46-17.543 4.285 2.981 7.263 7.188 7.946 13.067 2.137 18.398-15.929 14.874-28.84 10.153 5.64.03 11.342-1.62 15.433-5.677" transform="rotate(10 76.163 46.674) translate(4.053 .386)"/>
            <g transform="rotate(10 76.163 46.674) translate(4.053 .386) translate(32.967)">
                <mask id="prefix__b" fill="#fff">
                    <use xlink:href="#prefix__a"/>
                </mask>
                <path fill="#F90" d="M.017 65.027S-1.685 10.04 29.35 1.567C61.287-7.15 84.442 40.406 84.068 63.654c-.666 41.377-73.935 14.163-73.935 14.163L.017 65.027z" mask="url(#prefix__b)"/>
            </g>
            <g transform="rotate(10 76.163 46.674) translate(4.053 .386) translate(47.276)">
                <mask id="prefix__d" fill="#fff">
                    <use xlink:href="#prefix__c"/>
                </mask>
                <path fill="#E05E05" d="M15.042 1.568C8.826 3.264 3.926 6.83.059 11.444c8.733-6.337 19.628-8.605 29.92-2.27 9.404 5.789 12.874 15.102 12.202 24.606 11.557 3.352 17.394 14.867 16.449 27.159-.861 11.194-7.57 20.831-17.547 25.652 15.18-.23 28.395-5.475 28.677-22.938.373-23.248-22.782-70.803-54.718-62.085" mask="url(#prefix__d)"/>
            </g>
            <path fill="#E05E05" d="M32.984 65.027s4.581-42.06 24.542-44.437c19.96-2.378 18.364 24.57 18.364 24.57s17.566 1.586 15.968 19.816c-1.596 18.23-45.51 16.643-45.51 16.643L32.984 65.027z" transform="rotate(10 76.163 46.674) translate(4.053 .386)"/>
            <path fill="#FFD01F" d="M9.609 44.359c-2.167-4.537-3.68-9.367-4.528-14.316-.414-2.409-.707-4.897-.697-7.344.003-.812-.005-1.976.688-2.55.134-.127.292-.215.47-.266.12.003.104-.02-.045-.07.043.047.061.1.058.163-.025-.137-.012-.27.04-.4-1.903 1.805.986 4.667 2.886 2.864 2.52-2.39.42-6.615-2.903-6.605-4.161.012-5.38 4.42-5.252 7.756.304 7.912 2.35 15.67 5.76 22.812 1.124 2.354 4.644.301 3.523-2.044" transform="rotate(10 76.163 46.674) translate(4.053 .386)"/>
            <path fill="#FFD01F" d="M13.756 45.388c1.197-4.626 2.787-9.148 4.839-13.471 1-2.107 2.094-4.168 3.281-6.177.575-.973 1.122-2.056 1.842-2.929.08-.094.598-.46.618-.538.029-.113-.864-1.021-.157-1.327-1.01.436-1.242 1.907-.731 2.771.61 1.036 1.776 1.165 2.791.727 1.39-.6 1.962-2.294 1.627-3.69-.373-1.563-1.914-2.548-3.483-2.544-3.478.01-5.24 4.071-6.688 6.62-3.472 6.11-6.117 12.69-7.873 19.481-.654 2.527 3.28 3.604 3.934 1.077M47.812 74.92c14.561 12.359 25.333 23.573 19.84 29.95-5.491 6.377-18.325-2.444-32.887-14.802-14.56-12.356-23.443-25.766-19.84-29.95 3.603-4.182 18.327 2.445 32.887 14.802" transform="rotate(10 76.163 46.674) translate(4.053 .386)"/>
        </g>
        <g transform="rotate(10 76.163 46.674) translate(18.895 58.724)">
            <mask id="prefix__f" fill="#fff">
                <use xlink:href="#prefix__e"/>
            </mask>
            <path fill="#FFBC00" d="M20.263-11.429C14.978-7.276 14.649-.336 11.198 5.216c-2.724 4.38-8.642 7.735-9.375 12.965-.076.555.13 1.32.643 1.628 5.785 3.457 13.527-1.19 17.671-5.57 5.48-5.796 10.533-15.26 8.5-23.215-.891-3.482-5.815-4.464-8.374-2.453" mask="url(#prefix__f)"/>
            <g>
                <mask id="prefix__h" fill="#fff">
                    <use xlink:href="#prefix__g"/>
                </mask>
                <path fill="#FFBC00" d="M42.287 4.794c-2.32-.707-4.188-1.06-6.49-.123-2.626 1.068-5.291 3.77-5.421 6.801-.533 12.396-7.77 18.313-15.22 27.099-.692.817-.469 2.125.333 2.771 6.712 5.41 15.45 1.223 21.15-3.9 7.316-6.578 10.793-15.872 10.814-25.614.007-2.763-2.536-6.232-5.166-7.034" mask="url(#prefix__h)"/>
            </g>
        </g>
        <g>
            <g transform="rotate(10 76.163 46.674) translate(.844 34.991) translate(0 3.603)">
                <mask id="prefix__j" fill="#fff">
                    <use xlink:href="#prefix__i"/>
                </mask>
                <path fill="#FFD01F" d="M33.867 16.568c.555 9.401-6.57 17.475-15.913 18.034C8.61 35.16.586 27.992.03 18.592-.526 9.192 6.599 1.117 15.943.558c9.345-.559 17.368 6.61 17.924 16.01" mask="url(#prefix__j)"/>
            </g>
            <path fill="#FFF" d="M19.093 17.8c2.246 3.807.997 8.724-2.786 10.982-3.784 2.259-8.672 1.003-10.916-2.804-2.243-3.806-.997-8.724 2.787-10.982 3.785-2.258 8.67-1.001 10.915 2.805" transform="rotate(10 76.163 46.674) translate(.844 34.991)"/>
            <path fill="#FFF" d="M11.682 24.31c-1.102.657-.015 2.337 1.088 1.68 1.102-.658.015-2.338-1.088-1.68M10.25 18.257c-1.485.888-.02 3.153 1.468 2.265 1.486-.887.02-3.152-1.467-2.265" transform="rotate(10 76.163 46.674) translate(.844 34.991)"/>
            <path fill="#272D2D" d="M16.476 23.083c-.43-1.826-2.075-3.23-3.935-3.359-1.91-.132-3.711 1.178-4.34 2.96-.206.582.716.834.92.255.493-1.398 1.95-2.358 3.42-2.256 1.446.1 2.687 1.262 3.016 2.654.142.6 1.061.346.919-.254" transform="rotate(10 76.163 46.674) translate(.844 34.991)"/>
            <path fill="#FFD01F" d="M65.142.253c-9.899 0-9.26 15.473.649 15.473 9.898 0 9.26-15.473-.649-15.473M58.045 21.018c-7.92 0-7.409 12.378.518 12.378 7.918 0 7.409-12.378-.518-12.378M76.34 20.807c-8.188 0-7.66 12.8.536 12.8 8.19 0 7.66-12.8-.536-12.8" transform="rotate(10 76.163 46.674) translate(.844 34.991)"/>
        </g>
    </g>
</svg>
