<svg xmlns="http://www.w3.org/2000/svg" xmlns:xlink="http://www.w3.org/1999/xlink" width="204" height="260" viewBox="0 0 204 260">
    <defs>
        <path id="wn0vpb63xa" d="M0.319 0.565L25.698 0.565 25.698 125.913 0.319 125.913z"/>
        <path id="9n4koccipc" d="M0.636 0.185L44.259 0.185 44.259 79.208 0.636 79.208z"/>
        <path id="k6aeb8mdbe" d="M0 0.426L45.576 0.426 45.576 57 0 57z"/>
    </defs>
    <g fill="none" fill-rule="evenodd">
        <path fill="#E3BD96" d="M60.047 128.629c.093-2.15-1.698-4.05-3.971-4.07l-21.71-.184c-2.274-.019-4.218 1.598-4.312 3.748-.093 2.15 1.693 3.975 3.971 4.068l21.71.184c2.281.021 4.218-1.597 4.312-3.746" transform="rotate(-20 128.983 46.548)"/>
        <path fill="#E3BD96" d="M56.222 137.292c.46-2.253-1.003-4.545-3.268-4.93l-21.624-3.68c-2.265-.385-4.48 1.01-4.94 3.263-.458 2.254 1.012 4.467 3.27 4.93l21.623 3.68c2.272.386 4.48-1.009 4.94-3.263" transform="rotate(-20 128.983 46.548)"/>
        <path fill="#E3BD96" d="M26.018 158.12L19.924 132.569 36.643 120.12 49.924 122.092 39.268 154.391z" transform="rotate(-20 128.983 46.548)"/>
        <path fill="#E3BD96" d="M51.746 144.802c1.048-1.964.268-4.463-1.793-5.409l-19.68-9.03c-2.061-.947-4.556-.234-5.604 1.73s-.24 4.392 1.793 5.409l19.68 9.03c2.068.949 4.555.234 5.604-1.73" transform="rotate(-20 128.983 46.548)"/>
        <path fill="#EECBA5" d="M25.698 150.732c-5.872 6.179.357 17.929 6.19 19.827 5.833 1.898 12.246-3.047 15.362-11.036 3.116-7.989-1.148-15.448-4.243-16.365-3.092-.917-11.435 1.395-17.309 7.574" transform="rotate(-20 128.983 46.548)"/>
        <path fill="#EECBA5" d="M26.908 162.217c2.306-.14 4.538-2.146 3.924-4.271l-7.504-25.952c-.615-2.127-2.154-3.901-4.46-3.76-2.306.14-4.067 2.062-3.924 4.272l7.504 25.952c.617 2.134 2.154 3.9 4.46 3.76" transform="rotate(-20 128.983 46.548)"/>
        <path fill="#EECBA5" d="M35.702 118.716c-1.487-1.596-3.99-1.654-5.626-.217l-13.01 11.115c-1.655 1.415-1.708 3.993-.22 5.59 1.487 1.598 4.014 1.692 5.626.218l13.01-11.117c1.66-1.419 1.707-3.992.22-5.589" transform="rotate(-20 128.983 46.548)"/>
        <path fill="#EECBA5" d="M58.507 117.363c-.152-2.18-2.155-3.913-4.427-3.699l-21.681 2.05c-2.272.213-4.026 2.047-3.874 4.226.152 2.18 2.142 3.838 4.427 3.698l21.682-2.049c2.277-.215 4.025-2.046 3.873-4.226M27.46 130.347c.456 3.713 2.998 19.617 10.745 14.28 7.748-5.34-2.78 16.72-2.78 16.72l-12.728-8.706s-5.945-14.484 4.763-22.294" transform="rotate(-20 128.983 46.548)"/>
        <path stroke="#EECBA5" stroke-width=".216" d="M27.46 130.347c.456 3.713 2.998 19.617 10.745 14.28 7.748-5.34-2.78 16.72-2.78 16.72l-12.728-8.706s-5.945-14.484 4.763-22.294z" transform="rotate(-20 128.983 46.548)"/>
        <path fill="#EECBA5" d="M45.98 161.224L38.403 195.173 24.498 196.654 17.98 181.681 23.35 157.654z" transform="rotate(-20 128.983 46.548)"/>
        <path fill="#DD992C" d="M74.372 2.994L5.372 11.086 5.372 133.994 74.372 125.902z" transform="rotate(-20 128.983 46.548)"/>
        <path fill="#DD992C" d="M91.631 4.031L26.631 13.527 26.631 136.031 91.631 126.536z" transform="rotate(-20 128.983 46.548)"/>
        <g transform="rotate(-20 128.983 46.548) translate(74.385 .108)">
            <mask id="yll8aa718b" fill="#fff">
                <use xlink:href="#wn0vpb63xa"/>
            </mask>
            <path fill="#CD8B25" d="M.32 125.913V3.406C2.68 1.72 7.475.565 13.007.565c5.533 0 10.328 1.155 12.69 2.842v122.506c-2.362-1.686-7.157-2.84-12.69-2.84-5.532 0-10.327 1.154-12.689 2.84" mask="url(#yll8aa718b)"/>
        </g>
        <path fill="#DD992C" d="M99.483 3.365L168.483 11.457 168.483 134.365 99.483 126.271z" transform="rotate(-20 128.983 46.548)"/>
        <path fill="#FFF" d="M86.367 5.363v123.072l-55.41 15.192c-6.535-1.872-12.782-4.155-18.59-7.071V13.482L74.19 3.627c2.684 1.09 7.403 1.668 12.177 1.736" transform="rotate(-20 128.983 46.548)"/>
        <path fill="#E0DDDD" d="M13.355 12.91c4.868.09 15.932 6.186 19 7.302l-.636 122.699c-6.456-1.87-12.627-4.15-18.364-7.063V12.91z" transform="rotate(-20 128.983 46.548)"/>
        <path fill="#FFF" d="M74.135 3.513l-61.823 9.898c5.582 2.766 11.844 5.132 18.59 7.102l55.41-15.257c-4.773-.068-9.493-.646-12.176-1.743h-.001z" transform="rotate(-20 128.983 46.548)"/>
        <path fill="#F1F1F1" d="M86.561 5.154V127.99l-55 15.163.64-122.601c-.202-.083-.416-.161-.64-.238l55-15.161z" transform="rotate(-20 128.983 46.548)"/>
        <path fill="#FFF" d="M98.56 3.719l61.823 9.839v122.875c-.95 1.112-3.396 2.545-7.371 3.286l-66.629-11.392V5.451c4.773-.067 9.494-.642 12.175-1.732h.001z" transform="rotate(-20 128.983 46.548)"/>
        <path fill="#FFF" d="M97.41 3.329l61.823 10.268c-2.596 1.333-5.337 2.577-8.205 3.732L85.233 5.137c4.772-.07 9.493-.67 12.175-1.808h.001z" transform="rotate(-20 128.983 46.548)"/>
        <path fill="#F1F1F1" d="M86.019 5.486v122.581l65 11.419-.63-122.345c.198-.082.41-.162.63-.238l-65-11.417z" transform="rotate(-20 128.983 46.548)"/>
        <path fill="#FFF" d="M86.44 4.883v123.033l59 15.967-.638-122.795c.2-.082.414-.162.638-.24l-59-15.965z" transform="rotate(-20 128.983 46.548)"/>
        <path fill="#BD485E" d="M70.264 10.366L78.175 7.872 68.99 4.366 59.175 6.134z" transform="rotate(-20 128.983 46.548)"/>
        <path fill="#E0DDDD" d="M160.294 13.396c-2.924 1.407-4.972 2.457-8 3.57l.628 122.43c3.03-.469 5.451-1.328 7.372-3.333V13.396zM96.203 20.535L96.203 26.219 137.203 37.535 137.203 31.852zM96.129 31.287L96.129 34.296 118.129 40.287 118.129 37.278zM96.508 37.6L96.508 40.609 118.508 46.6 118.508 43.592zM96.18 42.689L96.18 45.698 118.18 51.689 118.18 48.679zM96.3 49.968L96.3 52.978 118.3 58.968 118.3 55.959zM95.972 55.056L95.972 58.065 117.972 64.056 117.972 61.048zM96.351 61.37L96.351 64.379 118.351 70.37 118.351 67.361zM120.378 38.376L120.378 71.397 135.378 75.376 135.378 42.355zM95.846 83.567L95.846 116.588 110.846 120.567 110.846 87.545zM95.56 73.162L95.56 78.845 136.56 90.162 136.56 84.479zM113.839 88.832L113.839 91.841 135.839 97.832 135.839 94.823zM114.218 95.145L114.218 98.154 136.218 104.145 136.218 101.136zM114.856 100.492L114.856 103.501 136.856 109.492 136.856 106.483zM114.269 106.547L114.269 109.556 136.269 115.547 136.269 112.537zM114.648 112.86L114.648 115.869 136.648 121.86 136.648 118.851zM114.061 118.914L114.061 121.923 136.061 127.914 136.061 124.905z" transform="rotate(-20 128.983 46.548)"/>
        <path fill="#D7D2D2" d="M39.195 32.595L39.195 37.789 80.195 25.984 80.195 20.789zM39.629 43.816L39.629 46.871 61.629 39.926 61.629 36.871zM38.076 49.611L38.076 52.667 60.076 45.722 60.076 42.667zM38.455 55.924L38.455 58.98 60.455 52.035 60.455 48.98zM39.093 61.272L39.093 64.327 61.093 57.383 61.093 54.327zM39.213 68.551L39.213 71.606 61.213 64.662 61.213 61.606zM38.885 73.639L38.885 76.695 60.885 69.75 60.885 66.695zM64.086 36.187L64.086 69.593 79.086 64.999 79.086 31.593zM38.57 96.642L38.57 130.048 53.57 125.454 53.57 92.048zM38.552 85.221L38.552 90.416 79.552 78.61 79.552 73.416zM57.029 90.925L57.029 93.98 79.029 87.035 79.029 83.98zM56.443 96.979L56.443 100.034 78.443 93.09 78.443 90.034zM57.08 102.326L57.08 105.382 79.08 98.437 79.08 95.382zM57.2 109.605L57.2 112.661 79.2 105.716 79.2 102.661zM56.872 114.694L56.872 117.749 78.872 110.804 78.872 107.749zM56.026 121.714L56.026 124.77 78.026 117.825 78.026 114.77z" transform="rotate(-20 128.983 46.548)"/>
        <path fill="#AD3D52" d="M70.815 9.528L78.815 7.294 78.815 25.059 74.814 22.81 70.815 27.294z" transform="rotate(-20 128.983 46.548)"/>
        <path fill="#EECBA5" d="M40.43 151.634c2.268 1.174 5.228.312 6.214-2.074l8.904-21.556c.985-2.386.236-5.168-2.031-6.342-2.269-1.174-5.058-.239-6.213 2.073l-8.905 21.558c-.988 2.392-.236 5.167 2.031 6.341M158.575 134.093L135.586 136.97 139.597 169.093 162.586 166.215z" transform="rotate(-20 128.983 46.548)"/>
        <path fill="#EECBA5" d="M131.586 114.263c.392 2.722.799 6.035 1.313 9.946l-9.247-10.95c-3.912-4.633-8.404-1.645-9.972.868l18.826 25.974c2.623 3.621 9.257 4.763 15.437 4.168 12.775-1.229 19.518-10.447 17.573-27.86l1.148-13.696c.436-5.78-7.772-6.332-8.165-.495l-.386 5.745c-.266-.265-.656-.511-1.024-.719l-.427-11.345c-.16-5.856-8.273-4.9-8.18.022l.179 9.417c-.244-.024-.73.027-.907.043l-1.21-11.91c-.547-5.372-8.695-4.477-8.135.856l1.41 13.798c-.345.235-.68.482-1.005.743l-5.682-27.236c-1.081-5.183-9.129-3.716-8.002 1.687l6.456 30.944z" transform="rotate(-20 128.983 46.548)"/>
        <g transform="rotate(-20 128.983 46.548) translate(131.697 146.609)">
            <mask id="o4vsw32a9d" fill="#fff">
                <use xlink:href="#9n4koccipc"/>
            </mask>
            <path fill="#97D6D9" d="M9.954 79.208L0.636 4.423 34.413 0.185 44.259 79.208z" mask="url(#o4vsw32a9d)"/>
        </g>
        <g transform="rotate(-20 128.983 46.548) translate(.388 169.128)">
            <mask id="jjws9hol7f" fill="#fff">
                <use xlink:href="#k6aeb8mdbe"/>
            </mask>
            <path fill="#97D6D9" d="M34.399 57L45.576 7.573 12.138 0.426 0 57z" mask="url(#jjws9hol7f)"/>
        </g>
        <path fill="#FFF" d="M134.576 150.875L133.931 145.616 163.287 141.875 163.931 147.133zM44.836 175.116L45.894 170.08 16.952 164.116 15.894 169.152z" transform="rotate(-20 128.983 46.548)"/>
    </g>
</svg>
