<svg xmlns="http://www.w3.org/2000/svg" xmlns:xlink="http://www.w3.org/1999/xlink" width="208" height="236" viewBox="0 0 208 236">
    <defs>
        <path id="tkschdq92a" d="M0 0.01L36.927 0.01 36.927 106.517 0 106.517z"/>
        <path id="kz5g9g4d9c" d="M94.345 3.137c-12.48 4.1-23.07 12.466-35.282 17.276-18.155 7.149-39.585 5.722-56.594-3.774C.363 19.791-.241 23.876.873 27.484c.256.837.635 1.69 1.359 2.197.66.46 1.503.562 2.304.67 9.997 1.337 19.529 5.873 26.801 12.752 2.517 2.383 4.582 4.989 7.346 7.115 2.704 2.078 5.574 3.937 8.579 5.567 6.206 3.367 13.007 5.597 19.863 7.187 2.396.555 4.979.78 7.625.783h.048c5.45-.003 11.164-.961 16.037-1.977 12.254-2.55 23.808-7.812 34.41-14.378 6.6-4.084 12.916-8.729 18.105-14.456 4.437-4.903 7.989-10.508 12.455-15.393 1.171-1.282 5.99-4.419 5.452-6.04-.613-1.852-3.994-2.13-5.54-2.686-2.888-1.04-5.797-2.036-8.725-2.966-5.85-1.85-11.801-3.42-17.857-4.45C124.285.583 119.343.11 114.416.11c-6.822 0-13.612.904-20.071 3.026"/>
    </defs>
    <g fill="none" fill-rule="evenodd">
        <path fill="#F2703D" d="M186.376 190.456c-10.562 6.643-22.077 11.964-34.284 14.545-7.23 1.528-16.308 2.927-23.625 1.208-6.832-1.609-13.611-3.865-19.795-7.271-2.99-1.648-5.85-3.532-8.544-5.63-2.755-2.152-4.812-4.79-7.32-7.199-7.246-6.96-16.743-11.545-26.705-12.902-.798-.107-1.64-.21-2.298-.676-.72-.513-1.097-1.376-1.351-2.222-1.11-3.653-.512-7.782 1.59-10.97 16.948 9.605 38.298 11.049 56.39 3.817 12.168-4.866 22.72-13.332 35.155-17.477 11.084-3.697 23.145-3.742 34.665-1.75 6.034 1.045 11.963 2.633 17.79 4.504 2.92.938 5.816 1.95 8.697 3 1.542.563 4.906.844 5.52 2.717.535 1.643-4.266 4.813-5.436 6.11-4.445 4.94-7.986 10.612-12.41 15.57-5.168 5.796-11.462 10.491-18.039 14.626" transform="rotate(17 36.635 130.699)"/>
        <path fill="#FF8D59" d="M58.747 132.97c-.577 2.228-.863 4.444-.194 6.383.71 2.057 2.227 3.771 4.011 5.023 2.448 1.725 5.433 2.676 7.614 4.733 5.436 5.122 5.39 15.05 2.232 21.205-1.152 2.246-2.67 4.3-4.5 6.045-.734.697-2.528 1.711-2.232 2.922.373 1.51 2.21.878 3.138.51 2.67-1.058 5.77-.992 8.395.174 1.488.66 2.868 1.713 3.579 3.178.713 1.467.622 3.378-.49 4.57-1.315 1.407-3.503 1.433-5.426 1.328-18.703-1.032-37.55-5.183-55.989-1.873-3.298.592-5.919 1.03-9.272 1.037-3.35.008-10.082-1.726-8.786-6.762.386-1.497 1.81-3.847 4.754-4.028 1.52-.091 3.686.189 5.048.899 1.262.66 4.056 2.487 2.558-.404-1.17-2.258-2.941-4.27-4.156-6.548-2.385-4.47-4.116-9.291-5.105-14.259-.478-2.41-.785-4.895-.423-7.326.362-2.432 1.456-4.827 3.371-6.37 1.687-1.36 3.844-1.955 5.798-2.893 1.955-.938 3.878-2.476 4.193-4.62.225-1.516-.404-3.015-1.02-4.42-1.147-2.623-2.296-5.245-3.443-7.87-2.408-5.503-4.83-11.048-6.191-16.896-1.362-5.851-3.93-14.173.454-18.284 2.408-2.26 4.921-4.69 5.769-7.877.776-2.916 1.828-34.137.76-36.57-1.322-3.022-4.971-4.762-5.847-7.94-1.847-6.698.905-12.197-1.425-14.524-2.755-2.751-3.801-9.567-3.55-13.56.045-.755.163-2.757 1.021-3.102 1.582-.634 2.828 3.178 3.298 4.127 1.39 2.79 3.61 5.057 5.756 7.29.517.539 1.054 1.094 1.75 1.377 1.723.705 3.594-.487 5.076-1.619-1.196-2.804-2.4-5.652-2.807-8.67-.435-3.257.344-10.943 3.917-5.288 1.632 2.58 2.422 5.623 4.203 8.117 1.695 2.37 4.426 4.31 7.041 5.537 3.875 1.813 7.897 3.079 11.859 4.648 1.406.558 2.503 1.533 3.896 2.125 2.127.91 4.368 1.599 6.556 2.346 2.277.775 4.557 1.55 6.863 2.23 4.767 1.406 9.642 2.394 14.54 3.217 4.67.789 9.36 1.834 14.083 1.876 3.783.037 7.566.07 11.35.102 1.804.019 3.646.14 5.438-.015.866-.076 2.27-.655 1.582 1.042-3.516 8.69-11.187 15.591-20.204 18.175-2.637.757-5.363 1.158-8.083 1.517-5.336.705-10.843 1.234-16.04-.158-3.361-.904-6.51-2.588-9.949-3.102-.312-.047-.64-.081-.931.04-.62.259-.766 1.058-.816 1.729-.192 2.363.837 26.069 1.026 27.963.152 1.494.522 2.964 1.102 4.35 1.133 2.717 3.025 5.052 4.302 7.703 1.288 2.668 1.496 5.4 2.251 8.199.653 2.416 1.204 4.54 1.412 7.104.511 6.288.296 12.66-.963 18.855-.446 2.183-1.493 4.75-2.154 7.303" transform="rotate(17 36.635 130.699)"/>
        <g transform="rotate(17 36.635 130.699) translate(0 84.848)">
            <mask id="esrefa7yib" fill="#fff">
                <use xlink:href="#tkschdq92a"/>
            </mask>
            <path fill="#FFB15C" d="M33.558 72.246c-.393-1.91-.79-3.828-1.485-5.65-.448-1.165-1.015-2.281-1.508-3.427-2.146-4.97-4.55-9.464-5.911-14.804-1.721-6.768-3.316-13.568-4.911-20.365-1.53-6.532-3.185-13.04-4.502-19.58-.43-2.134-.968-4.29-2.251-6.09-2.432-3.407-5.672-2.81-8.317.15C1.719 5.788 1.029 10.475.465 14.872c-.228 1.782-.577 3.396-.43 5.185.506 6.1 2.172 12.103 4.877 17.595 3.94 7.992 10.014 14.826 13.587 22.985 1.453 3.32 2.474 6.816 3.377 10.327 2.001 7.758 3.47 15.653 4.394 23.61.113.976-.21 1.877-.895 2.58-.682.704-1.597 1.123-2.487 1.54-.553.26-1.125.537-1.511 1.011-.36.448-.52 1.033-.535 1.607-.029 1.223.598 2.439 1.613 3.123 1.016.681 2.382.807 3.503.32.577 1.483 2.568 2.214 3.972 1.462.459-.247.85-.621 1.34-.797.74-.262 1.548-.034 2.322.092 2.45.4 2.92-1.787 2.834-3.77-.097-2.28.506-4.481.5-6.724-.007-2.361-.38-4.91-.653-7.272-.603-5.216-1.66-10.365-2.715-15.501" mask="url(#esrefa7yib)"/>
        </g>
        <path fill="#FFB15C" d="M39.915 189.378c-.281-.344-.48-.765-.633-1.169-.516-1.357-.396-3.058-.241-4.43.62-5.5 1.238-11.003 1.857-16.503.499-4.45.696-9.588 2.199-13.796 1.752-4.9 3.481-9.81 4.434-14.94 1.167-6.273 1.196-12.682 2.143-18.982.806-5.34.832-11.974 2-17.236 1.06-4.779 1.563-7.994 2.88-12.802.708-2.592 3.704-3.587 5.753-1.077 2.422 2.966 3.765 6.695 4.413 10.468.661 3.841.84 7.756.611 11.644-.23 3.891-1.513 7.701-1.718 11.54-.21 3.96-.834 7.89-1.734 11.752-.465 1.994-1.008 3.972-1.603 5.93-.278.906-.499 1.889-.955 2.717-.346.634-1.055.749-.871 1.69-5.452 9.702-7.45 20.631-8.655 31.692-.265 2.413-.454 5.004.75 7.111.559.977 1.388 1.787 1.86 2.809.47 1.02.449 2.424-.475 3.066-.692.48-1.713.421-2.442.757-1.015.464-1.393 1.132-2.702 1.043-1.241-.084-2.301-1.145-3.385-1.19-.973-.04-1.605.928-2.66.527-.336-.129-.606-.349-.826-.621" transform="rotate(17 36.635 130.699)"/>
        <path fill="#EDE8D9" d="M27.04 81.758c4.024-3.406 10.588-2.015 14.255 1.774 3.665 3.789 5.02 9.231 5.646 14.461 1.538 12.782-.48 25.959-5.695 37.721-1.693 3.815-3.484 9.816-7.509 4.874-2.078-2.555-2.844-6.242-3.938-9.281-2.7-7.497-6.092-14.867-7.057-22.778-.601-4.923-.239-9.905.126-14.854.315-4.316.865-9.119 4.171-11.917" transform="rotate(17 36.635 130.699)"/>
        <g transform="rotate(17 36.635 130.699) translate(61 143)">
            <mask id="c6ljufpv1d" fill="#fff">
                <use xlink:href="#kz5g9g4d9c"/>
            </mask>
            <path fill="#EDE8D9" d="M135.506 36.018c-.73 5.17-3.376 10.522-4.205 15.531 7.896-1.34 14.426-6.613 20.553-11.695 4.266-3.54 8.59-7.138 11.728-11.679 3.14-4.538 5.005-10.213 3.791-15.572C165.73 5.356 159 .349 152.226-2.923c-3.718-1.795-7.623-3.279-11.704-3.968-5.72-.966-11.58-.344-17.349.28l-13.82 1.492c2.111 1.404 4.92.65 7.448.329 2.849-.363 6.64.596 6.309 3.88-.087.883-.511 1.696-1.096 2.372-4.154 4.798-10.197 9.51-10.195 15.953 5.859-2.3 12.489-2.66 18.568-1.01.593 2.378-1.382 4.536-2.993 6.4-3.505 4.065-8.45 12.219-6.975 14.252 1.643 2.269 7.751-3.52 11.92-4.134 1.843-.272 3.422 1.28 3.167 3.095" mask="url(#c6ljufpv1d)"/>
        </g>
        <g>
            <path fill="#FFF" d="M3.621 14.117c4.6 0 4.6-7.018 0-7.018s-4.6 7.018 0 7.018M13.343 7.523c1.977 0 3.626-1.623 3.626-3.567 0-1.945-1.65-3.57-3.626-3.57s-3.625 1.625-3.625 3.57c0 1.944 1.649 3.567 3.625 3.567" transform="rotate(17 36.635 130.699) translate(22 20)"/>
            <path fill="#35302F" d="M3.621 12.822c1.812 0 1.812-2.764 0-2.764-1.811 0-1.811 2.764 0 2.764M12.167 4.02c-.02.031-.039.062-.055.093l.333-.332c-.563.26-.736.86-.772 1.422-.042.67.602 1.228 1.248 1.228.647 0 1.29-.559 1.246-1.228-.036-.562-.209-1.162-.774-1.422.115.11.225.221.337.332l-.055-.093c-.34-.556-1.17-.556-1.508 0M76.04 18.72c3.558 2.544 9.365-1.162 12.294-3.217-2.264-2.887-4.526-5.771-6.793-8.658.128-.121.259-.242.387-.36-2.785 1.248-3.442 5.16-2.015 7.56 1.63 2.74 4.934 3.305 7.685 1.983.712-.342 1.31-.842 1.87-1.385 1.79-1.738 2.143-4.556.876-6.683-1.408-2.367-5.22-3.791-7.667-1.978-1.751 1.298-3.626 2.428-5.4 3.696-3.123 2.227-5 6.353-1.236 9.042M48.003 23.106c.257.018-.3-.178-.4-.183-.23-.005-.445.034-.652.131-.474.222-.783.593-1.016 1.046-.576 1.113-.597 2.39-.343 3.59.618 2.905 4.7 4.602 6.77 1.95.327-.42-.134-.904-.555-.948-.969-.095-2.04.417-2.99.01-.657-.28-1-.917-1.199-1.56-.201-.657-.212-1.41-.068-2.081.066-.302.207-.536.328-.814.023-.062.125-.168.175-.235.262-.355.204-.134-.05-.115.519-.034.516-.755 0-.791" transform="rotate(17 36.635 130.699) translate(22 20)"/>
        </g>
    </g>
</svg>
