<svg xmlns="http://www.w3.org/2000/svg" xmlns:xlink="http://www.w3.org/1999/xlink" width="180" height="246" viewBox="0 0 180 246">
    <defs>
        <path id="prefix__a" d="M0.613 0.32L31.857 0.32 31.857 73.87 0.613 73.87z"/>
        <path id="prefix__c" d="M0.568 0.32L31.813 0.32 31.813 73.87 0.568 73.87z"/>
        <path id="prefix__e" d="M0.277 0.25L68.391 0.25 68.391 131.387 0.277 131.387z"/>
        <path id="prefix__g" d="M0.34 0.499L42.456 0.499 42.456 69 0.34 69z"/>
        <path id="prefix__i" d="M0.326 0.499L42.425 0.499 42.425 69 0.326 69z"/>
        <path id="prefix__k" d="M0.637 0.444L1.532 0.444 1.532 2 0.637 2z"/>
        <path id="prefix__m" d="M0.413 0.976L2.776 0.976 2.776 2 0.413 2z"/>
    </defs>
    <g fill="none" fill-rule="evenodd">
        <g transform="rotate(30 64.937 85.6) translate(80.722 .859)">
            <mask id="prefix__b" fill="#fff">
                <use xlink:href="#prefix__a"/>
            </mask>
            <path fill="#F1F1F1" d="M31.857.32L.613 32.998c4.663.095 9.275.899 11.895 2.422v38.45h19.35V.32z" mask="url(#prefix__b)"/>
        </g>
        <path fill="#E0DDDD" d="M123.187 4.323l-42 29.01c4.705.093 9.358.9 12.002 2.428v38.562h29.998v-70z" transform="rotate(30 64.937 85.6)"/>
        <path fill="#FFF" d="M93.222 35.627l60.151-13.974c-5.431-3.904-11.524-7.246-18.087-10.026L81.373 33.166c4.644.095 9.237.913 11.847 2.46h.001z" transform="rotate(30 64.937 85.6)"/>
        <path fill="#F1F1F1" d="M153.378 22.162v52h-60.37V35.853c-.2-.115-.41-.225-.63-.33l61-13.361z" transform="rotate(30 64.937 85.6)"/>
        <path fill="#E0DDDD" d="M80.75 34.086c4.856.124 8.94.866 12 2.43v38.57h-12v-41z" transform="rotate(30 64.937 85.6)"/>
        <g transform="rotate(30 64.937 85.6) translate(49.34 .503)">
            <mask id="prefix__d" fill="#fff">
                <use xlink:href="#prefix__c"/>
            </mask>
            <path fill="#F1F1F1" d="M.568.32l31.245 32.678c-4.664.095-9.276.899-11.896 2.422v38.45H.568V.32z" mask="url(#prefix__d)"/>
        </g>
        <path fill="#E0DDDD" d="M38.644 4.637l42 29.009c-4.706.094-9.36.9-12.004 2.428v38.563H38.644v-70z" transform="rotate(30 64.937 85.6)"/>
        <path fill="#FFF" d="M68.965 35.95L8.813 21.976c5.432-3.904 11.524-7.246 18.088-10.026l53.912 21.539c-4.644.095-9.236.913-11.847 2.46l-.001.001z" transform="rotate(30 64.937 85.6)"/>
        <path fill="#F1F1F1" d="M8.158 22.288v52h60.37V35.98c.199-.115.41-.225.63-.33l-61-13.362z" transform="rotate(30 64.937 85.6)"/>
        <path fill="#E0DDDD" d="M81.09 33.89c-4.857.124-8.94.866-12 2.429V74.89h12v-41z" transform="rotate(30 64.937 85.6)"/>
        <path fill="#BD485E" d="M0.69 24.916L68.69 36.265 68.69 155.916 0.69 144.569z" transform="rotate(30 64.937 85.6)"/>
        <g transform="rotate(30 64.937 85.6) translate(94.021 23.937)">
            <mask id="prefix__f" fill="#fff">
                <use xlink:href="#prefix__e"/>
            </mask>
            <path fill="#BD485E" d="M68.391 0.25L0.277 11.61 0.277 131.387 68.391 120.028z" mask="url(#prefix__f)"/>
        </g>
        <path fill="#9B2F43" d="M69.05 36.58v119.992c2.327 2.379 7.05 4.008 12.5 4.008s10.174-1.63 12.5-4.009V36.581c-2.326 2.38-7.05 4.008-12.5 4.008s-10.174-1.629-12.5-4.009" transform="rotate(30 64.937 85.6)"/>
        <path fill="#EECBA5" d="M40.696 134.525L18.095 131.437 13.696 162.349 36.298 165.437z" transform="rotate(30 64.937 85.6)"/>
        <path fill="#EECBA5" d="M19.96 109.263c-.322 2.646-.78 5.848-1.288 9.638l-5.76-11.906c-2.556-5.283-7.848-4.06-9.68-1.917l11.048 28.594c1.56 4.037 7.46 6.777 13.395 7.769 12.268 2.052 20.914-4.885 23.5-21.665l8.76-24.788c1.872-5.297-5.672-7.872-7.518-2.507l-6.033 17.535c-.18-.314-.483-.643-.776-.929l5.765-23.873c1.33-5.519-6.505-6.658-7.663-2.03l-5.508 22.008c-.223-.084-.69-.159-.859-.188l4.132-25.68c.832-5.166-7.005-6.367-7.83-1.238l-4.426 27.497c-.382.133-.758.28-1.127.444l1.576-26.91c.3-5.121-7.604-5.763-7.917-.426l-1.79 30.572z" transform="rotate(30 64.937 85.6)"/>
        <g transform="rotate(30 64.937 85.6) translate(1.626 146.886)">
            <mask id="prefix__h" fill="#fff">
                <use xlink:href="#prefix__g"/>
            </mask>
            <path fill="#EEBF2F" d="M0.34 69L9.717 0.499 42.456 5.069 33.705 69z" mask="url(#prefix__h)"/>
        </g>
        <path fill="#EECBA5" d="M120.737 133.924L143.339 130.836 147.737 161.748 125.135 164.836z" transform="rotate(30 64.937 85.6)"/>
        <path fill="#EECBA5" d="M141.615 109.199c.322 2.645.78 5.846 1.288 9.637l5.76-11.906c2.556-5.283 7.849-4.06 9.68-1.916l-11.047 28.593c-1.56 4.037-7.46 6.777-13.396 7.769-12.268 2.052-20.915-4.885-23.501-21.665l-8.76-24.787c-1.871-5.297 5.673-7.872 7.518-2.508l6.033 17.535c.181-.313.484-.642.775-.928l-5.762-23.874c-1.332-5.518 6.503-6.658 7.662-2.029l5.508 22.007c.222-.084.69-.158.86-.188l-4.134-25.68c-.83-5.165 7.005-6.367 7.832-1.238l4.424 27.498c.382.132.759.28 1.128.443l-1.576-26.91c-.3-5.12 7.605-5.763 7.918-.425l1.79 30.572z" transform="rotate(30 64.937 85.6)"/>
        <g transform="rotate(30 64.937 85.6) translate(117.229 147.116)">
            <mask id="prefix__j" fill="#fff">
                <use xlink:href="#prefix__i"/>
            </mask>
            <path fill="#EEBF2F" d="M42.425 69L33.065 0.499 0.326 5.07 9.061 69z" mask="url(#prefix__j)"/>
        </g>
        <path fill="#D37C8D" d="M85.48 155.629v-32.805c-1.125.127-2.296.195-3.5.195-1.204 0-2.375-.067-3.5-.195v32.805c1.125.128 2.296.195 3.5.195 1.204 0 2.375-.067 3.5-.195M85.014 118.326V62.518c-1.125.125-2.296.192-3.5.192-1.203 0-2.375-.066-3.5-.192v55.808c1.125.126 2.297.192 3.5.192 1.204 0 2.375-.066 3.5-.192M84.969 57.252V47.44c-1.125.122-2.296.186-3.5.186-1.204 0-2.375-.064-3.5-.186v9.813c1.125.122 2.296.187 3.5.187 1.204 0 2.375-.065 3.5-.187" transform="rotate(30 64.937 85.6)"/>
        <path fill="#FFF" d="M32.429 150.384c-.115.96-.875 1.633-1.7 1.5-.823-.133-1.4-1.02-1.286-1.983l2.986.483zM40.99 151.214c-.115.961-.875 1.633-1.699 1.5-.824-.134-1.399-1.02-1.286-1.983l2.986.483zM34.885 155.91c.82.114 1.393.872 1.28 1.691-.115.821-.872 1.394-1.693 1.28-.82-.114-1.393-.87-1.279-1.69.114-.822.87-1.395 1.692-1.28M42.926 158.86c-.461-.29-.747-.95-.674-1.651.074-.701.485-1.232.989-1.35l-.315 3zM38.385 161.972c.82.114 1.393.872 1.28 1.692-.115.821-.872 1.393-1.693 1.28-.82-.114-1.393-.871-1.279-1.691.114-.822.87-1.394 1.692-1.28M40.994 171.52c-.46-.297-.744-.951-.67-1.65.075-.697.484-1.226.989-1.35l-.319 3zM145.763 147.882c.115.96.876 1.632 1.7 1.5.823-.134 1.399-1.022 1.286-1.984l-2.986.484zM137.335 149.284c.115.96.876 1.633 1.7 1.499.823-.134 1.398-1.02 1.286-1.983l-2.986.484zM128.407 149.82c.115.96.875 1.633 1.7 1.499.823-.133 1.398-1.02 1.286-1.983l-2.986.484zM119.979 151.22c.115.962.874 1.634 1.699 1.501.824-.134 1.4-1.02 1.286-1.983l-2.985.483zM151.555 152.027c-.458.306-.738.955-.664 1.647.075.69.483 1.215.988 1.353l-.324-3zM143.61 152.944c-.82.113-1.393.87-1.279 1.69.114.821.871 1.395 1.692 1.28.82-.113 1.393-.87 1.28-1.69-.114-.821-.871-1.394-1.692-1.28M135.183 154.345c-.82.114-1.394.872-1.28 1.692.113.82.87 1.394 1.692 1.28.82-.114 1.393-.872 1.28-1.692-.115-.82-.872-1.393-1.692-1.28M126.254 154.881c-.82.114-1.393.872-1.279 1.692.114.82.87 1.393 1.692 1.28.82-.114 1.393-.87 1.28-1.69-.115-.822-.871-1.396-1.693-1.282M119.214 159.635c.46-.29.747-.95.673-1.651-.074-.701-.485-1.232-.989-1.35l.316 3zM147.977 158.506c-.82.114-1.393.87-1.28 1.692.114.82.872 1.393 1.693 1.279.82-.114 1.392-.87 1.279-1.69-.114-.821-.872-1.394-1.692-1.281M139.549 159.908c-.82.114-1.394.87-1.28 1.69.114.822.87 1.395 1.692 1.28.82-.113 1.393-.87 1.28-1.69-.115-.821-.871-1.394-1.692-1.28M131.12 161.31c-.82.113-1.393.87-1.279 1.69.113.822.87 1.395 1.692 1.28.82-.113 1.393-.87 1.28-1.69-.115-.82-.871-1.394-1.693-1.28M123.558 162.212c-.82.113-1.393.871-1.28 1.691.115.821.872 1.394 1.693 1.28.82-.113 1.393-.871 1.279-1.691-.114-.822-.87-1.394-1.692-1.28M152.729 164.054c-.46.3-.742.952-.668 1.647.075.694.484 1.222.988 1.353l-.32-3zM144.78 164.97c-.82.114-1.393.871-1.279 1.691.114.82.87 1.394 1.692 1.28.82-.114 1.393-.871 1.28-1.691-.115-.821-.871-1.393-1.692-1.28M136.353 166.372c-.82.114-1.394.87-1.28 1.69.113.821.87 1.394 1.692 1.281.82-.114 1.393-.871 1.28-1.691-.115-.821-.872-1.394-1.692-1.28M127.924 167.774c-.82.114-1.393.871-1.28 1.69.115.822.872 1.395 1.693 1.28.82-.113 1.393-.87 1.279-1.69-.114-.821-.87-1.394-1.692-1.28M120.387 171.661c.46-.297.744-.951.67-1.65-.075-.697-.484-1.226-.989-1.35l.319 3zM150.513 170.898c-.82.114-1.394.871-1.28 1.691.114.821.872 1.394 1.692 1.28.82-.114 1.393-.871 1.28-1.691-.114-.82-.872-1.394-1.692-1.28M142.085 172.3c-.82.114-1.394.87-1.28 1.692.113.82.87 1.393 1.692 1.28.82-.114 1.393-.872 1.28-1.692-.115-.82-.871-1.394-1.692-1.28M133.657 173.702c-.821.114-1.394.871-1.28 1.691.114.82.87 1.394 1.692 1.28.82-.114 1.393-.871 1.28-1.691-.115-.821-.872-1.394-1.692-1.28M124.728 174.238c-.82.114-1.393.87-1.28 1.69.115.822.871 1.395 1.692 1.28.82-.112 1.394-.87 1.28-1.69-.114-.821-.87-1.393-1.692-1.28M154.402 176.946c-.46.295-.745.95-.672 1.65.075.698.485 1.227.989 1.35l-.317-3zM146.45 177.862c-.82.114-1.393.871-1.279 1.691.114.821.87 1.394 1.692 1.28.82-.114 1.393-.871 1.28-1.69-.115-.822-.871-1.395-1.692-1.28M138.022 179.264c-.82.114-1.393.871-1.279 1.691.113.821.87 1.394 1.692 1.28.82-.114 1.393-.87 1.28-1.69-.115-.821-.872-1.394-1.693-1.281M129.094 179.8c-.82.114-1.393.871-1.28 1.692.115.82.871 1.393 1.692 1.28.82-.114 1.394-.872 1.28-1.692-.114-.82-.87-1.394-1.692-1.28M122.06 184.554c.459-.303.74-.955.666-1.647-.075-.694-.484-1.221-.988-1.353l.322 3zM152.183 183.79c-.82.114-1.394.872-1.28 1.692.114.82.871 1.393 1.692 1.28.82-.114 1.393-.872 1.28-1.692-.115-.82-.872-1.394-1.692-1.28M143.254 184.326c-.82.114-1.393.871-1.279 1.691.113.821.87 1.394 1.692 1.28.82-.114 1.393-.87 1.28-1.69-.115-.82-.871-1.394-1.693-1.28M134.827 185.728c-.82.114-1.394.871-1.28 1.692.114.82.87 1.393 1.692 1.28.82-.114 1.393-.872 1.279-1.692-.114-.82-.871-1.394-1.691-1.28M126.398 187.13c-.82.114-1.393.871-1.28 1.691.115.821.871 1.394 1.692 1.28.82-.114 1.394-.87 1.28-1.69-.114-.822-.87-1.395-1.692-1.28M156.44 188.472c-.46.29-.747.95-.674 1.653.074.701.485 1.233.989 1.347l-.314-3zM148.487 189.388c-.82.114-1.395.87-1.28 1.692.113.82.87 1.393 1.692 1.28.82-.114 1.393-.872 1.28-1.692-.115-.82-.871-1.393-1.692-1.28M140.059 190.79c-.821.114-1.394.871-1.28 1.691.114.821.87 1.394 1.692 1.28.82-.113 1.393-.87 1.279-1.69-.114-.822-.871-1.394-1.691-1.28M131.63 192.192c-.82.113-1.393.87-1.28 1.691.115.821.871 1.394 1.692 1.28.82-.113 1.394-.87 1.28-1.69-.114-.822-.87-1.395-1.692-1.28M124.099 196.08c.458-.308.738-.955.663-1.646-.075-.689-.482-1.216-.988-1.354l.325 3zM153.353 195.817c-.82.114-1.394.871-1.28 1.691.114.82.871 1.393 1.692 1.28.82-.114 1.393-.871 1.28-1.691-.115-.821-.872-1.394-1.692-1.28M144.924 197.219c-.82.113-1.393.87-1.28 1.69.114.822.872 1.395 1.693 1.28.82-.113 1.393-.87 1.279-1.69-.114-.821-.87-1.394-1.692-1.28M136.497 198.62c-.82.115-1.394.872-1.28 1.692.114.82.87 1.394 1.692 1.28.82-.113 1.393-.87 1.279-1.69-.114-.822-.871-1.395-1.691-1.282M127.568 199.156c-.821.114-1.394.872-1.28 1.692.114.82.871 1.393 1.691 1.28.821-.114 1.395-.872 1.28-1.692-.113-.82-.87-1.394-1.691-1.28M158.114 201.364c-.462.286-.751.948-.678 1.655.074.706.486 1.237.989 1.345l-.311-3zM150.156 202.28c-.82.114-1.393.871-1.28 1.692.114.82.872 1.394 1.693 1.28.82-.114 1.393-.87 1.28-1.691-.115-.821-.872-1.394-1.693-1.28M141.729 203.683c-.82.114-1.394.87-1.28 1.69.114.822.87 1.395 1.692 1.28.82-.113 1.393-.87 1.279-1.69-.114-.821-.871-1.394-1.691-1.28M133.3 205.084c-.82.114-1.393.872-1.28 1.692.114.82.871 1.394 1.692 1.28.82-.114 1.394-.87 1.28-1.69-.114-.822-.871-1.395-1.692-1.282M125.772 208.972c.457-.313.736-.958.66-1.644-.076-.685-.482-1.21-.988-1.356l.328 3zM155.023 208.709c-.82.115-1.394.871-1.28 1.692.114.82.871 1.393 1.692 1.28.82-.115 1.393-.871 1.28-1.691-.115-.821-.872-1.394-1.692-1.281M146.96 208.745c-.82.114-1.393.871-1.28 1.691.115.82.871 1.394 1.692 1.28.82-.114 1.394-.871 1.28-1.691-.114-.821-.87-1.394-1.692-1.28M138.532 210.147c-.82.113-1.393.87-1.28 1.69.114.822.872 1.395 1.693 1.28.82-.113 1.393-.87 1.279-1.69-.114-.82-.872-1.393-1.692-1.28M130.104 211.549c-.82.114-1.394.871-1.28 1.691.114.821.871 1.394 1.692 1.28.82-.113 1.393-.87 1.28-1.691-.114-.822-.871-1.394-1.692-1.28" transform="rotate(30 64.937 85.6)"/>
        <g transform="rotate(30 64.937 85.6) translate(158.278 213.208)">
            <mask id="prefix__l" fill="#fff">
                <use xlink:href="#prefix__k"/>
            </mask>
            <path fill="#FFF" d="M1.317.444C.863.647.577 1.132.65 1.65c.017.125.054.242.106.35h.777L1.317.443z" mask="url(#prefix__l)"/>
        </g>
        <g transform="rotate(30 64.937 85.6) translate(150.648 213.86)">
            <mask id="prefix__n" fill="#fff">
                <use xlink:href="#prefix__m"/>
            </mask>
            <path fill="#FFF" d="M1.417.993C.958 1.077.59 1.473.413 2h2.363C2.548 1.316 2.002.886 1.417.993" mask="url(#prefix__n)"/>
        </g>
    </g>
</svg>
