<svg xmlns="http://www.w3.org/2000/svg" xmlns:xlink="http://www.w3.org/1999/xlink" width="124" height="149" viewBox="0 0 124 149">
    <defs>
        <path id="prefix__a" d="M0 0.036L177.587 0.036 177.587 129 0 129z"/>
    </defs>
    <g fill="none" fill-rule="evenodd" transform="scale(-1 1) rotate(21 16.46 -257.474)">
        <mask id="prefix__b" fill="#fff">
            <use xlink:href="#prefix__a"/>
        </mask>
        <path fill="#C6BFA3" d="M177.402 114.886c-.21-.71-.615-1.266-1.312-.937-.655.313-.648 1.772-.766 2.37-.576 2.925-3.8 4.566-6.76 4.866-5.405.547-11.011-2.164-13.95-6.742-1.733-2.696-2.545-5.872-3.33-8.981-1.25-4.947-2.501-9.907-3.266-14.951-1.19-7.85-1.197-15.839-2.207-23.714-.791-6.16-2.04-12.27-3.883-18.202-3.252-10.46-8.144-21.03-15.814-29.025-2.351-2.451-4.873-4.738-7.53-6.852-3.875-3.084-8.057-5.784-12.468-8.032-2.647-1.346-5.385-2.54-8.258-3.281C94.621.568 91.263.316 87.925.17c-6.47-.282-12.976-.153-19.405.68-17.144 2.22-32.986 10.931-44.9 23.443C18.599 29.568 14.163 35.432 11 42.022 7.484 49.348 4.48 56.924 2.022 64.67c-2.754 8.679-2.45 18.035-.556 26.857.487 2.266 1.08 4.508 1.76 6.72.55 1.791.848 3.824 1.648 5.492 2.1 4.376 4.505 8.966 8.471 11.936 2.629 1.965 5.771 2.96 9.03 3.123 2.747.136 6.97.022 9.406-1.414 1.048-.62 1.886-1.547 2.58-2.55 1.331-1.925 2.21-4.31 1.756-6.635-.35-1.779-.432-4.491-2.407-5.296-1.771-.72-4.872-.157-6.425.87-1.522 1.007-.697 1.605-.036 2.79 2.098 3.739-3.852 4.876-6.223 3.23-1.9-1.32-3.357-2.76-4.364-4.881-1.92-4.038-2.213-8.815-2.126-13.223.09-4.573.377-9.219 1.928-13.521 2.211-6.133 6.917-11.385 13.836-9.444 2.275.637 3.348 2.397 4.583 4.417 1.728 2.828 3.177 5.876 4.058 9.08.883 3.21.92 6.573 1.566 9.837 1.8 9.112 2.564 18.388 2.953 27.653.08 1.901.135 3.558-.262 5.386-.347 1.594-.009 2.602 1.52 3.188 2.334.897 5.115.342 7.541.302 1.688-.026 3.374-.053 5.064-.078 1.685-.029 3.395-.058 5.015-.525.967-.279.482-1.565.387-2.565-.251-2.668-.287-5.45-.803-8.078-.356-1.812-.186-3.688-.242-5.524-.05-1.668.566-2.082 2.207-2.559 2.318-.675 8.429-1.256 9.54 1.827.209.582-.058 1.453-.052 2.073.012 1.264.182 2.53.182 3.798-.003 2.537-.248 5.07-.738 7.555-.188.96-.704 2.973.303 3.694.696.495 2.385.032 3.21.046 3.67.059 7.31.85 10.977.738.725-.024 1.434-.541 1.778-1.179.343-.64.417-1.385.49-2.11.453-4.6.612-9.796 1.917-14.245.58-1.982 2.872-1.346 4.645-1.352 2.475-.006 4.95.067 7.418.229 3.73.237 5.364 1.414 5.293 5.263l-.19 10.348c-.01.565-.006 1.18.336 1.632.477.627 1.388.674 2.176.667 3.366-.043 6.73-.08 10.097-.122.44-.004.904-.018 1.28-.247.528-.327.732-.99.834-1.605.661-3.963-1.117-8.082-.209-11.998 1.34-.881 2.965-.939 4.561-.79 1.652.15 6.475-.622 6.596 1.485.128 2.212-.372 3.93-.824 6.068-.331 1.574-.556 3.188-.618 4.796-.072 1.866.723 1.882 2.503 1.926 2.016.05 4.008.451 6.002.754 1.13.172 2.36.292 3.347-.285.415.096.218-.277.361-.68.262-.74.22-1.55.175-2.333l-.275-4.785c-.034-.584.072-1.36.65-1.456.431-.074.786.317 1.05.667 2.791 3.726 7.491 6.587 11.905 7.884 3.745 1.102 8.069.946 11.683-.557 2.847-1.185 4.908-3.461 5.94-6.358.43-1.204 1.113-2.698 1.326-3.936.064-.369.036-1.14-.154-1.785" mask="url(#prefix__b)"/>
        <path fill="#35302F" d="M27.027 59.778c-.38 3.415 3.315 5.812 6.287 5.095 1.454-.351 2.453-1.2 3.329-2.433.73-1.026 1.788-2.864 1.172-4.118-.119-.24-.447-.386-.694-.294-1.416.527-1.624 2.71-2.546 3.858-.843 1.048-2.145 1.238-3.375 1.051-1.794-.273-2.588-1.716-3.21-3.294-.215-.543-.897-.453-.963.135"/>
        <path fill="#AFA68B" d="M66.569 85.104c-3.151-1.473-4.995-4.764-6.4-7.946-7.433-16.827-8.185-36.503-2.06-53.85 1.104-3.123 2.5-6.284 5.005-8.449 3.862-3.34 9.734-3.574 14.457-1.631 4.722 1.941 8.453 5.722 11.555 9.779 8.012 10.478 12.69 24.073 10.207 37.03-2.484 12.955-13.184 24.603-26.307 25.867-2.186.21-4.468.132-6.457-.8"/>
        <path fill="#FFC1A6" d="M65.465 64.6c-1.37-.656-2.172-2.124-2.783-3.543-3.232-7.505-3.559-16.279-.895-24.014.48-1.392 1.087-2.802 2.175-3.767 1.68-1.49 4.234-1.595 6.286-.729 2.053.866 3.676 2.551 5.025 4.361 3.482 4.673 5.516 10.736 4.437 16.515-1.08 5.776-5.732 10.969-11.438 11.534-.951.094-1.943.058-2.807-.357M46.897 123.166c-.3.2-.4.271-.625.53-.19.222-.251.515-.269.783-.033.468.202.877.55 1.217.344.337 1.006.392 1.44.173.328-.165.497-.43.607-.733.04-.11.22-.462 0-.05.022-.042.055-.079.08-.12.106-.177-.254.237-.087.096.444-.383.537-.996.218-1.464-.183-.27-.486-.47-.835-.555-.323-.075-.799-.063-1.079.123M52.212 122.73l-.043.116.297-.463c-.028.023-.057.04-.085.063-.372.275-.437.786-.342 1.18.079.33.261.695.527.938.103.082.21.155.324.223l.325.124c-.324-.134-.291-.124.094.028.256.097.585.064.844 0 .29-.075.541-.25.695-.486.174-.272.162-.52.117-.815.05.318.047.292-.01-.083-.025-.134-.09-.254-.166-.368.145.299.133.269-.037-.094-.068-.126-.172-.234-.279-.335.152.185.189.23.111.128-.058-.076-.139-.27.027.094-.203-.446-.486-.745-1.02-.867l.69.481c-.023-.03-.046-.066-.068-.101-.189-.304-.562-.493-.944-.493-.517 0-.888.31-1.057.73M58.587 123.38l-.033.063c.116-.096.233-.193.349-.287-.714.31-.8.917-.89 1.505l.049-.301c-.022.126-.043.249-.062.373 0 .265.084.393.208.627.106.204.34.372.565.482.441.216 1.014.206 1.452-.003.366-.176.552-.442.695-.756.228-.503-.05-1.141-.613-1.411-.28-.137-.715-.178-1.026-.076-.265.09-.424.147-.634.314l-.214.229c.157-.212.39-.35.702-.414.125-.016.25-.03.377-.044h-.023c.125.014.252.028.377.044-.008-.004-.016-.005-.024-.005l.624.294c-.089-.062-.044-.013.137.144.063.191.126.385.19.575-.033-.245-.081-.486-.148-.728-.042-.084-.087-.166-.131-.253.073.143.085.158.038.05-.12-.303-.343-.478-.664-.646.151.157.3.317.45.477-.007-.021-.013-.046-.02-.065-.182-.614-1.386-.809-1.73-.187M76.13 123.04c-.314-.047-.518-.059-.83 0-.422.08-.669.315-.91.584-.294.325-.365.756-.389 1.15-.038.667.698 1.226 1.47 1.226 1.002 0 1.613-.778 1.418-1.55-.014-.053-.025-.105-.035-.158l.053.322-.073-.463c.017.107.033.21.051.314-.023-.144.047-.396-.046.017l.01-.034c-.146.287-.136.269.03-.058.02-.102-.013-.045-.1.167.058-.081.017-.039-.126.131.287-.263.421-.603.305-.959-.102-.312-.432-.627-.828-.69M79.298 124.62c.038.027.071.06.102.094l-.268-.437c.078.205.177.362.293.545l.03.052c-.07-.119-.106-.248-.11-.388.002.224.06.434.18.629-.085-.206-.106-.248-.062-.125.1.297.293.592.594.739-.07-.056-.129-.12-.177-.193.088.14.206.253.353.337.399.217.858.15 1.19-.149.099-.086.16-.167.246-.28-.104.181-.052.128.154-.157.117-.193.176-.403.177-.626 0-.494-.259-.985-.695-1.249.33.2.162.108.078.04-.235-.184-.355-.26-.64-.363-.15-.053-.32-.091-.48-.088-.118-.004-.235.008-.352.035.18-.016.207-.021.083-.02-.815-.012-1.362 1.062-.696 1.605M84.055 124.278c.036.08.067.153.084.238l.325-1.056-.036.036c-.468.47-.51.954-.227 1.51.174.341.454.6.829.793-.153-.132-.303-.263-.455-.39l.06.067c.328.387.815.622 1.39.484.572-.133.842-.542.904-1.016.005-.03.008-.059.01-.085l-.173.55c.205-.36.282-.64.204-1.04-.045-.22-.142-.422-.265-.62-.217-.345-.776-.668-1.253-.616-.03.003-.063.009-.094.01.297.106.595.213.892.317-.08-.053-.152-.11-.226-.166-.4-.303-.948-.399-1.429-.158-.422.212-.724.723-.54 1.142M110.44 123.47c-.024.036-.045.078-.07.116l.471-.366c-.356.159-.555.406-.67.702l-.042.105.11-.202c-.084.097-.135.199-.154.309-.05.234-.112.47-.073.708.05.32.13.58.436.819.277.217.66.339 1.053.339.393 0 .774-.122 1.05-.339.308-.239.387-.5.438-.82.036-.227-.024-.444-.065-.67-.023-.135-.055-.187-.162-.346.204.302.125.24.083.13-.122-.307-.31-.568-.683-.735.155.123.312.244.47.366-.024-.038-.048-.08-.073-.117-.377-.625-1.74-.625-2.118 0M115.364 123.217c-.126.13-.248.338-.284.545.082-.202.07-.156-.037.143-.03.13-.032.296-.039.439-.018.356.025.734.166 1.046.217.48.689.713 1.11.567.522-.18.822-.872.688-1.527-.064-.305-.216-.532-.356-.785-.075-.161-.179-.292-.308-.39.213.204-.031-.055-.11-.118-.272-.214-.588-.17-.83.08M119.19 123.605c.008-.026.018-.05.025-.076l.253-.317c-.678.453-.5 1.524-.207 2.211.242.562.854.735 1.284.422.536-.396.598-1.293.189-1.847-.042-.057-.149-.252 0 .013-.042-.076-.073-.16-.112-.236-.168-.323-.305-.526-.61-.651l.42.405c.01.026.02.05.028.076-.096-.35-.328-.605-.635-.605-.318 0-.526.258-.635.605M135.347 123.6l.019-.052.439-.419c-.014.002-.025.008-.039.01-.291.096-.54.401-.613.763-.033.125-.023.118.029-.025.114-.14.227-.28.34-.422l-.036.02c-.439.238-.534.912-.466 1.424.04.303.139.55.317.766.369.447.957.447 1.326 0 .178-.216.277-.463.317-.766.068-.512-.027-1.186-.466-1.424l-.035-.02c.112.141.227.282.34.422.05.143.062.15.03.025-.076-.362-.324-.667-.615-.762-.013-.003-.025-.01-.038-.011l.44.42c.004.016.01.035.017.05-.245-.799-1.061-.799-1.306 0M138.102 124.577c-.022.098-.044.197-.07.295-.08.286-.015.64.258.844.033.025.065.047.095.073.379.281.851.281 1.23 0l.095-.073c.273-.204.338-.558.259-.844-.026-.098-.049-.197-.07-.295-.18-.77-1.618-.77-1.797 0M141.111 124.981c.053.115.056.1.007-.051l.209-.525c-.105.092-.184.24-.22.378-.036.146-.036.291 0 .437-.015-.054-.014-.112.006-.168.02-.068-.086.637-.026.304-.047.108-.067.224-.063.35.021-.138.021-.146 0-.025-.107.556.145 1.125.7 1.282.257.073.538.037.77-.103.334-.206.449-.522.495-.9.032-.266-.01-.507-.087-.759-.059-.19-.143-.418-.29-.56.182.178-.138-.173-.182-.223-.18-.205-.515-.297-.77-.21-.005 0-.011.005-.017.005l.55.074c-.08-.043-.156-.106-.246-.176-.52-.395-1.113.353-.836.87"/>
        <path fill="#FFF" d="M21.366 35.405c.548.963 1.522 1.595 2.644 1.595 1.056 0 2.052-.575 2.585-1.49.54-.928.54-2.109 0-3.037-.974-1.674-3.334-1.982-4.701-.608-.921.925-1.188 2.38-.528 3.54M38.101 39.49c.009.027.015.053.02.08l-.102-.748c.008.056.007.107.001.162-.075.737.38 1.706.954 2.161.368.362.801.613 1.3.75.522.14 1.043.14 1.566 0 1.27-.346 2.15-1.513 2.16-2.813.003-.296-.046-.595-.118-.884-.244-1-1.104-1.786-2.083-2.065-.324-.091-.684-.159-1.022-.124l-.738.098c-.47.13-.878.366-1.225.708-.694.687-.985 1.733-.713 2.674"/>
        <path fill="#35302F" d="M24 36c1.333 0 1.333-3 0-3s-1.333 3 0 3M41.257 38.22c-.46-.294-1.055-.294-1.514 0-.567.367-.874 1.018-.69 1.685.178.64.78 1.095 1.447 1.095s1.27-.455 1.446-1.095c.184-.667-.12-1.318-.69-1.684"/>
    </g>
</svg>
